<ttFont>
          <CharString index="0">
            69 -26 202 278 147 362 190 hstemhm
            135 209 447 228 -176 232 hintmask 00000000
            1031 -69 rmoveto
            24 3 20 8 33 vvcurveto
            31 -19 256 -3 23 vhcurveto
            17 -2 -9 -47 callsubr
            -16 -4 -5 -45 callgsubr
            -3 -52 rlineto
            -12 -77 -128 -9 -40 hhcurveto
            -155 -93 34 244 -19 hvcurveto
            hintmask 11110100
            232 284 11 91 82 hvcurveto
            45 50 29 56 122 vvcurveto
            249 -106 120 -247 -230 -138 -64 -143 -82 vhcurveto
            -65 -114 -16 -159 -166 vvcurveto
            -379 123 -154 264 vhcurveto
            hintmask 11111000
            113 128 12 20 84 hvcurveto
            -4 -73 rlineto
            -16 6 -6 16 vhcurveto
            hintmask 11110100
            -74 879 rmoveto
            -59 -3 -40 -34 -30 vhcurveto
            -47 -42 -190 -16 -173 -2 4 120 16 97 40 59 rrcurveto
            64 44 90 22 93 hhcurveto
            123 37 -71 -102 hvcurveto
            return
          </CharString>
          <CharString index="1">
            68 6 216 -213 225 663 -9 callgsubr
            207 hstemhm
            151 209 449 203 hintmask 00000000
            1176 213 rmoveto
            16 -6 7 -14 1 vhcurveto
            -134 -5 rlineto
            hintmask 01101100
            -10 844 rlineto
            14 -3 10 -13 vhcurveto
            -288 10 rlineto
            -15 -5 -6 -16 -2 hvcurveto
            -19 -165 2 -12 3 -4 12 -1 rlinecurve
            125 -7 rlineto
            -575 vlineto
            -59 -94 -94 -43 -90 hhcurveto
            -120 -51 62 136 hvcurveto
            hintmask 10011100
            112 33 366 19 190 vhcurveto
            14 -3 8 -11 vhcurveto
            -318 8 -16 -1 -5 -3 -2 -16 rlinecurve
            -20 -177 rlineto
            -18 7 -6 14 vhcurveto
            128 4 rlineto
            -17 -171 -18 -228 -119 vvcurveto
            -280 117 -97 178 148 124 53 89 104 vhcurveto
            hintmask 10101100
            24 -101 rlineto
            -26 6 10 -12 25 hhcurveto
            247 hlineto
            16 7 6 15 1 hvcurveto
            return
          </CharString>
          <CharString index="2">
            rmoveto
            -4 -3 -1 -3 -3 vvcurveto
            -5 3 -4 3 -4 vhcurveto
            62 -76 rlineto
            -5 4 5 -3 5 hhcurveto
            5 6 3 3 5 hvcurveto
            289 150 320 -159 rlineto
            -2 4 4 -2 4 -52 callgsubr
            4 3 hvcurveto
            61 73 rlineto
            4 5 2 5 4 -41 callgsubr
            -33 callsubr
            -302 251 rlineto
            16 -19 -12 10 -15 hhcurveto
            -95 -10 -10 -1 -17 -10 -18 -14 rlinecurve
            endchar
          </CharString>
          <CharString index="3">
            69 4 195 1162 191 hstemhm
            120 235 499 219 -181 240 hintmask 00000000
            118 381 rmoveto
            -16 -1 -8 -5 -16 vvcurveto
            38 -387 2 -24 16 -14 24 -1 rlinecurve
            172 5 rlineto
            15 8 6 12 hvcurveto
            -7 80 rlineto
            -18 102 121 -14 97 hhcurveto
            299 151 156 253 224 -92 83 -300 139 hvcurveto
            -244 113 -141 45 135 vvcurveto
            156 152 53 145 vhcurveto
            hintmask 11101000
            71 60 -12 -16 67 hvcurveto
            8 -220 -66 callgsubr
            -30 callgsubr
            20 415 rlineto
            17 -1 -13 10 -16 hhcurveto
            -22 -81 -21 -18 -62 hvcurveto
            27 -98 -97 18 -113 hhcurveto
            -268 -192 -176 -246 -269 184 -54 294 -142 hvcurveto
            hintmask 11110000
            214 -104 80 -39 -128 vvcurveto
            -130 -72 -65 -171 -83 -116 4 11 -102 vhcurveto
            -13 162 -41 callsubr
            -10 7 -10 hhcurveto
            return
          </CharString>
          <CharString index="4">
            rmoveto
            10 -4 -48 callgsubr
            -7 -2 -4 -8 hvcurveto
            -453 -290 rlineto
            -7 -4 -2 -4 -5 -34 callgsubr
            2 -5 vhcurveto
            39 -92 rlineto
            -7 3 4 -38 callgsubr
            4 1 2 5 hvcurveto
            494 207 rlineto
            10 4 5 7 9 vvcurveto
            5 -1 6 -3 6 vhcurveto
            endchar
          </CharString>
          <CharString index="5">
            rmoveto
            7 -6 -8 4 -7 hhcurveto
            -8 -14 callgsubr
            -383 -420 rlineto
            -3 -4 -42 callsubr
            -7 3 -7 5 -6 vhcurveto
            67 -68 rlineto
            -4 4 4 -2 5 hhcurveto
            4 4 2 2 3 hvcurveto
            462 340 rlineto
            6 5 2 7 7 -41 callgsubr
            6 -3 4 vhcurveto
            endchar
          </CharString>
          <CharString index="6">
            rmoveto
            -30 callsubr
            vvcurveto
            6 -4 6 -4 5 vhcurveto
            -60 72 rlineto
            5 -4 -5 3 -5 hhcurveto
            -5 -6 -3 -3 -5 hvcurveto
            -298 -181 -331 184 rlineto
            2 -4 -4 2 -4 hhcurveto
            -4 -5 -2 -4 -3 hvcurveto
            -61 -73 rlineto
            -4 -5 -2 -5 -4 vvcurveto
            -5 2 -5 5 -5 vhcurveto
            314 -278 rlineto
            -16 19 12 -9 15 hhcurveto
            98 9 13 1 12 9 17 15 rlinecurve
            endchar
          </CharString>
          <CharString index="7">
            -4 219 -219 229 1075 220 -211 221 hstemhm
            578 -11 callsubr
            980 193 rmoveto
            16 -4 6 -14 vhcurveto
            -166 3 7 340 rlineto
            hintmask 10011000
            415 746 rlineto
            87 -27 callsubr
            162 rlineto
            19 -5 12 -17 1 vhcurveto
            -456 -7 rlineto
            -20 -9 -8 -22 -1 hvcurveto
            15 -167 rlineto
            -17 2 5 -6 16 hhcurveto
            127 3 -288 -591 rlineto
            hintmask 10101000
            -298 599 110 -4 21 1 8 4 1 23 rlinecurve
            10 165 rlineto
            19 0 11 -24 vhcurveto
            -483 hlineto
            -22 -9 -5 -22 hvcurveto
            10 -170 rlineto
            -24 9 -8 19 vhcurveto
            86 6 428 -748 -3 -337 -157 3 rlineto
            -14 -8 -4 -18 -1 hvcurveto
            hintmask 01011000
            -7 -169 rlineto
            -17 1 3 -6 14 hhcurveto
            532 -15 16 2 7 3 1 16 rlinecurve
            return
          </CharString>
          <CharString index="8">
            -7 227 -227 238 -234 245 396 185 522 210 hstemhm
            241 216 542 232 hintmask 00000000
            118 1301 rmoveto
            31 43 2 4 49 hvcurveto
            hintmask 10011110
            -1080 vlineto
            -127 9 -12 -2 -3 -4 -1 -13 rlinecurve
            hintmask 01011110
            -22 -197 -56 callsubr
            5 -49 callgsubr
            hintmask 00111110
            504 -54 callgsubr
            -7 188 rlineto
            9 -4 10 -12 vhcurveto
            -135 hlineto
            -3 429 67 -6 67 -4 71 -1 rlinecurve
            hintmask 10011110
            338 -621 rlineto
            -15 8 8 -5 15 hhcurveto
            284 7 rlineto
            27 1 10 29 25 vvcurveto
            -1 157 rlineto
            23 -15 10 -18 1 vhcurveto
            -177 -15 -262 414 rlineto
            204 40 144 140 252 vvcurveto
            330 -185 144 -359 -155 -322 -18 -13 -116 vhcurveto
            -16 -2 -7 -13 -1 -16 20 -164 rcurveline
            hintmask 00111110
            -17 2 12 -11 14 hhcurveto
            607 44 rmoveto
            183 91 -80 -189 -184 -145 -69 -192 -70 -64 1 4 -69 hvcurveto
            -4 498 rlineto
            10 107 103 9 60 hhcurveto
            return
          </CharString>
          <CharString index="9">
            -41 217 -203 -21 1383 205 hstemhm
            130 236 hintmask 00000000
            1181 1029 rmoveto
            13 9 10 16 hvcurveto
            12 436 rlineto
            24 -1 -17 15 -24 hhcurveto
            -180 -28 rlineto
            27 -81 -106 11 -99 hhcurveto
            -342 -235 -213 -551 -530 193 -287 371 123 104 30 44 82 hvcurveto
            hintmask 10110000
            2 -42 rlineto
            -24 1 17 -28 callgsubr
            14 1 9 5 12 vvcurveto
            -40 390 rlineto
            16 -2 -9 7 -10 hhcurveto
            -166 -28 -16 -3 -7 -4 -1 -15 rlinecurve
            hintmask 01110000
            5 -134 rlineto
            -23 -71 -68 -15 -96 hhcurveto
            -253 -142 149 440 416 113 154 262 83 72 -11 -19 75 hvcurveto
            21 -257 -56 callsubr
            10 -7 10 hhcurveto
            return
          </CharString>
          <CharString index="10">
            -276 -24 -21 48 178 751 199 -188 169 hstemhm
            143 212 255 191 hintmask 00000000
            5 975 rmoveto
            -17 5 -9 15 -1 vhcurveto
            133 -10 rlineto
            -8 -221 -7 -240 -127 vvcurveto
            -249 97 -98 213 67 46 1 2 42 vhcurveto
            4 -32 2 -16 9 -2 15 -1 rlinecurve
            148 24 rlineto
            11 2 4 5 13 vvcurveto
            29 -3 193 -1 32 vhcurveto
            15 -8 8 -13 vhcurveto
            -167 -20 rlineto
            -13 -2 -6 -5 -10 vvcurveto
            -3 1 -23 2 -30 vhcurveto
            -1 -17 -20 -1 -21 hhcurveto
            -147 -33 41 219 hvcurveto
            hintmask 11011100
            184 7 170 10 146 vhcurveto
            405 -17 rlineto
            16 1 6 5 15 vvcurveto
            163 vlineto
            14 -4 10 -18 vhcurveto
            -392 -11 rlineto
            14 152 12 144 18 vvcurveto
            15 -4 7 -17 vhcurveto
            -186 -22 -17 -2 -3 -6 -2 -19 rlinecurve
            hintmask 11101000
            -4 -41 -6 -112 -6 -140 -140 -3 rcurveline
            -15 -7 -11 -11 hvcurveto
            return
          </CharString>
          <CharString index="11">
            105 751 rmoveto
            -501 204 -260 390 385 176 273 488 564 -211 225 -378 -381 -185 -287 -502 vhcurveto
            929 -6 rmoveto
            -364 -84 -164 -244 -253 -124 128 410 378 88 179 256 229 132 -104 -463 vhcurveto
            return
          </CharString>
          <CharString index="12">
            -22 215 -185 -21 1342 211 hstemhm
            96 216 662 -11 callsubr
            706 617 rmoveto
            -10 7 -9 16 -2 vhcurveto
            243 7 5 -366 rlineto
            -24 -66 -103 -20 -79 hhcurveto
            -257 -160 119 474 425 159 118 238 125 82 -62 -100 74 hvcurveto
            190 26 rlineto
            12 2 8 6 14 vvcurveto
            -11 366 rlineto
            16 -10 7 -14 vhcurveto
            -157 -14 -13 -1 -7 -10 -2 -15 rlinecurve
            -20 -121 rlineto
            63 -78 -107 34 -120 hhcurveto
            -347 -218 -197 -553 -572 207 -240 382 124 103 33 45 78 hvcurveto
            hintmask 10111000
            -39 77 81 -30 31 hhcurveto
            14 11 10 18 1 hvcurveto
            -18 595 52 2 rlineto
            8 10 8 15 hvcurveto
            5 172 -1 24 -14 17 -24 1 rlinecurve
            -487 -32 rlineto
            -16 -1 -10 -5 -16 vvcurveto
            hintmask 01111000
            return
          </CharString>
          <CharString index="13">
            243 -1 -21 40 198 687 247 -10 -20 -3 callsubr
            428 212 hintmask 00000000
            120 905 rmoveto
            -16 6 -8 14 vhcurveto
            153 -4 rlineto
            -661 -85 vlineto
            -16 -4 -6 -15 -2 hvcurveto
            -20 -153 rlineto
            -14 3 -10 13 vhcurveto
            417 hlineto
            15 5 6 -40 callgsubr
            19 155 rlineto
            12 -5 5 -12 vhcurveto
            -109 -12 -12 599 rlineto
            hintmask 11011100
            61 96 95 43 99 hhcurveto
            122 22 -56 -159 -95 0 -423 -5 -170 hvcurveto
            -14 11 -8 11 vhcurveto
            290 22 rlineto
            16 1 7 3 16 vvcurveto
            147 vlineto
            18 -8 6 -13 vhcurveto
            -115 -5 rlineto
            7 172 11 288 120 vvcurveto
            254 -72 130 -214 -150 -151 -101 -105 -104 vhcurveto
            hintmask 11101100
            173 vlineto
            16 -4 7 -14 vhcurveto
            -277 -41 -16 -2 -7 -10 -1 -9 rlinecurve
            return
          </CharString>
          <CharString index="14">
            70 906 234 -223 203 -198 218 hstemhm
            6 1183 hintmask 00000000
            347 -366 rmoveto
            -3 -5 -1 -5 -4 vvcurveto
            -12 8 -6 14 -2 vhcurveto
            198 -54 rlineto
            12 7 9 15 5 hvcurveto
            hintmask 10010000
            482 1360 88 -8 rlineto
            16 5 6 15 1 hvcurveto
            hintmask 00110000
            10 173 rlineto
            14 -5 9 -11 1 vhcurveto
            -437 -10 rlineto
            -15 -6 -7 -15 -1 hvcurveto
            -9 -185 rlineto
            -12 1 4 -5 12 hhcurveto
            137 13 -236 -740 rlineto
            hintmask 10010000
            -260 735 131 3 rlineto
            16 4 4 17 2 hvcurveto
            -5 170 rlineto
            14 -6 8 -12 vhcurveto
            -454 -10 rlineto
            -16 -7 -4 -16 hvcurveto
            -10 -169 rlineto
            -18 7 -6 14 vhcurveto
            95 2 336 -841 rlineto
            -11 5 3 -7 14 hhcurveto
            86 3 rlineto
            hintmask 01010000
            return
          </CharString>
          <CharString index="15">
            -103 -7 195 750 215 6 -20 hstemhm
            94 212 392 215 -201 201 hintmask 00000000
            697 1124 rmoveto
            17 -69 -72 12 -72 hhcurveto
            -369 -21 -341 -295 -369 123 -155 282 hvcurveto
            hintmask 11010100
            56 64 9 13 68 hvcurveto
            -3 -57 rlineto
            -12 1 4 -7 12 hhcurveto
            192 hlineto
            14 6 8 13 hvcurveto
            -18 313 -1 15 -3 7 -12 1 rlinecurve
            -158 6 -16 -1 -4 -10 -1 -15 rlinecurve
            -4 -69 rlineto
            -11 -55 -46 -8 -72 hhcurveto
            -137 -80 60 305 258 49 127 235 hvcurveto
            hintmask 11011000
            43 39 -6 -9 40 hvcurveto
            -169 vlineto
            -15 4 -7 17 vhcurveto
            167 22 16 2 5 6 1 19 rlinecurve
            hintmask 11010100
            -17 356 -1 15 -4 5 -15 2 rlinecurve
            hintmask 10110100
            return
          </CharString>
          <CharString index="16">
            rmoveto
            -3 -15 callsubr
            -7 2 -7 6 -5 vhcurveto
            462 -340 rlineto
            -3 3 8 callgsubr
            5 5 3 3 3 hvcurveto
            67 68 rlineto
            5 6 -33 callgsubr
            5 -3 4 vhcurveto
            -383 420 rlineto
            7 -6 -48 callgsubr
            -14 callgsubr
            endchar
          </CharString>
          <CharString index="17">
            -27 53 55 -28 46 hhcurveto
            92 109 -84 callsubr
            -6 -15 -7 -12 -21 hvcurveto
            -25 -44 -71 -37 -62 hhcurveto
            -42 -55 30 30 -54 hvcurveto
            28 -50 -49 24 -37 hhcurveto
            -74 -110 -68 callsubr
          </CharString>
          <CharString index="18">
            307 758 rmoveto
            13 9 7 15 2 hvcurveto
            21 172 458 -2 -662 -749 16 -145 4 -37 19 -14 37 -2 rlinecurve
            661 13 2 -41 1 -17 6 -10 17 -1 rlinecurve
            144 -8 rlineto
            13 6 6 15 1 hvcurveto
            12 335 rlineto
            15 -4 7 -12 1 vhcurveto
            -178 14 -16 -1 -4 -10 -1 -15 rlinecurve
            4 -93 -471 -24 636 728 -26 178 -4 26 -5 22 -29 -1 rlinecurve
            -605 -28 -20 26 -177 23 -17 -2 -4 -6 -1 -19 rlinecurve
            -13 -339 1 -15 4 -5 15 -2 rlinecurve
            return
          </CharString>
          <CharString index="19">
            -70 callgsubr
            107 -23 13 -100 -138 -28 -23 -114 -106 22 -20 100 vhcurveto
            return
          </CharString>
          <CharString index="20">
            776 -64 291 -225 211 -211 382 -374 213 367 176 -158 204 741 -20 hstemhm
            925 213 -198 210 383 221 -116 219 -50 callgsubr
            1845 -64 rmoveto
            12 8 7 16 1 hvcurveto
            hintmask 1000011010100000
            -16 397 -1 19 -10 11 -19 1 rlinecurve
            -135 -5 -24 -1 -16 -14 -2 -24 rlinecurve
            hintmask 0010011010100000
            -9 -121 -496 -18 1 397 396 7 rlineto
            14 -30 callgsubr
            13 156 rlineto
            17 -11 7 -16 1 vhcurveto
            hintmask 0100011100100000
            -398 -29 19 560 367 6 13 -209 rlineto
            -17 1 4 -9 18 hhcurveto
            162 30 rlineto
            12 2 8 10 15 vvcurveto
            10 355 rlineto
            19 -13 7 -17 1 vhcurveto
            -1016 -42 -15 -1 -7 -8 -5 -12 rlinecurve
            -517 -1265 -101 5 rlineto
            -22 -1 -8 -7 -21 vvcurveto
            -167 vlineto
            -19 5 -12 17 -1 vhcurveto
            436 17 20 1 7 7 3 22 rlinecurve
            hintmask 1000011011000000
            -15 152 rlineto
            17 -2 -5 6 -16 hhcurveto
            -99 -10 148 371 400 11 -16 -384 -126 17 rlineto
            -12 -2 -7 -9 -13 vvcurveto
            hintmask 0001101100100000
            -6 -179 -56 callsubr
            6 -8 16 hhcurveto
            830 24 rlineto
            hintmask 0100011010100000
            -4 -60 rlineto
            -16 6 -10 16 vhcurveto
            -796 1414 rmoveto
            102 -6 -5 -573 -335 -16 rlineto
            return
          </CharString>
          <CharString index="21">
            hlineto
            22 9 5 22 hvcurveto
            158 vlineto
            24 -9 7 -19 1 vhcurveto
            -91 -3 rlineto
            -590 1082 rmoveto
            210 -643 rlineto
            -389 hlineto
            return
          </CharString>
          <CharString index="22">
            rmoveto
            7 -6 -9 4 -7 hhcurveto
            -8 -7 -2 callsubr
            -288 -369 rlineto
            -4 -5 -42 callsubr
            -8 5 -6 5 -5 vhcurveto
            76 -68 rlineto
            -4 4 5 -2 5 hhcurveto
            -30 callsubr
            hvcurveto
            351 319 rlineto
            6 5 2 7 6 vvcurveto
            6 -2 6 -4 4 vhcurveto
            -622 139 rmoveto
            6 -7 -8 5 -7 hhcurveto
            -8 -8 -3 -8 -5 hvcurveto
            -266 -388 rlineto
            -3 -5 -42 callsubr
            -8 4 -7 5 -4 vhcurveto
            79 -58 rlineto
            -3 5 5 -3 5 hhcurveto
            3 -34 callsubr
            hvcurveto
            331 331 9 callgsubr
            8 8 -41 callgsubr
            5 -4 3 vhcurveto
            endchar
          </CharString>
          <CharString index="23">
            96 65 59 hvcurveto
            7 7 5 6 9 vvcurveto
            3 0 3 -2 5 vhcurveto
            -33 78 rlineto
            13 -5 -2 callgsubr
            return
          </CharString>
          <CharString index="24">
            rmoveto
            -17 -5 -5 -15 -1 hvcurveto
            -10 -160 rlineto
            -17 4 -7 16 vhcurveto
            168 -3 13 -315 rlineto
            39 -101 -98 17 -108 hhcurveto
            -278 -132 -159 -408 -394 100 -190 324 139 126 50 19 46 hvcurveto
            -8 -99 rlineto
            -16 6 -6 13 vhcurveto
            248 40 16 3 5 4 2 13 rlinecurve
            18 155 rlineto
            12 -6 7 -14 vhcurveto
            -105 -11 rlineto
            1404 vlineto
            16 -4 6 -14 1 vhcurveto
            -676 -1025 rmoveto
            293 72 61 177 99 84 -16 -19 75 vhcurveto
            -21 -647 rlineto
            -25 -86 -80 -14 -83 hhcurveto
            -191 -46 94 273 hvcurveto
            return
          </CharString>
          <CharString index="25">
            -27 48 49 -27 46 hhcurveto
            92 99 -84 callsubr
            -5 -10 -5 -8 -13 hvcurveto
            -24 -40 -73 -44 -68 hhcurveto
            -39 -46 27 27 -46 hvcurveto
            return
          </CharString>
          <CharString index="26">
            101 6 rmoveto
            -16 157 186 -9 201 hhcurveto
            367 247 263 542 589 -240 165 -369 -84 -73 0 -10 -396 hvcurveto
            -16 -2 -7 -45 callsubr
            14 -186 rcurveline
            -16 1 3 -6 14 hhcurveto
            50 5 46 4 45 3 -26 -1095 rcurveline
            -109 8 -12 -2 -3 -4 -1 -13 rlinecurve
            -12 -177 1 -16 5 -7 12 -1 rlinecurve
            545 1330 rmoveto
            246 141 -128 -447 -373 -123 -189 -271 -68 -42 1 5 -76 hvcurveto
            12 1124 rlineto
            5 87 63 2 31 hhcurveto
            return
          </CharString>
          <CharString index="27">
            -11 4 -14 8 -18 vhcurveto
            22 -48 34 -74 -103 vvcurveto
            -64 -5 -51 -10 -73 vhcurveto
            117 -22 rlineto
            71 149 35 113 143 vvcurveto
            92 -30 67 -77 return
          </CharString>
          <CharString index="28">
            67 -458 194 265 211 695 234 -207 216 hstemhm
            17 321 -137 197 478 216 hintmask 00000000
            17 926 rmoveto
            -12 6 -7 14 vhcurveto
            hintmask 11101010
            164 14 rlineto
            -1178 vlineto
            -69 9 -15 -1 -6 -3 -1 -17 rlinecurve
            -12 -165 rlineto
            -14 9 -10 13 vhcurveto
            464 10 rlineto
            16 6 4 16 1 hvcurveto
            10 147 rlineto
            16 -7 4 -14 1 vhcurveto
            -188 -7 -14 318 rlineto
            -35 94 92 -15 102 hhcurveto
            278 132 173 391 hvcurveto
            hintmask 11100110
            394 -100 191 -324 -127 -137 -62 -34 -63 vhcurveto
            hintmask 11010110
            -6 65 -41 callsubr
            -5 6 -13 hhcurveto
            hintmask 11100110
            -278 10 -16 -3 -5 -4 -2 -13 rlinecurve
            861 -565 rmoveto
            -293 -72 -61 -177 vhcurveto
            hintmask 11011010
            -91 -78 13 17 -71 hvcurveto
            22 649 rlineto
            25 78 75 18 77 hhcurveto
            hintmask 11010110
            191 46 -95 -273 hvcurveto
            return
          </CharString>
          <CharString index="29">
            rlineto
            17 6 4 16 1 hvcurveto
            return
          </CharString>
          <CharString index="30">
            67 -26 106 -80 -77 -133 -21 -91 -69 29 -105 81 104 102 40 73 vhcurveto
            return
          </CharString>
          <CharString index="31">
            rmoveto
            -7 -3 -4 -4 -7 vvcurveto
            17 -103 rlineto
            -8 1 2 -3 7 hhcurveto
            125 18 rlineto
            -412 vlineto
            -118 9 rlineto
            -6 -2 -5 -4 hvcurveto
            -6 -155 rlineto
            -8 1 3 -2 8 hhcurveto
            410 -7 rlineto
            6 1 4 8 hvcurveto
            5 160 rlineto
            7 -2 2 -6 vhcurveto
            -117 -8 6 445 8 137 rlineto
            8 -2 2 -7 1 vhcurveto
            -124 17 rlineto
            -7 -4 -1 -4 -7 hvcurveto
            return
          </CharString>
          <CharString index="32">
            68 -9 201 -190 -21 954 216 hstemhm
            181 203 480 216 hintmask 00000000
            397 1572 rmoveto
            16 -4 7 -14 vhcurveto
            -353 -24 -16 -1 -5 -6 -2 -13 rlinecurve
            12 -155 1 -12 5 -6 14 -1 rlinecurve
            146 -8 rlineto
            hintmask 10111000
            -1350 vlineto
            -25 11 -13 22 43 54 20 37 80 vhcurveto
            hintmask 01111000
            -33 91 90 -14 98 hhcurveto
            278 132 185 391 394 -100 190 -324 -98 -106 -35 -27 -71 hvcurveto
            483 -521 rmoveto
            -293 -72 -83 -177 -85 -73 11 15 -67 vhcurveto
            -12 677 rlineto
            26 86 80 14 83 hhcurveto
            191 46 -94 -273 hvcurveto
            return
          </CharString>
          <CharString index="33">
            753 199 rmoveto
            9 -4 10 -12 vhcurveto
            -224 -13 rlineto
            435 vlineto
            -7 77 77 -3 79 hhcurveto
            318 235 102 346 339 -191 138 -382 -169 -283 -19 -22 -121 hvcurveto
            -16 -3 -7 -12 -1 -16 -11 -140 rcurveline
            -16 12 -12 13 18 58 6 7 80 vhcurveto
            -1120 vlineto
            -157 16 rlineto
            -12 -2 -4 -4 -13 vvcurveto
            -2 -175 rlineto
            -16 6 -8 12 vhcurveto
            574 -68 callgsubr
            24 1321 rmoveto
            181 121 -78 -196 -221 -143 -46 -203 -71 -65 2 7 -71 hvcurveto
            523 vlineto
            5 81 87 4 83 hhcurveto
            return
          </CharString>
          <CharString index="34">
            -16 2 -8 12 vhcurveto
            return
          </CharString>
          <CharString index="35">
            rmoveto
            -16 5 4 -4 15 hhcurveto
            6 16 6 9 20 hvcurveto
            21 45 69 31 38 hhcurveto
            44 51 -26 -27 53 hvcurveto
            return
          </CharString>
          <CharString index="36">
            -55 callsubr
            -35 -53 11 9 -36 hvcurveto
            5 -21 -10 2 -5 hhcurveto
            -11 -6 -6 -11 -2 hvcurveto
            -21 -107 rlineto
            -23 125 -28 87 -61 callsubr
            vhcurveto
            return
          </CharString>
          <CharString index="37">
            -1 17 -3 5 -14 1 rlinecurve
            return
          </CharString>
          <CharString index="38">
            340 62 165 313 288 -17 409 -10 198 hvcurveto
            7 189 -2 15 -5 7 -14 1 rlinecurve
            -364 -22 -16 -1 -8 -7 -1 -18 rlinecurve
            return
          </CharString>
          <CharString index="39">
            -77 -71 -66 hvcurveto
            -8 -8 -5 -5 -9 vvcurveto
            endchar
          </CharString>
          <CharString index="40">
            -456 vlineto
            -121 9 rlineto
            -12 -2 -4 -4 -13 vvcurveto
            -2 -167 -56 callsubr
            5 -49 callgsubr
            474 -13 -78 callsubr
            13 178 rlineto
            9 -4 10 -12 vhcurveto
            -154 -5 3 1111 127 -3 -47 callgsubr
            -13 179 -59 callgsubr
            -2 rlineto
            -16 -7 -5 -16 -1 hvcurveto
            -6 -166 -56 callsubr
            3 -6 14 hhcurveto
            137 -4 rlineto
            -457 vlineto
            -542 -7 rlineto
            return
          </CharString>
          <CharString index="41">
            rmoveto
            -80 callsubr
            -70 -99 -32 -54 vhcurveto
            470 hmoveto
            -39 callsubr
            hintmask 10100000
            -70 -99 -32 -54 hvcurveto
            endchar
          </CharString>
          <CharString index="42">
            60 -1127 rlineto
            -69 hlineto
            -12 -3 -5 -14 -1 hvcurveto
            -7 -168 -56 callsubr
            6 -4 17 hhcurveto
            394 3 rlineto
            12 4 8 -40 callgsubr
            18 167 -1 13 -3 4 -12 2 rlinecurve
            -133 -3 -68 1071 123 -1 rlineto
            14 2 6 -40 callgsubr
            -11 196 -1 16 -7 3 -16 2 rlinecurve
            -393 3 rlineto
            -22 -11 -11 -17 -4 hvcurveto
            -316 -1259 rlineto
            return
          </CharString>
          <CharString index="43">
            131 -7 -47 callgsubr
            4 176 rlineto
            17 -4 5 -14 1 vhcurveto
            -499 8 -16 -2 -7 -45 callgsubr
            9 -176 -56 callsubr
            3 -6 14 hhcurveto
            133 1 rlineto
            return
          </CharString>
          <CharString index="44">
            -87 callgsubr
            endchar
          </CharString>
          <CharString index="45">
            204 hstemhm
            224 230 -215 222 572 226 hintmask 00000000
            101 6 rmoveto
            -16 157 186 -9 201 hhcurveto
            367 247 263 542 589 -240 165 -369 -84 -73 0 -10 -396 hvcurveto
            -16 -2 -7 -45 callsubr
            14 -186 rcurveline
            -16 1 3 -6 14 hhcurveto
            50 5 46 4 45 3 -13 -545 rcurveline
            return
          </CharString>
          <CharString index="46">
            160 87 60 151 119 -59 89 -119 -33 -27 -2 -7 -30 return
          </CharString>
          <CharString index="47">
            rmoveto
            1 -16 4 -5 13 -1 174 8 rcurveline
            4 -264 5 -430 -275 vvcurveto
            -118 -85 -48 -133 return
          </CharString>
          <CharString index="48">
            rmoveto
            -9 -9 -4 -12 -1 hvcurveto
            40 -517 rlineto
            -12 5 -3 14 -1 vhcurveto
            111 -10 rlineto
            16 8 2 12 hvcurveto
            46 513 -35 callsubr
            return
          </CharString>
          <CharString index="49">
            -318 1268 rlineto
            15 -4 -11 13 -22 hhcurveto
            -410 -22 -16 -1 -7 -4 -1 -16 rlinecurve
            9 -186 -56 callsubr
            5 -6 15 hhcurveto
            124 12 -59 -1081 -132 12 -12 -2 -3 -4 -1 -13 rlinecurve
            -12 -187 -56 callsubr
            5 -49 callgsubr
            434 -68 callgsubr
            return
          </CharString>
          <CharString index="50">
            5 -140 rlineto
            -14 10 -8 11 vhcurveto
            371 -8 16 -26 callsubr
            10 137 rlineto
            18 -7 6 -14 vhcurveto
            -131 -3 rlineto
            5 162 5 270 122 vvcurveto
            43 -2 40 -5 37 vhcurveto
            39 72 70 25 79 hhcurveto
            130 18 -78 -159 hvcurveto
            return
          </CharString>
          <CharString index="51">
            rlineto
            -16 1 return
          </CharString>
          <CharString index="52">
            8 46 8 24 hhcurveto
            63 21 -32 -39 -33 -17 -36 -66 return
          </CharString>
          <CharString index="53">
            hstemhm
            105 226 -152 210 return
          </CharString>
          <CharString index="54">
            168 -6 rlineto
            12 return
          </CharString>
          <CharString index="55">
            -8 -168 -155 -6 rlineto
            73 141 134 271 17 vvcurveto
            6 -3 3 -6 2 vhcurveto
            -166 35 rlineto
            -9 -4 -2 -9 -4 hvcurveto
            -6 -12 -188 -432 -19 vvcurveto
            -5 0 -3 1 -5 vhcurveto
            23 -80 rlineto
            -13 return
          </CharString>
          <CharString index="56">
            rmoveto
            -8 -38 callsubr
            -7 vvcurveto
            14 -187 1 -12 5 -6 15 -1 rlinecurve
            137 7 rlineto
            8 4 3 6 hvcurveto
            -11 53 rlineto
            -19 62 70 -9 66 hhcurveto
            159 67 87 136 108 -75 75 -122 22 hvcurveto
            return
          </CharString>
          <CharString index="57">
            rmoveto
            -16 6 3 -4 15 hhcurveto
            5 15 7 10 21 hvcurveto
            22 46 78 34 71 hhcurveto
            60 53 -23 -26 53 hvcurveto
            return
          </CharString>
          <CharString index="58">
            -10 227 1095 228 return
          </CharString>
          <CharString index="59">
            9 1 1 4 1 9 -4 42 rcurveline
            21 31 31 13 42 hhcurveto
            52 32 -17 -57 -75 -42 -66 -143 -17 hvcurveto
            -10 -1 -5 -7 -9 vvcurveto
            7 -113 rlineto
            -7 7 -4 6 9 21 4 6 28 vhcurveto
            return
          </CharString>
          <CharString index="60">
            2 -14 hhcurveto
            -144 -32 return
          </CharString>
          <CharString index="61">
            rmoveto
            12 -1 -9 4 -9 hhcurveto
            -11 -77 -2 -1 -15 hvcurveto
            -10 -1 -5 -6 -9 vvcurveto
            -10 -202 rlineto
            -7 2 -3 6 -1 vhcurveto
            122 -17 rlineto
            10 1 1 4 8 vvcurveto
            1 53 rlineto
            return
          </CharString>
          <CharString index="62">
            -3 -1 -16 return
          </CharString>
          <CharString index="63">
            680 221 rmoveto
            9 -4 10 -12 vhcurveto
            -158 -11 1 430 543 4 rlineto
            return
          </CharString>
          <CharString index="64">
            14 -1 -3 5 -12 hhcurveto
            return
          </CharString>
          <CharString index="65">
            -2 -5 -5 vvcurveto
            return
          </CharString>
          <CharString index="66">
            rlineto
            16 -1 return
          </CharString>
          <CharString index="67">
            -10 -151 rlineto
            -73 callsubr
            return
          </CharString>
          <CharString index="68">
            -80 callsubr
            vhcurveto
            return
          </CharString>
          <CharString index="69">
            -1 -4 -3 return
          </CharString>
          <CharString index="70">
            17 37 36 9 38 hhcurveto
            54 32 -28 -51 -74 -50 -57 -259 -279 hvcurveto
            -4 -4 -4 -4 -7 vvcurveto
            12 -135 rlineto
            -8 1 2 -4 6 hhcurveto
            return
          </CharString>
          <CharString index="71">
            -41 callsubr
            -10 8 -12 hhcurveto
            -339 -14 rlineto
            -16 -1 -8 -5 -14 vvcurveto
            return
          </CharString>
          <CharString index="72">
            -1 17 -3 6 -16 1 rlinecurve
            return
          </CharString>
          <CharString index="73">
            3 1 3 3 return
          </CharString>
          <CharString index="74">
            5 -5 5 vhcurveto
            return
          </CharString>
          <CharString index="75">
            63 85 77 38 93 hhcurveto
            130 24 -82 -159 -72 0 -236 -2 -185 hvcurveto
            -62 5 rlineto
            -16 -5 -5 -16 -1 hvcurveto
            return
          </CharString>
          <CharString index="76">
            5 25 29 5 22 hhcurveto
            43 42 -48 -71 -77 -44 -26 -76 -40 -40 8 11 -38 hvcurveto
            43 vlineto
            8 -3 4 -7 vhcurveto
            endchar
          </CharString>
          <CharString index="77">
            4 -34 callsubr
            return
          </CharString>
          <CharString index="78">
            306 245 rmoveto
            73 39 54 123 63 -64 29 -123 -95 -17 -100 -73 -63 56 -33 131 hvcurveto
            endchar
          </CharString>
          <CharString index="79">
            120 477 230 -132 122 hstemhm
            81 161 -134 147 186 197 -158 198 return
          </CharString>
          <CharString index="80">
            hlineto
            22 7 8 21 1 hvcurveto
            10 return
          </CharString>
          <CharString index="81">
            1 6 3 1 16 rlinecurve
            return
          </CharString>
          <CharString index="82">
            243 10 174 -162 171 733 226 return
          </CharString>
          <CharString index="83">
            225 432 218 hintmask 00000000
            115 1426 rmoveto
            -17 6 -7 16 vhcurveto
            143 11 return
          </CharString>
          <CharString index="84">
            229 233 67 85 106 vvcurveto
            128 -86 80 -104 -81 -54 -20 -31 -61 vhcurveto
            endchar
          </CharString>
          <CharString index="85">
            30 -57 -55 30 -65 hhcurveto
            -134 -101 -87 -64 -59 hvcurveto
            -8 -8 -5 -5 -9 vvcurveto
            endchar
          </CharString>
          <CharString index="86">
            745 -4 224 -217 211 -206 -21 24 -21 1293 242 return
          </CharString>
          <CharString index="87">
            -17 61 -78 12 vhcurveto
            endchar
          </CharString>
          <CharString index="88">
            -444 -14 194 return
          </CharString>
          <CharString index="89">
            60 -23 94 -71 -68 -118 -18 -82 -62 26 -94 72 92 90 36 66 vhcurveto
            return
          </CharString>
          <CharString index="90">
            69 9 191 751 191 return
          </CharString>
          <CharString index="91">
            276 194 276 hintmask 00000000
            hintmask 11000000
            return
          </CharString>
          <CharString index="92">
            -4 9 callsubr
            return
          </CharString>
          <CharString index="93">
            212 3 rlineto
            17 4 6 14 3 hvcurveto
            319 1327 rlineto
            return
          </CharString>
          <CharString index="94">
            -242 rmoveto
            -55 callsubr
            return
          </CharString>
          <CharString index="95">
            91 -44 -77 50 -117 hhcurveto
            -150 -133 -92 -104 -102 hvcurveto
            return
          </CharString>
          <CharString index="96">
            221 hintmask 00000000
            return
          </CharString>
          <CharString index="97">
            -9 4 -10 12 vhcurveto
            return
          </CharString>
          <CharString index="98">
            43 rlineto
            1 -4 -3 0 -3 hhcurveto
            -10 -3 -7 -10 -4 hvcurveto
            return
          </CharString>
          <CharString index="99">
            -444 0 220 1136 231 hstem
            277 return
          </CharString>
          <CharString index="100">
            748 -2 203 -201 181 -181 191 return
          </CharString>
          <CharString index="101">
            rlineto
            -1 -2 0 -3 -2 vvcurveto
            -10 return
          </CharString>
          <CharString index="102">
            1 4 1 4 3 vvcurveto
            9 -5 return
          </CharString>
          <CharString index="103">
            vvcurveto
            -5 3 -5 5 return
          </CharString>
          <CharString index="104">
            hstemhm
            293 215 return
          </CharString>
          <CharString index="105">
            -4 -7 -6 hvcurveto
            return
          </CharString>
          <CharString index="106">
            -444 -193 195 1432 195 hstem
            return
          </CharString>
          <CharString index="107">
            -1 16 -6 3 -17 1 return
          </CharString>
          <CharString index="108">
            rlineto
            -10 callsubr
            return
          </CharString>
          <CharString index="109">
            107 rmoveto
            8 -1 -3 2 -8 hhcurveto
            -70 1 rlineto
            return
          </CharString>
          <CharString index="110">
            rlineto
            -7 7 5 -4 6 -29 callgsubr
            3 5 return
          </CharString>
          <CharString index="111">
            204 hstemhm
            122 216 return
          </CharString>
          <CharString index="112">
            201 hstemhm
            105 984 hintmask 00000000
            137 return
          </CharString>
          <CharString index="113">
            113 143 vvcurveto
            92 -30 67 -77 -70 return
          </CharString>
          <CharString index="114">
            131 198 192 -120 130 return
          </CharString>
          <CharString index="115">
            hstemhm
            105 224 return
          </CharString>
          <CharString index="116">
            -2 -6 -5 vvcurveto
            return
          </CharString>
        <CharString name=".notdef">
          750 116 1747 hstem
          192 323 852 314 vstem
          200 219 rmoveto
          -58 18 -33 59 -3 vhcurveto
          479 14 840 -23 rlineto
          53 2 32 20 66 vvcurveto
          4 1534 rlineto
          61 -19 57 -81 vhcurveto
          -1270 7 rlineto
          -70 -53 -45 -65 hvcurveto
          1166 -504 rmoveto
          5 -5 2 -5 -4 vvcurveto
          -5 -3 -5 -7 -7 vhcurveto
          -298 -276 305 -265 rlineto
          4 -3 1 -4 -4 vvcurveto
          -5 -3 -6 -3 -4 vhcurveto
          -116 -132 rlineto
          -5 -4 -5 -3 -4 hhcurveto
          -6 -5 4 7 -7 hvcurveto
          -280 295 -266 -308 rlineto
          -5 -4 -5 -3 -7 hhcurveto
          -6 -7 3 5 -5 hvcurveto
          -112 122 rlineto
          -5 5 -2 5 4 vvcurveto
          3 1 3 4 4 vhcurveto
          294 282 -295 274 rlineto
          -4 4 -2 3 4 vvcurveto
          5 3 5 5 6 vhcurveto
          112 127 rlineto
          6 5 4 3 4 hhcurveto
          4 4 -3 -4 4 hvcurveto
          277 -304 277 314 rlineto
          4 4 5 3 6 -29 callgsubr
          -2 -4 4 hvcurveto
          endchar
        </CharString>
        <CharString name=".null">
          -1127 endchar
        </CharString>
        <CharString name="A">
          -104 callgsubr
          endchar
        </CharString>
        <CharString name="AE">
          -87 callsubr
          endchar
        </CharString>
        <CharString name="AEacute">
          -87 callsubr
          hintmask 1000101010100000
          757 1247 -103 callsubr
        </CharString>
        <CharString name="Aacute">
          -104 callgsubr
          hintmask 01110000
          468 1334 -103 callsubr
        </CharString>
        <CharString name="Abreve">
          -104 callgsubr
          hintmask 01110000
          566 1311 rmoveto
          -92 callgsubr
          -9 -8 -15 -78 callgsubr
          hvcurveto
          endchar
        </CharString>
        <CharString name="Acircumflex">
          -104 callgsubr
          hintmask 01110000
          -199 1076 -105 callsubr
        </CharString>
        <CharString name="Adieresis">
          -104 callgsubr
          hintmask 01110000
          -68 1053 -100 callgsubr
        </CharString>
        <CharString name="Agrave">
          -104 callgsubr
          hintmask 01110000
          -162 1170 -91 callgsubr
        </CharString>
        <CharString name="Amacron">
          -104 callgsubr
          hintmask 01110000
          526 1280 rmoveto
          9 -4 9 -12 1 vhcurveto
          -639 -10 rlineto
          -12 -7 -39 callgsubr
          7 -8 12 vhcurveto
          624 -6 rlineto
          17 5 4 -40 callgsubr
          endchar
        </CharString>
        <CharString name="Aogonek">
          10 217 -208 204 274 175 hstemhm
          914 178 hintmask 00000000
          828 1516 rmoveto
          -5 15 -7 7 -13 1 -227 -8 rcurveline
          -15 -1 -5 -8 -4 -12 rrcurveto
          hintmask 01110000
          -396 -1284 -92 4 rlineto
          -22 -1 -8 -7 -21 vvcurveto
          -167 vlineto
          -19 5 -12 17 -1 vhcurveto
          436 17 20 1 7 7 3 22 rlinecurve
          -15 152 rlineto
          17 -2 -5 6 -16 hhcurveto
          -121 -12 81 290 495 -10 rlineto
          hintmask 10110000
          86 -266 -114 -3 rlineto
          -21 -6 -5 -23 -3 hvcurveto
          -20 -146 rlineto
          -19 0 -11 24 vhcurveto
          137 hlineto
          -63 -95 -45 -105 -90 -85 callgsubr
          55 47 77 55 68 hvcurveto
          154 -86 callsubr
          endchar
        </CharString>
        <CharString name="Aring">
          10 217 -208 204 274 175 1202 136 hstemhm
          406 116 339 105 hintmask 00000000
          828 1516 rmoveto
          -4 10 rlineto
          101 37 41 85 118 vvcurveto
          159 -79 85 -197 -210 -74 -111 -153 -115 50 -76 102 -33 vhcurveto
          -6 -12 rlineto
          hintmask 01111100
          -396 -1284 -92 4 rlineto
          -22 -1 -8 -7 -21 vvcurveto
          -167 vlineto
          -19 5 -12 17 -1 vhcurveto
          436 17 20 1 7 7 3 22 rlinecurve
          -15 152 rlineto
          17 -2 -5 6 -16 hhcurveto
          -121 -12 81 290 495 -10 rlineto
          hintmask 10111100
          86 -266 -114 -3 rlineto
          -21 -6 -5 -23 -3 hvcurveto
          -20 -146 rlineto
          -19 0 -11 24 vhcurveto
          463 -86 callsubr
          201 1202 rmoveto
          87 30 -45 -61 -66 -34 -56 -89 -91 -26 47 64 56 18 61 105 hvcurveto
          endchar
        </CharString>
        <CharString name="Atilde">
          -104 callgsubr
          hintmask 01110000
          -193 1079 -72 callsubr
          hintmask 00000000
          -90 callsubr
        </CharString>
        <CharString name="B">
          -80 callgsubr
          endchar
        </CharString>
        <CharString name="C">
          -98 callsubr
          endchar
        </CharString>
        <CharString name="CR">
          -1127 endchar
        </CharString>
        <CharString name="Cacute">
          -98 callsubr
          hintmask 10110000
          9 981 -103 callsubr
        </CharString>
        <CharString name="Ccaron">
          -98 callsubr
          hintmask 10110000
          119 888 -101 callsubr
        </CharString>
        <CharString name="Ccedilla">
          -35 callgsubr
          63 216 -203 -21 1383 205 hstemhm
          130 236 229 608 -325 337 hintmask 00000000
          716 -13 callsubr
          hvcurveto
          hintmask 11011101
          -35 -53 11 9 -36 hvcurveto
          5 -21 -10 2 -5 hhcurveto
          -11 -6 -6 -11 -2 hvcurveto
          -21 -107 rlineto
          -23 125 -28 87 vhcurveto
          hintmask 11011110
          -61 callsubr
          hvcurveto
          12 79 78 11 69 24 58 31 rlinecurve
          2 -42 rlineto
          -24 1 17 -28 callgsubr
          14 1 9 5 12 vvcurveto
          -40 390 rlineto
          16 -2 -9 7 -10 hhcurveto
          -166 -28 -16 -3 -7 -4 -1 -15 rlinecurve
          hintmask 11011101
          5 -134 rlineto
          -23 -71 -68 -15 -96 hhcurveto
          -253 -142 149 440 416 113 154 262 83 72 -11 -19 75 hvcurveto
          21 -257 -56 callsubr
          10 -7 10 hhcurveto
          hintmask 11101101
          168 4 rlineto
          13 9 10 16 hvcurveto
          hintmask 11011110
          12 436 rlineto
          24 -1 -17 15 -24 hhcurveto
          -180 -28 rlineto
          27 -81 -106 11 -99 hhcurveto
          -342 -235 -213 -551 -519 184 -285 356 -12 hvcurveto
          -27 -107 rlineto
          hintmask 11101101
          -20 callsubr
        </CharString>
        <CharString name="Ccircumflex">
          -98 callsubr
          hintmask 10110000
          -658 723 -105 callsubr
        </CharString>
        <CharString name="Cdotaccent">
          -98 callsubr
          hintmask 10110000
          -300 700 -83 callgsubr
        </CharString>
        <CharString name="D">
          -5 callgsubr
          hstem
          233 226 574 226 vstem
          -81 callsubr
          endchar
        </CharString>
        <CharString name="Dcaron">
          -5 callgsubr
          69 411 hstemhm
          233 226 -202 818 -42 226 -43 callgsubr
          -81 callsubr
          hintmask 00101000
          424 577 -101 callsubr
        </CharString>
        <CharString name="Dcroat">
          -19 218 400 167 -146 151 565 -62 callsubr
          -128 -21 callgsubr
          114 -56 callgsubr
          408 10 1 331 6 rlineto
          10 3 7 12 hvcurveto
          -3 137 rlineto
          6 callgsubr
          -27 -1 6 558 2 callgsubr
        </CharString>
        <CharString name="Delta">
          67 -4 195 hstem
          105 984 vstem
          111 200 rmoveto
          -3 -11 -3 -13 -13 vvcurveto
          13 -143 -56 callsubr
          6 -49 callgsubr
          916 10 rlineto
          17 5 8 -40 callgsubr
          12 141 rlineto
          11 -2 9 -3 11 vhcurveto
          -389 1320 rlineto
          15 -5 -6 2 -14 hhcurveto
          -146 4 -16 -2 -4 -7 -4 -12 rlinecurve
          97 -287 rmoveto
          288 -1040 -575 -8 rlineto
          endchar
        </CharString>
        <CharString name="E">
          -106 callgsubr
          endchar
        </CharString>
        <CharString name="Eacute">
          -106 callgsubr
          hintmask 11110100
          -98 2066 -103 callsubr
        </CharString>
        <CharString name="Ebreve">
          -106 callgsubr
          hintmask 11110100
          2043 vmoveto
          -92 callgsubr
          -9 -8 -15 -78 callgsubr
          hvcurveto
          endchar
        </CharString>
        <CharString name="Ecaron">
          -106 callgsubr
          hintmask 11110100
          12 1973 -101 callsubr
        </CharString>
        <CharString name="Ecircumflex">
          -106 callgsubr
          hintmask 11110100
          -765 1808 -105 callsubr
        </CharString>
        <CharString name="Edieresis">
          -106 callgsubr
          hintmask 11110100
          -634 1785 -100 callgsubr
        </CharString>
        <CharString name="Edotaccent">
          -106 callgsubr
          hintmask 11110100
          -407 1785 -83 callgsubr
        </CharString>
        <CharString name="Egrave">
          -106 callgsubr
          hintmask 11110100
          -728 1902 -91 callgsubr
        </CharString>
        <CharString name="Emacron">
          -106 callgsubr
          hintmask 11110100
          -40 2012 rmoveto
          9 -4 9 -12 1 vhcurveto
          -639 -10 rlineto
          -12 -7 -39 callgsubr
          7 -8 12 vhcurveto
          624 -6 rlineto
          17 5 4 -40 callgsubr
          endchar
        </CharString>
        <CharString name="Eng">
          409 -459 173 289 213 1100 209 hstemhm
          272 169 694 172 hintmask 00000000
          747 -128 rmoveto
          -16 -2 -4 -8 -2 -16 -32 -337 rcurveline
          -24 16 -15 26 vhcurveto
          153 -57 callgsubr
          -1 40 rlineto
          -1 16 17 -1 16 hhcurveto
          273 75 195 294 hvcurveto
          2 1276 127 -3 -47 callgsubr
          -13 179 -70 callsubr
          -447 -2 rlineto
          -16 -7 -5 -16 -1 hvcurveto
          -6 -166 -56 callsubr
          3 -6 14 hhcurveto
          155 -5 22 -914 rlineto
          hintmask 11111000
          -563 1109 -7 14 -8 13 -22 1 rlinecurve
          -440 -22 -16 -1 -7 -4 -1 -16 rlinecurve
          -11 -176 2 -16 2 -5 14 -1 rlinecurve
          183 8 rlineto
          -1081 vlineto
          -157 -4 rlineto
          -12 -3 -6 -13 -1 hvcurveto
          18 -167 rlineto
          -16 2 4 -49 callgsubr
          484 -54 callgsubr
          -17 198 rlineto
          9 -1 -7 10 -12 hhcurveto
          -153 -10 -23 1094 698 -1323 rlineto
          -219 -12 -61 -68 -122 hhcurveto
          -9 -8 0 1 -8 hvcurveto
          -1 148 rlineto
          16 -11 7 -10 vhcurveto
          endchar
        </CharString>
        <CharString name="Eogonek">
          2 211 455 214 447 223 hstemhm
          265 215 551 225 hintmask 00000000
          1251 -64 rmoveto
          10 9 7 -40 callgsubr
          -16 410 rlineto
          12 -8 5 -15 1 vhcurveto
          -162 5 -24 -1 -17 -14 -1 -24 rlinecurve
          4 -131 -540 -18 -7 457 502 7 rlineto
          14 6 8 15 1 hvcurveto
          -7 168 rlineto
          18 -1 -12 5 -14 hhcurveto
          -491 -31 -7 466 rlineto
          hintmask 11111000
          473 25 6 -172 -66 callgsubr
          4 8 15 hvcurveto
          20 365 rlineto
          19 -13 7 -17 1 vhcurveto
          -999 -38 -16 -1 -7 -4 -1 -16 rlinecurve
          -11 -182 rlineto
          -16 4 -6 14 vhcurveto
          126 11 8 -1089 -125 17 rlineto
          -12 -2 -4 -4 -13 vvcurveto
          -6 -184 -56 callsubr
          7 -8 16 hhcurveto
          737 20 rlineto
          -64 -95 -46 -107 -91 -85 callgsubr
          50 40 69 49 64 hvcurveto
          1 -36 rlineto
          -16 6 -10 16 vhcurveto
          endchar
        </CharString>
        <CharString name="Eth">
          -19 218 400 167 -149 155 564 -62 callsubr
          -145 -21 callgsubr
          131 -56 callgsubr
          409 324 6 rlineto
          10 1 3 6 12 vvcurveto
          2 0 2 -3 133 vhcurveto
          6 callgsubr
          rlineto
          -10 hlineto
          6 557 2 callgsubr
        </CharString>
        <CharString name="Euro">
          237 -44 204 -172 -21 501 164 -162 164 184 164 355 199 hstemhm
          258 216 537 215 -163 215 -197 208 -50 callgsubr
          812 618 rmoveto
          0 callsubr
          -314 -7 rcurveline
          135 vlineto
          62 vlineto
          372 -10 rlineto
          12 2 8 16 hvcurveto
          121 vlineto
          14 -4 5 -12 vhcurveto
          -361 hlineto
          256 26 88 99 207 hhcurveto
          hintmask 1001111100000000
          76 86 -10 -17 104 hvcurveto
          -13 -242 2 -16 5 -6 14 -1 rlinecurve
          hintmask 1001111010000000
          168 -16 13 2 8 8 1 16 rlinecurve
          22 446 -1 24 -17 13 -24 2 rlinecurve
          -145 10 -13 -1 -6 -7 -1 -14 rlinecurve
          -3 -52 rlineto
          33 -91 -118 27 -121 hhcurveto
          -290 -155 -176 -378 -38 hvcurveto
          -130 hlineto
          -12 -1 -4 -9 -9 vvcurveto
          8 -131 1 callgsubr
          rlinecurve
          105 7 rlineto
          -40 vlineto
          -51 0 -50 2 -47 vhcurveto
          -155 1 rlineto
          -12 -2 -8 -16 hvcurveto
          -121 vlineto
          -14 4 -5 12 vhcurveto
          163 3 rlineto
          -323 31 104 -192 296 hhcurveto
          121 105 18 37 91 hvcurveto
          hintmask 1010111001000000
          186 -44 rlineto
          14 9 6 12 hvcurveto
          10 392 rlineto
          16 -3 -8 7 -10 hhcurveto
          -176 -8 -17 -3 -6 -45 callgsubr
          hintmask 0101111100000000
          -9 -178 rlineto
          -21 -97 -98 -11 -63 hhcurveto
          -193 -58 94 218 -17 hvcurveto
          323 -4 rlineto
          12 1 4 9 9 vvcurveto
          endchar
        </CharString>
        <CharString name="F">
          -76 callgsubr
          endchar
        </CharString>
        <CharString name="G">
          -22 215 1136 211 hstemhm
          96 216 662 -11 callsubr
          706 617 rmoveto
          -10 7 -9 16 -2 vhcurveto
          243 7 5 -366 rlineto
          -24 -66 -103 -20 -79 hhcurveto
          -257 -160 119 474 425 159 118 238 125 82 -62 -100 74 hvcurveto
          190 26 rlineto
          12 2 8 6 14 vvcurveto
          -11 366 rlineto
          16 -10 7 -14 vhcurveto
          -157 -14 -13 -1 -7 -10 -2 -15 rlinecurve
          -20 -121 rlineto
          63 -78 -107 34 -120 hhcurveto
          -347 -218 -197 -553 -572 207 -240 382 124 103 33 45 78 hvcurveto
          hintmask 11110000
          -39 77 81 -30 31 hhcurveto
          14 11 10 18 1 hvcurveto
          -18 595 52 2 rlineto
          8 10 8 15 hvcurveto
          5 172 -1 24 -14 17 -24 1 rlinecurve
          -487 -32 rlineto
          -16 -1 -10 -5 -16 vvcurveto
          endchar
        </CharString>
        <CharString name="Gbreve">
          -95 callsubr
          303 1188 rmoveto
          -92 callgsubr
          -9 -8 -15 -78 callgsubr
          hvcurveto
          endchar
        </CharString>
        <CharString name="Gcircumflex">
          -95 callsubr
          -462 953 -105 callsubr
        </CharString>
        <CharString name="Gcommaaccent">
          -95 callsubr
          -1 -1322 -99 callgsubr
        </CharString>
        <CharString name="Gdotaccent">
          -95 callsubr
          -104 930 -83 callgsubr
        </CharString>
        <CharString name="H">
          -24 callgsubr
          465 209 hstemhm
          286 222 542 -11 callsubr
          -44 callsubr
          hintmask 01111100
          -67 callsubr
          hintmask 10111100
          1 442 -64 callsubr
          -1081 vlineto
          -107 3 rlineto
          -12 -2 -4 -4 -13 vvcurveto
          -2 -177 -56 callsubr
          5 -49 callgsubr
          464 -68 callgsubr
          endchar
        </CharString>
        <CharString name="Hbar">
          -24 callgsubr
          136 159 -151 161 -149 140 146 215 -192 209 hstemhm
          286 220 544 221 -50 callgsubr
          -44 callsubr
          hintmask 0110010111000000
          -456 vlineto
          -121 9 rlineto
          -12 -2 -4 -4 -13 vvcurveto
          -2 -167 -56 callsubr
          5 -49 callgsubr
          474 -13 -78 callsubr
          13 178 rlineto
          9 -4 10 -12 vhcurveto
          -154 -5 2 802 169 -10 rlineto
          15 5 8 -40 callgsubr
          -10 121 rlineto
          -43 callsubr
          -165 -5 1 160 127 -3 -47 callgsubr
          -13 179 -59 callgsubr
          -2 rlineto
          -16 -7 -5 -16 -1 hvcurveto
          -6 -166 -56 callsubr
          3 -6 14 hhcurveto
          137 -4 rlineto
          -168 vlineto
          hintmask 1011000111000000
          -542 4 1 142 -64 callsubr
          hintmask 1010011011000000
          -141 vlineto
          -174 8 -12 -1 -5 -6 -1 -12 rlinecurve
          -12 -131 rlineto
          -15 6 -4 15 -1 vhcurveto
          183 9 rlineto
          -787 vlineto
          -107 3 rlineto
          -12 -2 -4 -4 -13 vvcurveto
          -2 -177 -56 callsubr
          5 -49 callgsubr
          464 -68 callgsubr
          -159 825 rmoveto
          hintmask 0110100111000000
          161 vlineto
          542 -3 rlineto
          -151 vlineto
          endchar
        </CharString>
        <CharString name="Hcircumflex">
          -24 callgsubr
          442 215 -192 209 hstemhm
          286 222 542 -11 callsubr
          -44 callsubr
          hintmask 01101110
          -67 callsubr
          hintmask 10101110
          1 442 -64 callsubr
          -1081 vlineto
          -107 3 rlineto
          -12 -2 -4 -4 -13 vvcurveto
          -2 -177 -56 callsubr
          5 -49 callgsubr
          464 -68 callgsubr
          hintmask 01110110
          -279 1715 -105 callsubr
        </CharString>
        <CharString name="I">
          -445 -7 217 -217 228 1082 213 hstemhm
          235 -10 callgsubr
          601 191 rmoveto
          9 -4 10 -12 vhcurveto
          -134 hlineto
          3 1093 rlineto
          117 hlineto
          14 8 4 18 1 hvcurveto
          7 159 -59 callgsubr
          18 -16 -2 -7 -45 callgsubr
          -16 -176 rlineto
          -16 4 -6 14 vhcurveto
          137 -1 rlineto
          hintmask 10110000
          8 -1089 -139 10 -12 -2 -3 -4 -1 -13 rlinecurve
          hintmask 01110000
          8 -177 -56 callsubr
          5 -49 callgsubr
          464 -13 rlineto
          17 7 4 16 hvcurveto
          endchar
        </CharString>
        <CharString name="IJ">
          407 -187 176 4 217 -217 228 1082 213 -203 228 hstemhm
          235 217 467 107 162 216 hintmask 00000000
          hintmask 10001011
          802 174 rmoveto
          -15 -1 -7 -9 -16 vvcurveto
          28 -437 rlineto
          -24 2 14 -15 26 hhcurveto
          153 15 rlineto
          19 2 4 11 12 vvcurveto
          -14 101 rlineto
          12 hlineto
          270 110 114 332 248 -6 373 -38 435 hvcurveto
          148 -3 12 2 3 4 1 13 rlinecurve
          -8 190 -41 callsubr
          -5 5 -12 hhcurveto
          -562 -17 -17 -1 -6 -45 callgsubr
          7 -188 rlineto
          -13 6 -6 10 vhcurveto
          207 12 rlineto
          26 -372 20 -363 -257 vvcurveto
          -237 -52 -92 -145 vhcurveto
          -4 hlineto
          -25 176 rlineto
          16 -2 -9 7 -10 hhcurveto
          hintmask 00000000
          -340 3 rmoveto
          9 -4 10 -12 vhcurveto
          -134 hlineto
          3 1093 rlineto
          117 hlineto
          14 8 4 18 1 hvcurveto
          7 159 -59 callgsubr
          18 -16 -2 -7 -45 callgsubr
          -16 -176 rlineto
          -16 4 -6 14 vhcurveto
          137 -1 rlineto
          hintmask 01010100
          8 -1089 -139 10 -12 -2 -3 -4 -1 -13 rlinecurve
          hintmask 00110100
          8 -177 -56 callsubr
          5 -49 callgsubr
          464 -13 rlineto
          17 7 4 16 hvcurveto
          endchar
        </CharString>
        <CharString name="Iacute">
          -445 -7 217 -217 228 1082 213 hstemhm
          235 -10 callgsubr
          601 191 rmoveto
          9 -4 10 -12 vhcurveto
          -134 hlineto
          3 1093 rlineto
          117 hlineto
          14 8 4 18 1 hvcurveto
          7 159 -59 callgsubr
          18 -16 -2 -7 -45 callgsubr
          -16 -176 rlineto
          -16 4 -6 14 vhcurveto
          137 -1 rlineto
          hintmask 10110000
          8 -1089 -139 10 -12 -2 -3 -4 -1 -13 rlinecurve
          hintmask 01110000
          8 -177 -56 callsubr
          5 -49 callgsubr
          464 -13 rlineto
          17 7 4 16 hvcurveto
          hintmask 10110000
          21 1993 -103 callsubr
        </CharString>
        <CharString name="Ibreve">
          -445 -7 217 -217 228 1082 213 hstemhm
          235 -10 callgsubr
          601 191 rmoveto
          9 -4 10 -12 vhcurveto
          -134 hlineto
          3 1093 rlineto
          117 hlineto
          14 8 4 18 1 hvcurveto
          7 159 -59 callgsubr
          18 -16 -2 -7 -45 callgsubr
          -16 -176 rlineto
          -16 4 -6 14 vhcurveto
          137 -1 rlineto
          hintmask 10110000
          8 -1089 -139 10 -12 -2 -3 -4 -1 -13 rlinecurve
          hintmask 01110000
          8 -177 -56 callsubr
          5 -49 callgsubr
          464 -13 rlineto
          17 7 4 16 hvcurveto
          hintmask 10110000
          119 1970 rmoveto
          -92 callgsubr
          -9 -8 -15 -78 callgsubr
          hvcurveto
          endchar
        </CharString>
        <CharString name="Icircumflex">
          -445 -7 217 -217 228 1082 213 hstemhm
          235 -10 callgsubr
          601 191 rmoveto
          9 -4 10 -12 vhcurveto
          -134 hlineto
          3 1093 rlineto
          117 hlineto
          14 8 4 18 1 hvcurveto
          7 159 -59 callgsubr
          18 -16 -2 -7 -45 callgsubr
          -16 -176 rlineto
          -16 4 -6 14 vhcurveto
          137 -1 rlineto
          hintmask 10110000
          8 -1089 -139 10 -12 -2 -3 -4 -1 -13 rlinecurve
          hintmask 01110000
          8 -177 -56 callsubr
          5 -49 callgsubr
          464 -13 rlineto
          17 7 4 16 hvcurveto
          hintmask 10110000
          -646 1735 -105 callsubr
        </CharString>
        <CharString name="Idieresis">
          -445 -7 217 -217 228 1082 213 hstemhm
          235 -10 callgsubr
          601 191 rmoveto
          9 -4 10 -12 vhcurveto
          -134 hlineto
          3 1093 rlineto
          117 hlineto
          14 8 4 18 1 hvcurveto
          7 159 -59 callgsubr
          18 -16 -2 -7 -45 callgsubr
          -16 -176 rlineto
          -16 4 -6 14 vhcurveto
          137 -1 rlineto
          hintmask 10110000
          8 -1089 -139 10 -12 -2 -3 -4 -1 -13 rlinecurve
          hintmask 01110000
          8 -177 -56 callsubr
          5 -49 callgsubr
          464 -13 rlineto
          17 7 4 16 hvcurveto
          hintmask 10110000
          -515 1712 -100 callgsubr
        </CharString>
        <CharString name="Idotaccent">
          -445 -7 217 -217 228 1082 213 hstemhm
          235 -10 callgsubr
          601 191 rmoveto
          9 -4 10 -12 vhcurveto
          -134 hlineto
          3 1093 rlineto
          117 hlineto
          14 8 4 18 1 hvcurveto
          7 159 -59 callgsubr
          18 -16 -2 -7 -45 callgsubr
          -16 -176 rlineto
          -16 4 -6 14 vhcurveto
          137 -1 rlineto
          hintmask 10110000
          8 -1089 -139 10 -12 -2 -3 -4 -1 -13 rlinecurve
          hintmask 01110000
          8 -177 -56 callsubr
          5 -49 callgsubr
          464 -13 rlineto
          17 7 4 16 hvcurveto
          hintmask 10110000
          -288 1712 -83 callgsubr
        </CharString>
        <CharString name="Igrave">
          -445 -7 217 -217 228 1082 213 hstemhm
          235 -10 callgsubr
          601 191 rmoveto
          9 -4 10 -12 vhcurveto
          -134 hlineto
          3 1093 rlineto
          117 hlineto
          14 8 4 18 1 hvcurveto
          7 159 -59 callgsubr
          18 -16 -2 -7 -45 callgsubr
          -16 -176 rlineto
          -16 4 -6 14 vhcurveto
          137 -1 rlineto
          hintmask 10110000
          8 -1089 -139 10 -12 -2 -3 -4 -1 -13 rlinecurve
          hintmask 01110000
          8 -177 -56 callsubr
          5 -49 callgsubr
          464 -13 rlineto
          17 7 4 16 hvcurveto
          hintmask 10110000
          -609 1829 -91 callgsubr
        </CharString>
        <CharString name="Imacron">
          -445 -7 217 -217 228 1082 213 hstemhm
          235 -10 callgsubr
          601 191 rmoveto
          9 -4 10 -12 vhcurveto
          -134 hlineto
          3 1093 rlineto
          117 hlineto
          14 8 4 18 1 hvcurveto
          7 159 -59 callgsubr
          18 -16 -2 -7 -45 callgsubr
          -16 -176 rlineto
          -16 4 -6 14 vhcurveto
          137 -1 rlineto
          hintmask 10110000
          8 -1089 -139 10 -12 -2 -3 -4 -1 -13 rlinecurve
          hintmask 01110000
          8 -177 -56 callsubr
          5 -49 callgsubr
          464 -13 rlineto
          17 7 4 16 hvcurveto
          hintmask 10110000
          79 1939 rmoveto
          9 -4 9 -12 1 vhcurveto
          -639 -10 rlineto
          -12 -7 -39 callgsubr
          7 -8 12 vhcurveto
          624 -6 rlineto
          17 5 4 -40 callgsubr
          endchar
        </CharString>
        <CharString name="Iogonek">
          -445 -450 205 238 217 -209 220 -203 -21 1306 213 hstemhm
          152 449 -366 -10 callgsubr
          601 191 rmoveto
          9 -4 10 -12 vhcurveto
          -134 hlineto
          3 1093 rlineto
          hintmask 11001010
          117 hlineto
          14 8 4 18 1 hvcurveto
          7 159 -59 callgsubr
          18 -16 -2 -7 -45 callgsubr
          -16 -176 rlineto
          -16 4 -6 14 vhcurveto
          hintmask 11001100
          137 -1 8 -1089 -139 10 -12 -2 -3 -4 -1 -13 rlinecurve
          8 -177 -56 callsubr
          5 -49 callgsubr
          152 -5 rlineto
          hintmask 10101010
          -59 -90 -51 -107 -75 vvcurveto
          -127 84 -52 131 88 62 17 23 71 vhcurveto
          15 5 7 4 13 vvcurveto
          -21 166 rlineto
          11 -1 -5 6 -10 -13 -69 -40 -65 hhcurveto
          -46 -50 16 56 60 48 55 51 55 hvcurveto
          hintmask 10011100
          145 -4 rlineto
          17 7 4 16 hvcurveto
          endchar
        </CharString>
        <CharString name="Itilde">
          -445 -7 217 -217 228 1082 213 hstemhm
          235 -10 callgsubr
          601 191 rmoveto
          9 -4 10 -12 vhcurveto
          -134 hlineto
          3 1093 rlineto
          117 hlineto
          14 8 4 18 1 hvcurveto
          7 159 -59 callgsubr
          18 -16 -2 -7 -45 callgsubr
          -16 -176 rlineto
          -16 4 -6 14 vhcurveto
          137 -1 rlineto
          hintmask 10110000
          8 -1089 -139 10 -12 -2 -3 -4 -1 -13 rlinecurve
          hintmask 01110000
          8 -177 -56 callsubr
          5 -49 callgsubr
          464 -13 rlineto
          17 7 4 16 hvcurveto
          hintmask 10110000
          -640 1738 -72 callsubr
          hintmask 00000000
          -90 callsubr
        </CharString>
        <CharString name="J">
          7 callgsubr
          hstem
          230 54 222 216 vstem
          -73 callgsubr
          endchar
        </CharString>
        <CharString name="Jcircumflex">
          7 callgsubr
          94 385 hstemhm
          160 798 -728 54 222 216 hintmask 00000000
          hintmask 11001100
          -73 callgsubr
          hintmask 00110000
          -34 1402 -105 callsubr
        </CharString>
        <CharString name="K">
          -81 callgsubr
          endchar
        </CharString>
        <CharString name="Kcommaaccent">
          -81 callgsubr
          hintmask 1000011010000000
          -116 -2051 -99 callgsubr
        </CharString>
        <CharString name="L">
          68 -96 callgsubr
          endchar
        </CharString>
        <CharString name="Lacute">
          69 -96 callgsubr
          hintmask 10111000
          -215 2049 -103 callsubr
        </CharString>
        <CharString name="Lcaron">
          69 -96 callgsubr
          hintmask 10111000
          -173 1956 -101 callsubr
        </CharString>
        <CharString name="Lcommaaccent">
          68 -96 callgsubr
          hintmask 10111000
          -325 -484 -99 callgsubr
        </CharString>
        <CharString name="Ldot">
          69 -96 callgsubr
          hintmask 10111000
          186 873 rmoveto
          -77 callsubr
          endchar
        </CharString>
        <CharString name="Lslash">
          68 -22 -21 36 214 -214 227 1085 210 hstemhm
          253 223 -218 220 hintmask 00000000
          1127 -19 rmoveto
          16 2 5 8 1 16 -18 397 rcurveline
          24 -1 -17 15 -24 hhcurveto
          -162 -15 rlineto
          -15 -1 -8 -8 -12 vvcurveto
          18 -175 rlineto
          hintmask 10110100
          -446 -23 1 461 378 162 rlineto
          8 3 3 6 6 vvcurveto
          3 -1 3 -1 3 vhcurveto
          -62 143 rlineto
          10 -4 -6 5 -7 hhcurveto
          -4 -4 -2 -2 -5 hvcurveto
          hintmask 10111000
          -294 -156 1 454 146 -5 rlineto
          13 1 10 3 18 vvcurveto
          -19 176 -2 17 -6 5 -14 1 rlinecurve
          -485 -8 rlineto
          -16 -7 -7 -16 -1 hvcurveto
          9 -180 -56 callsubr
          3 -6 14 hhcurveto
          136 13 -5 -547 -194 -76 -31 callgsubr
          hintmask 10110100
          115 55 -3 -362 -138 6 -12 -2 -3 -4 -1 -13 rlinecurve
          hintmask 11011000
          -16 -174 -56 callsubr
          5 -49 callgsubr
          843 35 5 -48 rlineto
          -16 2 9 -7 10 hhcurveto
          endchar
        </CharString>
        <CharString name="M">
          -21 callsubr
          -25 callgsubr
          hintmask 10001100
          -1 callgsubr
          hintmask 00101100
          -14 callsubr
          hintmask 00011100
          -65 callsubr
          hintmask 01001100
          -58 callsubr
          endchar
        </CharString>
        <CharString name="N">
          409 3 213 -198 -21 1319 209 hstemhm
          285 169 696 170 hintmask 00000000
          639 221 rmoveto
          -43 callsubr
          -157 -10 -24 1094 rlineto
          hintmask 10111000
          589 -1305 rlineto
          -15 7 4 -7 12 hhcurveto
          242 13 rlineto
          17 1 7 12 16 vvcurveto
          2 1267 127 -3 -47 callgsubr
          -13 179 -70 callsubr
          -447 -2 rlineto
          -16 -7 -5 -16 -1 hvcurveto
          -6 -166 -56 callsubr
          3 -6 14 hhcurveto
          155 -5 26 -1079 rlineto
          hintmask 01111000
          -567 1274 -8 19 -7 8 -22 1 rlinecurve
          -440 -22 -16 -1 -7 -4 -1 -16 rlinecurve
          -11 -176 2 -16 2 -5 14 -1 rlinecurve
          183 8 rlineto
          -1081 vlineto
          -157 -4 rlineto
          -12 -3 -6 -13 -1 hvcurveto
          18 -167 rlineto
          -16 2 4 -49 callgsubr
          484 -54 callgsubr
          endchar
        </CharString>
        <CharString name="Nacute">
          409 3 213 -198 -21 1300 226 -207 209 hstemhm
          285 169 696 170 hintmask 00000000
          639 221 rmoveto
          -43 callsubr
          -157 -10 -24 1094 rlineto
          hintmask 10011100
          589 -1305 rlineto
          -15 7 4 -7 12 hhcurveto
          242 13 rlineto
          17 1 7 12 16 vvcurveto
          2 1267 127 -3 -47 callgsubr
          -13 179 -70 callsubr
          -447 -2 rlineto
          -16 -7 -5 -16 -1 hvcurveto
          -6 -166 -56 callsubr
          3 -6 14 hhcurveto
          155 -5 26 -1079 rlineto
          hintmask 01011100
          -567 1274 -8 19 -7 8 -22 1 rlinecurve
          -440 -22 -16 -1 -7 -4 -1 -16 rlinecurve
          -11 -176 2 -16 2 -5 14 -1 rlinecurve
          183 8 rlineto
          -1081 vlineto
          -157 -4 rlineto
          -12 -3 -6 -13 -1 hvcurveto
          18 -167 rlineto
          -16 2 4 -49 callgsubr
          484 -54 callgsubr
          hintmask 10101100
          390 1983 -103 callsubr
        </CharString>
        <CharString name="Ncaron">
          409 3 213 -198 -21 1300 226 -207 209 hstemhm
          285 169 696 170 hintmask 00000000
          639 221 rmoveto
          -43 callsubr
          -157 -10 -24 1094 rlineto
          hintmask 10011100
          589 -1305 rlineto
          -15 7 4 -7 12 hhcurveto
          242 13 rlineto
          17 1 7 12 16 vvcurveto
          2 1267 127 -3 -47 callgsubr
          -13 179 -70 callsubr
          -447 -2 rlineto
          -16 -7 -5 -16 -1 hvcurveto
          -6 -166 -56 callsubr
          3 -6 14 hhcurveto
          155 -5 26 -1079 rlineto
          hintmask 01011100
          -567 1274 -8 19 -7 8 -22 1 rlinecurve
          -440 -22 -16 -1 -7 -4 -1 -16 rlinecurve
          -11 -176 2 -16 2 -5 14 -1 rlinecurve
          183 8 rlineto
          -1081 vlineto
          -157 -4 rlineto
          -12 -3 -6 -13 -1 hvcurveto
          18 -167 rlineto
          -16 2 4 -49 callgsubr
          484 -54 callgsubr
          hintmask 10101100
          500 1890 -101 callsubr
        </CharString>
        <CharString name="Ncommaaccent">
          409 3 213 -198 -21 1300 226 -207 209 hstemhm
          285 169 696 170 hintmask 00000000
          639 221 rmoveto
          -43 callsubr
          -157 -10 -24 1094 rlineto
          hintmask 10011100
          589 -1305 rlineto
          -15 7 4 -7 12 hhcurveto
          242 13 rlineto
          17 1 7 12 16 vvcurveto
          2 1267 127 -3 -47 callgsubr
          -13 179 -70 callsubr
          -447 -2 rlineto
          -16 -7 -5 -16 -1 hvcurveto
          -6 -166 -56 callsubr
          3 -6 14 hhcurveto
          155 -5 26 -1079 rlineto
          hintmask 01011100
          -567 1274 -8 19 -7 8 -22 1 rlinecurve
          -440 -22 -16 -1 -7 -4 -1 -16 rlinecurve
          -11 -176 2 -16 2 -5 14 -1 rlinecurve
          183 8 rlineto
          -1081 vlineto
          -157 -4 rlineto
          -12 -3 -6 -13 -1 hvcurveto
          18 -167 rlineto
          -16 2 4 -49 callgsubr
          484 -54 callgsubr
          hintmask 10101100
          139 -550 -99 callgsubr
        </CharString>
        <CharString name="Ntilde">
          409 3 213 -198 -21 1300 226 -207 209 hstemhm
          285 169 696 170 hintmask 00000000
          639 221 rmoveto
          -43 callsubr
          -157 -10 -24 1094 rlineto
          hintmask 10011100
          589 -1305 rlineto
          -15 7 4 -7 12 hhcurveto
          242 13 rlineto
          17 1 7 12 16 vvcurveto
          2 1267 127 -3 -47 callgsubr
          -13 179 -70 callsubr
          -447 -2 rlineto
          -16 -7 -5 -16 -1 hvcurveto
          -6 -166 -56 callsubr
          3 -6 14 hhcurveto
          155 -5 26 -1079 rlineto
          hintmask 01011100
          -567 1274 -8 19 -7 8 -22 1 rlinecurve
          -440 -22 -16 -1 -7 -4 -1 -16 rlinecurve
          -11 -176 2 -16 2 -5 14 -1 rlinecurve
          183 8 rlineto
          -1081 vlineto
          -157 -4 rlineto
          -12 -3 -6 -13 -1 hvcurveto
          18 -167 rlineto
          -16 2 4 -49 callgsubr
          484 -54 callgsubr
          hintmask 10101100
          -271 1728 -72 callsubr
          hintmask 00000000
          -90 callsubr
        </CharString>
        <CharString name="O">
          -49 callsubr
          hstem
          105 224 705 226 vstem
          -96 callsubr
          endchar
        </CharString>
        <CharString name="OE">
          741 -26 -21 35 217 -179 186 456 214 440 218 13 -20 hstemhm
          106 224 625 178 370 223 -50 callgsubr
          106 751 rmoveto
          -471 181 -292 346 80 67 12 22 55 vhcurveto
          hintmask 1100101000000000
          729 8 2 -64 rlineto
          -16 6 -8 16 -2 vhcurveto
          196 13 15 1 6 9 2 16 rlinecurve
          -26 404 -1 16 -10 7 -15 1 rlinecurve
          -159 -15 -24 -2 -17 -13 -1 -24 rlinecurve
          4 -132 -436 -18 22 458 387 7 rlineto
          14 8 8 15 1 hvcurveto
          13 168 rlineto
          18 -1 -12 5 -14 hhcurveto
          -395 -31 -32 467 392 23 -4 -171 rlineto
          -17 1 2 -9 18 hhcurveto
          163 14 12 1 8 7 1 15 rlinecurve
          20 345 rlineto
          19 -13 8 -17 vhcurveto
          hintmask 1011011110000000
          -821 -55 rlineto
          27 -54 -67 15 -82 hhcurveto
          -381 -185 -287 -502 hvcurveto
          hintmask 1100101000000000
          849 -6 rmoveto
          -388 -68 -152 -237 -220 -100 166 384 378 78 189 256 186 105 -114 -463 vhcurveto
          endchar
        </CharString>
        <CharString name="Oacute">
          -49 callsubr
          55 425 8 callsubr
          130 578 -3 226 -43 callgsubr
          -96 callsubr
          hintmask 00101000
          -71 1261 -103 callsubr
        </CharString>
        <CharString name="Obreve">
          -49 callsubr
          98 183 8 callsubr
          -25 757 -27 226 -43 callgsubr
          -96 callsubr
          hintmask 00101000
          27 1238 rmoveto
          -92 callgsubr
          -9 -8 -15 -78 callgsubr
          hvcurveto
          endchar
        </CharString>
        <CharString name="Ocircumflex">
          -49 callsubr
          95 385 8 callsubr
          -38 798 -55 226 -43 callgsubr
          -96 callsubr
          hintmask 00101000
          -738 1003 -105 callsubr
        </CharString>
        <CharString name="Odieresis">
          -49 callsubr
          185 263 8 callsubr
          -24 0 callgsubr
          -31 226 hintmask 00000000
          hintmask 11010010
          -96 callsubr
          hintmask 00101100
          -607 980 -100 callgsubr
        </CharString>
        <CharString name="Ograve">
          -49 callsubr
          69 411 8 callsubr
          0 617 88 226 -43 callgsubr
          -96 callsubr
          hintmask 00101000
          -701 1097 -91 callgsubr
        </CharString>
        <CharString name="Ohungarumlaut">
          -49 callsubr
          73 407 8 callsubr
          22 888 -205 226 -43 callgsubr
          -96 callsubr
          hintmask 00101000
          45 1265 -84 callgsubr
        </CharString>
        <CharString name="Omacron">
          -49 callsubr
          221 200 8 callsubr
          7 685 13 226 -43 callgsubr
          -96 callsubr
          hintmask 00101000
          -13 1207 rmoveto
          9 -4 9 -12 1 vhcurveto
          -639 -10 rlineto
          -12 -7 -39 callgsubr
          7 -8 12 vhcurveto
          624 -6 rlineto
          17 5 4 -40 callgsubr
          endchar
        </CharString>
        <CharString name="Omega">
          67 -10 1600 hstemhm
          104 989 -773 567 hintmask 00000000
          522 187 rmoveto
          -144 160 -58 278 259 vvcurveto
          321 86 185 206 vhcurveto
          hintmask 11000000
          182 93 -202 -310 -262 -73 -289 -162 -150 hvcurveto
          17 -157 rlineto
          -16 2 6 -8 14 hhcurveto
          360 -6 17 -26 callsubr
          8 161 rlineto
          9 -4 9 -12 1 vhcurveto
          -233 -13 rlineto
          129 144 130 269 338 vvcurveto
          404 -162 258 -311 -317 -199 -243 -433 -294 85 -278 149 -156 vhcurveto
          -201 4 -12 -1 -3 -9 -1 -9 rlinecurve
          -12 -161 2 -16 5 -3 17 -1 rlinecurve
          330 16 rlineto
          hintmask 10100000
          12 1 6 7 4 16 rrcurveto
          endchar
        </CharString>
        <CharString name="Oslash">
          -49 callsubr
          hstem
          106 224 705 226 vstem
          106 751 rmoveto
          -320 83 -222 162 -119 vhcurveto
          -90 -223 -6 callsubr
          6 -7 10 -4 vhcurveto
          117 -8 callgsubr
          75 214 rlineto
          -19 61 68 -10 75 hhcurveto
          385 176 273 488 346 -80 218 -149 117 hvcurveto
          89 214 rlineto
          -5 callsubr
          5 -10 3 vhcurveto
          -119 -9 callsubr
          -70 -194 rlineto
          22 -65 -74 11 -81 hhcurveto
          -381 -185 -287 -502 hvcurveto
          334 -439 rmoveto
          -74 81 -36 139 223 vvcurveto
          378 88 179 256 52 47 -5 -14 42 vhcurveto
          -171 -477 rlineto
          391 -71 rmoveto
          -364 -84 -164 -244 -51 -45 5 11 -40 vhcurveto
          186 531 181 440 rlineto
          63 -83 34 -142 -234 vvcurveto
          endchar
        </CharString>
        <CharString name="Otilde">
          -49 callsubr
          258 214 8 callsubr
          -59 824 -60 226 -43 callgsubr
          -96 callsubr
          hintmask 00000000
          -732 1006 -72 callsubr
          hintmask 00101000
          -90 callsubr
        </CharString>
        <CharString name="P">
          4 callgsubr
          hstem
          299 214 553 233 vstem
          -74 callsubr
          endchar
        </CharString>
        <CharString name="Q">
          -381 218 146 -21 1382 226 hstem
          110 218 707 222 vstem
          110 761 rmoveto
          -478 158 -261 310 -52 vhcurveto
          -221 49 64 -130 230 hhcurveto
          94 92 18 21 79 hvcurveto
          15 4 5 2 2 16 -11 167 rcurveline
          11 -1 -2 callgsubr
          -9 -21 -3 -6 -33 hvcurveto
          -9 -47 -64 -9 -54 hhcurveto
          -91 -69 29 96 -40 hvcurveto
          348 25 156 272 498 vvcurveto
          584 -217 229 -378 -381 -171 -270 -539 vhcurveto
          925 -10 rmoveto
          -391 -82 -196 -244 -253 -128 162 440 405 80 173 256 229 142 -118 -475 vhcurveto
          endchar
        </CharString>
        <CharString name="R">
          -99 callsubr
          endchar
        </CharString>
        <CharString name="Racute">
          -99 callsubr
          hintmask 10011110
          269 661 -103 callsubr
        </CharString>
        <CharString name="Rcaron">
          -99 callsubr
          hintmask 10011110
          379 568 -101 callsubr
        </CharString>
        <CharString name="Rcommaaccent">
          -99 callsubr
          hintmask 10011110
          18 -1872 -99 callgsubr
        </CharString>
        <CharString name="S">
          -104 callsubr
          endchar
        </CharString>
        <CharString name="Sacute">
          -104 callsubr
          hintmask 11101000
          580 1607 -103 callsubr
        </CharString>
        <CharString name="Scaron">
          -104 callsubr
          hintmask 11101000
          690 1514 -101 callsubr
        </CharString>
        <CharString name="Scedilla">
          69 -35 callgsubr
          107 195 1162 191 hstemhm
          120 235 398 330 -229 219 -181 240 hintmask 00000000
          591 -242 rmoveto
          -71 callsubr
          17 116 rlineto
          4 hlineto
          hintmask 11111100
          299 151 156 253 224 -92 83 -300 139 hvcurveto
          -244 113 -141 45 135 vvcurveto
          156 152 53 145 vhcurveto
          hintmask 11111001
          71 60 -12 -16 67 hvcurveto
          8 -220 1 -17 2 -8 18 -1 rlinecurve
          hintmask 11111010
          -53 callsubr
          -30 callgsubr
          20 415 rlineto
          17 -1 -13 10 -16 hhcurveto
          -22 -81 -21 -18 -62 hvcurveto
          27 -98 -97 18 -113 hhcurveto
          -268 -192 -176 -246 -269 184 -54 294 -142 hvcurveto
          hintmask 11111100
          214 -104 80 -39 -128 vvcurveto
          -130 -72 -65 -171 -83 -116 4 11 -102 vhcurveto
          -13 162 -41 callsubr
          -10 7 -10 hhcurveto
          -196 -18 rlineto
          -16 -1 -8 -5 -16 vvcurveto
          38 -387 2 -24 16 -14 24 -1 rlinecurve
          172 5 rlineto
          15 8 6 12 hvcurveto
          -7 80 61 -11 69 -9 66 -6 rlinecurve
          -40 -157 rlineto
          hintmask 11111001
          -20 callsubr
        </CharString>
        <CharString name="Scircumflex">
          -104 callsubr
          hintmask 11101000
          -87 1349 -105 callsubr
        </CharString>
        <CharString name="Scommaaccent">
          -104 callsubr
          hintmask 11101000
          329 -926 -99 callgsubr
        </CharString>
        <CharString name="T">
          3 227 1085 180 hstem
          101 208 261 224 248 208 vstem
          -90 callgsubr
          endchar
        </CharString>
        <CharString name="Tbar">
          3 227 373 190 -180 194 508 180 hstemhm
          101 208 256 224 -213 224 242 208 hintmask 00000000
          1232 1038 rmoveto
          9 9 4 12 1 hvcurveto
          30 443 rlineto
          15 -8 7 -14 vhcurveto
          -184 -20 -767 -8 rlineto
          26 vlineto
          17 -5 6 -15 vhcurveto
          -164 20 rlineto
          -16 -7 -4 -14 hvcurveto
          -9 -469 2 -16 10 -7 9 -1 rlinecurve
          173 12 16 1 7 5 1 14 rlinecurve
          -1 212 252 14 9 -526 -209 12 rlineto
          -15 -9 -5 -15 -1 hvcurveto
          -8 -151 rlineto
          -12 1 5 -7 12 hhcurveto
          hintmask 11011101
          227 3 6 -377 -178 11 rlineto
          -12 -4 -10 -9 hvcurveto
          -7 -198 -56 callsubr
          6 -4 17 hhcurveto
          594 13 rlineto
          12 5 8 16 1 hvcurveto
          -2 177 rlineto
          13 -4 4 -12 2 vhcurveto
          -193 -11 rlineto
          hintmask 11011011
          -6 385 221 3 rlineto
          12 7 5 14 hvcurveto
          151 vlineto
          16 -7 8 -15 vhcurveto
          hintmask 10111011
          -221 -22 -8 528 258 4 -3 -247 1 -17 3 -5 16 -2 rlinecurve
          endchar
        </CharString>
        <CharString name="Tcaron">
          3 227 1085 180 114 411 hstemhm
          101 208 -45 818 -512 224 248 208 hintmask 00000000
          hintmask 11010110
          -90 callgsubr
          hintmask 00101000
          16 867 -101 callsubr
        </CharString>
        <CharString name="Tcommaaccent">
          -540 439 104 227 1085 180 hstemhm
          101 208 254 276 -269 224 248 208 hintmask 00000000
          hintmask 01110110
          -90 callgsubr
          hintmask 10001000
          -345 -1573 -99 callgsubr
        </CharString>
        <CharString name="Thorn">
          -4 216 -216 224 146 201 442 193 121 211 hstemhm
          258 226 608 233 hintmask 00000000
          654 1521 rmoveto
          -1 16 -7 3 -16 2 -499 -8 rcurveline
          -14 -4 -7 -16 hvcurveto
          4 -176 rlineto
          -18 9 -4 14 vhcurveto
          131 7 rlineto
          hintmask 01111110
          -25 -1111 -118 7 -12 -2 -3 -4 -1 -13 rlinecurve
          hintmask 10111110
          18 -177 rlineto
          -16 2 7 -8 14 hhcurveto
          519 -68 callgsubr
          -7 178 rlineto
          12 -7 7 -12 vhcurveto
          -191 -13 2 178 rlineto
          -13 92 88 -6 71 hhcurveto
          382 211 108 319 303 -221 106 -286 -107 -113 -13 -20 -109 hvcurveto
          1 155 137 -1 rlineto
          14 3 5 17 1 hvcurveto
          125 -778 rmoveto
          -95 -100 10 11 -92 hvcurveto
          4 397 rlineto
          14 101 93 10 101 hhcurveto
          176 134 -36 -182 -176 -141 -48 -181 hvcurveto
          endchar
        </CharString>
        <CharString name="U">
          411 -3 -21 28 -21 29 234 1047 212 -189 213 hstemhm
          219 228 586 218 hintmask 00000000
          1431 181 rmoveto
          9 -4 10 -12 vhcurveto
          -164 -16 rlineto
          1104 vlineto
          140 5 rlineto
          13 10 5 17 hvcurveto
          -3 179 rlineto
          17 -5 5 -13 1 vhcurveto
          -448 -12 rlineto
          -16 -7 -5 -16 -1 hvcurveto
          -6 -186 rlineto
          -13 5 -9 9 vhcurveto
          107 4 -6 -890 rlineto
          hintmask 01010110
          -80 -89 -147 -64 -123 hhcurveto
          -121 -103 78 298 206 7 106 22 382 hvcurveto
          48 hlineto
          14 7 3 19 2 hvcurveto
          14 176 rlineto
          17 -4 5 -14 1 vhcurveto
          -432 -15 -16 -1 -7 -4 -1 -16 rlinecurve
          -11 -186 rlineto
          -17 2 2 -5 14 hhcurveto
          164 13 rlineto
          -32 -391 -7 -128 -249 vvcurveto
          -338 139 -188 253 154 150 80 135 114 vhcurveto
          -1 -227 rlineto
          -15 9 -9 14 vhcurveto
          hintmask 10101110
          343 -68 callgsubr
          endchar
        </CharString>
        <CharString name="Uacute">
          411 -3 -21 28 -21 29 234 1047 212 -189 213 hstemhm
          219 228 586 218 hintmask 00000000
          1431 181 rmoveto
          9 -4 10 -12 vhcurveto
          -164 -16 rlineto
          1104 vlineto
          140 5 rlineto
          13 10 5 17 hvcurveto
          -3 179 rlineto
          17 -5 5 -13 1 vhcurveto
          -448 -12 rlineto
          -16 -7 -5 -16 -1 hvcurveto
          -6 -186 rlineto
          -13 5 -9 9 vhcurveto
          107 4 -6 -890 rlineto
          hintmask 01010110
          -80 -89 -147 -64 -123 hhcurveto
          -121 -103 78 298 206 7 106 22 382 hvcurveto
          48 hlineto
          14 7 3 19 2 hvcurveto
          14 176 rlineto
          17 -4 5 -14 1 vhcurveto
          -432 -15 -16 -1 -7 -4 -1 -16 rlinecurve
          -11 -186 rlineto
          -17 2 2 -5 14 hhcurveto
          164 13 rlineto
          -32 -391 -7 -128 -249 vvcurveto
          -338 139 -188 253 154 150 80 135 114 vhcurveto
          -1 -227 rlineto
          -15 9 -9 14 vhcurveto
          hintmask 10101110
          343 -68 callgsubr
          hintmask 01010110
          -374 2003 -103 callsubr
        </CharString>
        <CharString name="Ubreve">
          411 -3 -21 28 -21 29 234 1047 212 -189 213 hstemhm
          219 228 586 218 hintmask 00000000
          1431 181 rmoveto
          9 -4 10 -12 vhcurveto
          -164 -16 rlineto
          1104 vlineto
          140 5 rlineto
          13 10 5 17 hvcurveto
          -3 179 rlineto
          17 -5 5 -13 1 vhcurveto
          -448 -12 rlineto
          -16 -7 -5 -16 -1 hvcurveto
          -6 -186 rlineto
          -13 5 -9 9 vhcurveto
          107 4 -6 -890 rlineto
          hintmask 01010110
          -80 -89 -147 -64 -123 hhcurveto
          -121 -103 78 298 206 7 106 22 382 hvcurveto
          48 hlineto
          14 7 3 19 2 hvcurveto
          14 176 rlineto
          17 -4 5 -14 1 vhcurveto
          -432 -15 -16 -1 -7 -4 -1 -16 rlinecurve
          -11 -186 rlineto
          -17 2 2 -5 14 hhcurveto
          164 13 rlineto
          -32 -391 -7 -128 -249 vvcurveto
          -338 139 -188 253 154 150 80 135 114 vhcurveto
          -1 -227 rlineto
          -15 9 -9 14 vhcurveto
          hintmask 10101110
          343 -68 callgsubr
          hintmask 01010110
          -276 1980 rmoveto
          -92 callgsubr
          -9 -8 -15 -78 callgsubr
          hvcurveto
          endchar
        </CharString>
        <CharString name="Ucircumflex">
          411 -3 -21 28 -21 29 234 1047 212 -189 213 hstemhm
          219 228 586 218 hintmask 00000000
          1431 181 rmoveto
          9 -4 10 -12 vhcurveto
          -164 -16 rlineto
          1104 vlineto
          140 5 rlineto
          13 10 5 17 hvcurveto
          -3 179 rlineto
          17 -5 5 -13 1 vhcurveto
          -448 -12 rlineto
          -16 -7 -5 -16 -1 hvcurveto
          -6 -186 rlineto
          -13 5 -9 9 vhcurveto
          107 4 -6 -890 rlineto
          hintmask 01010110
          -80 -89 -147 -64 -123 hhcurveto
          -121 -103 78 298 206 7 106 22 382 hvcurveto
          48 hlineto
          14 7 3 19 2 hvcurveto
          14 176 rlineto
          17 -4 5 -14 1 vhcurveto
          -432 -15 -16 -1 -7 -4 -1 -16 rlinecurve
          -11 -186 rlineto
          -17 2 2 -5 14 hhcurveto
          164 13 rlineto
          -32 -391 -7 -128 -249 vvcurveto
          -338 139 -188 253 154 150 80 135 114 vhcurveto
          -1 -227 rlineto
          -15 9 -9 14 vhcurveto
          hintmask 10101110
          343 -68 callgsubr
          hintmask 01010110
          -1041 1745 -105 callsubr
        </CharString>
        <CharString name="Udieresis">
          411 -3 -21 28 -21 29 234 1047 212 -189 213 hstemhm
          219 228 586 218 hintmask 00000000
          1431 181 rmoveto
          9 -4 10 -12 vhcurveto
          -164 -16 rlineto
          1104 vlineto
          140 5 rlineto
          13 10 5 17 hvcurveto
          -3 179 rlineto
          17 -5 5 -13 1 vhcurveto
          -448 -12 rlineto
          -16 -7 -5 -16 -1 hvcurveto
          -6 -186 rlineto
          -13 5 -9 9 vhcurveto
          107 4 -6 -890 rlineto
          hintmask 01010110
          -80 -89 -147 -64 -123 hhcurveto
          -121 -103 78 298 206 7 106 22 382 hvcurveto
          48 hlineto
          14 7 3 19 2 hvcurveto
          14 176 rlineto
          17 -4 5 -14 1 vhcurveto
          -432 -15 -16 -1 -7 -4 -1 -16 rlinecurve
          -11 -186 rlineto
          -17 2 2 -5 14 hhcurveto
          164 13 rlineto
          -32 -391 -7 -128 -249 vvcurveto
          -338 139 -188 253 154 150 80 135 114 vhcurveto
          -1 -227 rlineto
          -15 9 -9 14 vhcurveto
          hintmask 10101110
          343 -68 callgsubr
          hintmask 01010110
          -910 1722 -100 callgsubr
        </CharString>
        <CharString name="Ugrave">
          411 -3 -21 28 -21 29 234 1047 212 -189 213 hstemhm
          219 228 586 218 hintmask 00000000
          1431 181 rmoveto
          9 -4 10 -12 vhcurveto
          -164 -16 rlineto
          1104 vlineto
          140 5 rlineto
          13 10 5 17 hvcurveto
          -3 179 rlineto
          17 -5 5 -13 1 vhcurveto
          -448 -12 rlineto
          -16 -7 -5 -16 -1 hvcurveto
          -6 -186 rlineto
          -13 5 -9 9 vhcurveto
          107 4 -6 -890 rlineto
          hintmask 01010110
          -80 -89 -147 -64 -123 hhcurveto
          -121 -103 78 298 206 7 106 22 382 hvcurveto
          48 hlineto
          14 7 3 19 2 hvcurveto
          14 176 rlineto
          17 -4 5 -14 1 vhcurveto
          -432 -15 -16 -1 -7 -4 -1 -16 rlinecurve
          -11 -186 rlineto
          -17 2 2 -5 14 hhcurveto
          164 13 rlineto
          -32 -391 -7 -128 -249 vvcurveto
          -338 139 -188 253 154 150 80 135 114 vhcurveto
          -1 -227 rlineto
          -15 9 -9 14 vhcurveto
          hintmask 10101110
          343 -68 callgsubr
          hintmask 01010110
          -1004 1839 -91 callgsubr
        </CharString>
        <CharString name="Uhungarumlaut">
          411 -3 -21 28 -21 29 234 1047 212 -189 213 hstemhm
          219 228 586 218 hintmask 00000000
          1431 181 rmoveto
          9 -4 10 -12 vhcurveto
          -164 -16 rlineto
          1104 vlineto
          140 5 rlineto
          13 10 5 17 hvcurveto
          -3 179 rlineto
          17 -5 5 -13 1 vhcurveto
          -448 -12 rlineto
          -16 -7 -5 -16 -1 hvcurveto
          -6 -186 rlineto
          -13 5 -9 9 vhcurveto
          107 4 -6 -890 rlineto
          hintmask 01010110
          -80 -89 -147 -64 -123 hhcurveto
          -121 -103 78 298 206 7 106 22 382 hvcurveto
          48 hlineto
          14 7 3 19 2 hvcurveto
          14 176 rlineto
          17 -4 5 -14 1 vhcurveto
          -432 -15 -16 -1 -7 -4 -1 -16 rlinecurve
          -11 -186 rlineto
          -17 2 2 -5 14 hhcurveto
          164 13 rlineto
          -32 -391 -7 -128 -249 vvcurveto
          -338 139 -188 253 154 150 80 135 114 vhcurveto
          -1 -227 rlineto
          -15 9 -9 14 vhcurveto
          hintmask 10101110
          343 -68 callgsubr
          hintmask 01010110
          -258 2007 -84 callgsubr
        </CharString>
        <CharString name="Umacron">
          411 -3 -21 28 -21 29 234 1047 212 -189 213 hstemhm
          219 228 586 218 hintmask 00000000
          1431 181 rmoveto
          9 -4 10 -12 vhcurveto
          -164 -16 rlineto
          1104 vlineto
          140 5 rlineto
          13 10 5 17 hvcurveto
          -3 179 rlineto
          17 -5 5 -13 1 vhcurveto
          -448 -12 rlineto
          -16 -7 -5 -16 -1 hvcurveto
          -6 -186 rlineto
          -13 5 -9 9 vhcurveto
          107 4 -6 -890 rlineto
          hintmask 01010110
          -80 -89 -147 -64 -123 hhcurveto
          -121 -103 78 298 206 7 106 22 382 hvcurveto
          48 hlineto
          14 7 3 19 2 hvcurveto
          14 176 rlineto
          17 -4 5 -14 1 vhcurveto
          -432 -15 -16 -1 -7 -4 -1 -16 rlinecurve
          -11 -186 rlineto
          -17 2 2 -5 14 hhcurveto
          164 13 rlineto
          -32 -391 -7 -128 -249 vvcurveto
          -338 139 -188 253 154 150 80 135 114 vhcurveto
          -1 -227 rlineto
          -15 9 -9 14 vhcurveto
          hintmask 10101110
          343 -68 callgsubr
          hintmask 01010110
          -316 1949 rmoveto
          9 -4 9 -12 1 vhcurveto
          -639 -10 rlineto
          -12 -7 -39 callgsubr
          7 -8 12 vhcurveto
          624 -6 rlineto
          17 5 4 -40 callgsubr
          endchar
        </CharString>
        <CharString name="Uogonek">
          411 -450 205 249 -21 29 234 1047 212 -189 213 hstemhm
          219 228 474 194 -82 218 hintmask 00000000
          1431 181 rmoveto
          9 -4 10 -12 vhcurveto
          -164 -16 rlineto
          1104 vlineto
          140 5 rlineto
          13 10 5 17 hvcurveto
          -3 179 rlineto
          17 -5 5 -13 1 vhcurveto
          hintmask 11010101
          -448 -12 rlineto
          -16 -7 -5 -16 -1 hvcurveto
          -6 -186 rlineto
          -13 5 -9 9 vhcurveto
          hintmask 11010110
          107 4 -6 -890 rlineto
          -80 -89 -147 -64 -123 hhcurveto
          -121 -103 78 298 hvcurveto
          hintmask 11110101
          206 7 106 22 382 vhcurveto
          48 hlineto
          14 7 3 19 2 hvcurveto
          14 176 rlineto
          17 -4 5 -14 1 vhcurveto
          -432 -15 -16 -1 -7 -4 -1 -16 rlinecurve
          -11 -186 rlineto
          -17 2 2 -5 14 hhcurveto
          164 13 rlineto
          -32 -391 -7 -128 -249 vvcurveto
          -338 139 -188 253 154 150 80 135 114 vhcurveto
          -1 -234 rlineto
          hintmask 11101101
          -54 -88 -37 -94 -82 -85 callgsubr
          44 30 59 41 57 hvcurveto
          208 4 -78 callsubr
          endchar
        </CharString>
        <CharString name="Uring">
          411 -3 -21 28 -21 29 234 1047 212 -189 213 hstemhm
          219 228 586 218 hintmask 00000000
          1431 181 rmoveto
          9 -4 10 -12 vhcurveto
          -164 -16 rlineto
          1104 vlineto
          140 5 rlineto
          13 10 5 17 hvcurveto
          -3 179 rlineto
          17 -5 5 -13 1 vhcurveto
          -448 -12 rlineto
          -16 -7 -5 -16 -1 hvcurveto
          -6 -186 rlineto
          -13 5 -9 9 vhcurveto
          107 4 -6 -890 rlineto
          hintmask 01010110
          -80 -89 -147 -64 -123 hhcurveto
          -121 -103 78 298 206 7 106 22 382 hvcurveto
          48 hlineto
          14 7 3 19 2 hvcurveto
          14 176 rlineto
          17 -4 5 -14 1 vhcurveto
          -432 -15 -16 -1 -7 -4 -1 -16 rlinecurve
          -11 -186 rlineto
          -17 2 2 -5 14 hhcurveto
          164 13 rlineto
          -32 -391 -7 -128 -249 vvcurveto
          -338 139 -188 253 154 150 80 135 114 vhcurveto
          -1 -227 rlineto
          -15 9 -9 14 vhcurveto
          hintmask 10101110
          343 -68 callgsubr
          hintmask 01010110
          -654 1512 -79 callgsubr
        </CharString>
        <CharString name="Utilde">
          411 -3 -21 28 -21 29 234 1047 212 -189 213 hstemhm
          219 228 586 218 hintmask 00000000
          1431 181 rmoveto
          9 -4 10 -12 vhcurveto
          -164 -16 rlineto
          1104 vlineto
          140 5 rlineto
          13 10 5 17 hvcurveto
          -3 179 rlineto
          17 -5 5 -13 1 vhcurveto
          -448 -12 rlineto
          -16 -7 -5 -16 -1 hvcurveto
          -6 -186 rlineto
          -13 5 -9 9 vhcurveto
          107 4 -6 -890 rlineto
          hintmask 01010110
          -80 -89 -147 -64 -123 hhcurveto
          -121 -103 78 298 206 7 106 22 382 hvcurveto
          48 hlineto
          14 7 3 19 2 hvcurveto
          14 176 rlineto
          17 -4 5 -14 1 vhcurveto
          -432 -15 -16 -1 -7 -4 -1 -16 rlinecurve
          -11 -186 rlineto
          -17 2 2 -5 14 hhcurveto
          164 13 rlineto
          -32 -391 -7 -128 -249 vvcurveto
          -338 139 -188 253 154 150 80 135 114 vhcurveto
          -1 -227 rlineto
          -15 9 -9 14 vhcurveto
          hintmask 10101110
          343 -68 callgsubr
          hintmask 01010110
          -1035 1748 -72 callsubr
          hintmask 00000000
          -90 callsubr
        </CharString>
        <CharString name="V">
          237 13 -21 1325 212 hstemhm
          36 1310 hintmask 00000000
          574 15 rmoveto
          5 -15 7 -7 13 -1 187 8 rcurveline
          15 1 5 8 4 12 413 1294 rcurveline
          83 -4 22 1 7 7 1 21 rlinecurve
          10 157 rlineto
          19 -5 13 -17 vhcurveto
          -436 3 -20 -1 -9 -7 -1 -22 rlinecurve
          -5 -162 rlineto
          -17 2 5 -6 16 hhcurveto
          127 3 -303 -1070 rlineto
          hintmask 11100000
          -322 1049 146 -1 rlineto
          21 6 5 23 3 hvcurveto
          -10 166 -1 19 -4 9 -19 2 rlinecurve
          -443 -10 rlineto
          -22 -9 -5 -22 hvcurveto
          -10 -168 rlineto
          -24 9 -8 19 vhcurveto
          65 5 rlineto
          endchar
        </CharString>
        <CharString name="W">
          -102 callgsubr
          endchar
        </CharString>
        <CharString name="Wacute">
          -102 callgsubr
          hintmask 11001000
          -186 494 -103 callsubr
        </CharString>
        <CharString name="Wcircumflex">
          -102 callgsubr
          hintmask 11001000
          -793 236 -105 callsubr
        </CharString>
        <CharString name="Wdieresis">
          -102 callgsubr
          hintmask 11001000
          -658 213 -100 callgsubr
        </CharString>
        <CharString name="Wgrave">
          -102 callgsubr
          hintmask 11001000
          -712 330 -91 callgsubr
        </CharString>
        <CharString name="X">
          5 218 -210 209 1066 238 -212 223 hstemhm
          82 499 -499 1253 -1221 532 hintmask 00000000
          82 26 rmoveto
          -16 7 -5 14 vhcurveto
          454 -2 15 1 4 3 3 17 rlinecurve
          2 175 rlineto
          14 -3 10 -13 vhcurveto
          -103 -8 246 420 rlineto
          hintmask 10101000
          210 -419 -80 -1 rlineto
          -15 -7 -5 -16 -1 hvcurveto
          12 -169 1 -12 7 -5 12 -1 rlinecurve
          446 6 rlineto
          17 4 4 15 2 hvcurveto
          19 166 rlineto
          14 -2 10 -13 vhcurveto
          -134 -2 -381 570 342 505 120 -7 rlineto
          16 5 6 15 1 hvcurveto
          10 193 -1 14 -3 9 -12 1 rlinecurve
          -437 hlineto
          -15 -1 -5 -5 -2 -16 11 -175 rcurveline
          1 -12 4 -4 12 -1 69 -4 rcurveline
          -196 -372 rlineto
          hintmask 01100100
          -187 383 91 -5 rlineto
          16 4 4 17 2 hvcurveto
          -5 180 rlineto
          14 0 8 -18 vhcurveto
          -491 -11 rlineto
          -16 -7 -4 -16 hvcurveto
          -179 vlineto
          -18 7 -6 14 vhcurveto
          130 12 362 -553 -402 -546 rlineto
          hintmask 10010010
          -110 17 rlineto
          -16 -6 -4 -16 -1 hvcurveto
          endchar
        </CharString>
        <CharString name="Y">
          -100 callsubr
          endchar
        </CharString>
        <CharString name="Yacute">
          -100 callsubr
          hintmask 10011000
          2 1989 -103 callsubr
        </CharString>
        <CharString name="Ycircumflex">
          -100 callsubr
          hintmask 10011000
          -645 1731 -105 callsubr
        </CharString>
        <CharString name="Ydieresis">
          -100 callsubr
          hintmask 10011000
          -504 1708 -100 callgsubr
        </CharString>
        <CharString name="Ygrave">
          -100 callsubr
          hintmask 10011000
          -568 1825 -91 callgsubr
        </CharString>
        <CharString name="Z">
          69 17 183 hstem
          926 217 vstem
          -88 callgsubr
          endchar
        </CharString>
        <CharString name="Zacute">
          69 17 183 1395 425 hstemhm
          380 578 -32 -10 callgsubr
          hintmask 10010000
          -88 callgsubr
          hintmask 01100000
          729 928 -103 callsubr
        </CharString>
        <CharString name="Zcaron">
          69 17 183 1409 411 hstemhm
          181 818 -73 -10 callgsubr
          hintmask 10010000
          -88 callgsubr
          hintmask 01100000
          839 835 -101 callsubr
        </CharString>
        <CharString name="Zdotaccent">
          69 17 183 1525 263 hstemhm
          459 289 178 -10 callgsubr
          hintmask 10010000
          -88 callgsubr
          hintmask 01100000
          420 647 -83 callgsubr
        </CharString>
        <CharString name="a">
          -107 callgsubr
          endchar
        </CharString>
        <CharString name="aacute">
          -107 callgsubr
          hintmask 0101011010000000
          284 1649 -102 callsubr
        </CharString>
        <CharString name="abreve">
          -107 callgsubr
          hintmask 0101011010000000
          486 1525 rmoveto
          -92 callgsubr
          -1 -9 -7 -15 vvcurveto
          -78 callgsubr
          vhcurveto
          endchar
        </CharString>
        <CharString name="acircumflex">
          -107 callgsubr
          hintmask 0101011010000000
          -306 1218 -103 callgsubr
        </CharString>
        <CharString name="acute">
          -227 1271 539 hstem
          205 569 vstem
          636 1799 -102 callsubr
        </CharString>
        <CharString name="acute.cap">
          -227 1595 425 hstem
          161 578 vstem
          665 2006 -103 callsubr
        </CharString>
        <CharString name="adieresis">
          -107 callgsubr
          hintmask 0101011010000000
          -161 1187 -100 callgsubr
        </CharString>
        <CharString name="ae">
          -89 callgsubr
          endchar
        </CharString>
        <CharString name="aeacute">
          -89 callgsubr
          hintmask 1001010101010000
          -342 999 -102 callsubr
        </CharString>
        <CharString name="agrave">
          -107 callgsubr
          hintmask 0101011010000000
          -232 1499 -91 callsubr
        </CharString>
        <CharString name="amacron">
          -107 callgsubr
          hintmask 0101011010000000
          437 1442 -77 callgsubr
        </CharString>
        <CharString name="ampersand">
          228 -24 201 1179 185 hstemhm
          78 237 -85 229 392 212 hintmask 00000000
          1291 360 rmoveto
          4 -5 -5 2 -4 hhcurveto
          -6 -6 -4 -5 -4 hvcurveto
          -68 -100 -199 206 -132 141 -152 168 rlinecurve
          249 127 104 109 185 vvcurveto
          239 -185 109 -224 vhcurveto
          hintmask 11101000
          -243 -181 -130 -245 -146 58 -95 122 -145 hvcurveto
          hintmask 11011000
          -205 -117 -127 -119 -208 vvcurveto
          -244 200 -116 216 204 146 86 121 115 vhcurveto
          95 -90 -85 -84 rlineto
          -4 -4 -1 -3 -3 vvcurveto
          -5 4 -5 8 -7 vhcurveto
          121 -107 rlineto
          -5 5 5 -3 4 hhcurveto
          4 4 3 3 3 hvcurveto
          314 332 rlineto
          3 3 2 3 3 vvcurveto
          6 -3 5 -4 4 vhcurveto
          -900 -52 rmoveto
          -112 -107 63 138 94 50 94 144 98 hvcurveto
          102 -117 103 -116 123 -126 rrcurveto
          -75 -75 -106 -53 -122 hhcurveto
          hintmask 11101000
          -75 991 rmoveto
          125 93 63 112 123 64 -80 -107 -108 -63 -85 -176 -95 vhcurveto
          -130 147 -23 48 92 vvcurveto
          endchar
        </CharString>
        <CharString name="aogonek">
          69 -450 205 201 210 -205 189 -173 -21 563 149 278 205 5 -20 -54 callsubr
          277 178 -54 228 -50 callgsubr
          1154 147 rmoveto
          11 -6 8 -15 vhcurveto
          -55 -5 -43 -3 -37 -3 rrcurveto
          8 165 12 333 130 vvcurveto
          268 -120 100 -176 -107 -136 -50 -50 -90 vhcurveto
          hintmask 0100110010100000
          83 vlineto
          15 -4 7 -17 vhcurveto
          -167 -22 rlineto
          -17 -2 -5 -6 -19 vvcurveto
          17 -286 1 -15 4 -5 15 -2 rlinecurve
          169 3 rlineto
          16 6 5 17 hvcurveto
          hintmask 0010101010100000
          14 -3 30 -3 24 vhcurveto
          30 74 83 24 63 hhcurveto
          113 58 -62 -133 -21 0 -31 -1 -34 hvcurveto
          2 -45 -42 1 -41 hhcurveto
          -364 -194 -77 -288 -218 160 -124 197 135 128 52 77 100 hvcurveto
          hintmask 0010110100100000
          -88 -112 -71 -137 -112 -85 callgsubr
          hvcurveto
          hintmask 1010101101000000
          38 23 49 33 50 vhcurveto
          214 13 15 1 5 3 2 16 rlinecurve
          hintmask 0001101101000000
          -604 161 rmoveto
          -122 -79 55 121 139 97 53 362 1 hvcurveto
          -2 -103 -1 -113 -2 -87 rrcurveto
          -28 -61 -95 -38 -97 hhcurveto
          endchar
        </CharString>
        <CharString name="approxequal">
          67 363 199 -82 201 195 5 callsubr
          427 -50 callsubr
          hintmask 01010000
          -69 callgsubr
          hintmask 10010000
          30 -57 -55 30 -65 hhcurveto
          -134 -101 -87 -64 -59 hvcurveto
          -8 -8 -5 -5 -9 vvcurveto
          hintmask 01010000
          32 315 -50 callsubr
          hintmask 00000000
          -69 callgsubr
          hintmask 00110000
          -22 callsubr
        </CharString>
        <CharString name="aring">
          -107 callgsubr
          hintmask 0101011010000000
          93 1117 -79 callgsubr
        </CharString>
        <CharString name="asciicircum">
          67 335 1100 hstem
          61 1072 vstem
          66 427 rmoveto
          -3 -6 -2 -5 -4 vvcurveto
          -4 2 -4 5 -2 vhcurveto
          159 -63 rlineto
          -2 5 7 -2 6 hhcurveto
          7 5 2 7 3 hvcurveto
          331 844 340 -843 rlineto
          -7 3 4 -3 6 -52 callgsubr
          2 6 hvcurveto
          166 48 rlineto
          6 2 2 6 6 vvcurveto
          8 -2 8 -2 4 vhcurveto
          -457 985 -5 11 -12 4 -14 2 rlinecurve
          -96 12 -18 -3 -11 -8 -6 -14 rlinecurve
          endchar
        </CharString>
        <CharString name="asciitilde">
          67 707 199 -82 5 callsubr
          771 -50 callsubr
          hintmask 01100000
          -69 callgsubr
          hintmask 10100000
          -22 callsubr
        </CharString>
        <CharString name="asterisk">
          -106 807 901 hstem
          93 877 vstem
          707 1623 rmoveto
          -5 callsubr
          7 -11 4 vhcurveto
          -138 54 rlineto
          -16 -12 -3 -15 -2 hvcurveto
          -52 -334 -247 206 rlineto
          5 -6 -6 2 -5 hhcurveto
          -6 -6 -3 -8 -6 hvcurveto
          -92 -128 rlineto
          -4 -5 9 callsubr
          -7 5 -7 8 -4 vhcurveto
          299 -153 -277 -179 rlineto
          -7 -15 callsubr
          -6 3 -6 4 -6 vhcurveto
          97 -124 rlineto
          -7 5 5 -3 5 hhcurveto
          5 6 2 8 7 hvcurveto
          231 235 86 -318 rlineto
          -12 3 7 -5 9 hhcurveto
          3 4 0 2 4 hvcurveto
          145 67 rlineto
          9 4 5 6 8 vvcurveto
          4 -2 6 -3 7 vhcurveto
          -147 283 339 -24 rlineto
          17 4 8 18 hvcurveto
          -35 165 rlineto
          18 -4 -5 3 -22 hhcurveto
          -305 -55 rlineto
          endchar
        </CharString>
        <CharString name="at">
          915 -468 208 234 214 -193 192 762 205 243 198 hstemhm
          138 186 267 206 929 177 hintmask 00000000
          591 454 rmoveto
          -303 121 -177 225 118 113 48 118 82 vhcurveto
          hintmask 11011111
          -95 51 86 -50 95 hhcurveto
          270 151 301 539 516 -305 244 -484 -636 -340 -441 -716 -644 340 -262 488 339 247 62 98 258 hvcurveto
          12 5 8 6 17 vvcurveto
          -31 180 rlineto
          14 -2 -4 4 -17 hhcurveto
          -138 -303 -234 -40 -236 hhcurveto
          -464 -215 198 509 639 251 311 525 393 233 -177 -404 -393 -103 -236 -128 -62 -50 42 73 189 68 650 0 hvcurveto
          16 -4 4 -14 3 vhcurveto
          -170 31 rlineto
          -17 -7 -8 -13 hvcurveto
          4 -35 2 -32 1 -35 rrcurveto
          51 -55 -75 31 -99 hhcurveto
          hintmask 10111111
          -277 -149 -254 -446 hvcurveto
          367 -266 rmoveto
          -141 -20 125 158 305 64 173 165 123 65 -65 -197 -173 -36 -326 -220 hvcurveto
          endchar
        </CharString>
        <CharString name="atilde">
          69 -49 215 -205 189 -178 -21 568 149 278 205 5 -20 282 214 -54 callsubr
          -152 784 -231 228 -50 callgsubr
          1154 147 rmoveto
          11 -6 8 -15 vhcurveto
          -55 -5 -43 -3 -37 -3 rrcurveto
          8 165 12 333 130 vvcurveto
          268 -120 100 -176 -107 -136 -50 -50 -90 vhcurveto
          hintmask 1001100010100000
          83 vlineto
          15 -4 7 -17 vhcurveto
          -167 -22 rlineto
          -17 -2 -5 -6 -19 vvcurveto
          17 -286 1 -15 4 -5 15 -2 rlinecurve
          169 3 rlineto
          16 6 5 17 hvcurveto
          hintmask 0101010010100000
          14 -3 30 -3 24 vhcurveto
          30 74 83 24 63 hhcurveto
          113 58 -62 -133 -21 0 -31 -1 -34 hvcurveto
          2 -45 -42 1 -41 hhcurveto
          -364 -194 -77 -288 -218 160 -124 197 135 128 52 77 100 hvcurveto
          hintmask 0101100100100000
          -14 -117 rlineto
          -14 2 -8 12 vhcurveto
          289 18 15 1 5 3 2 16 rlinecurve
          hintmask 0011010100100000
          -604 161 rmoveto
          -122 -79 55 121 139 97 53 362 1 hvcurveto
          -2 -103 -1 -113 -2 -87 rrcurveto
          -28 -61 -95 -38 -97 hhcurveto
          hintmask 0101010100100000
          -263 1221 -72 callgsubr
          -50 callgsubr
          -82 callsubr
          hintmask 0000001001000000
          29 -48 -48 29 -40 hhcurveto
          -74 -100 -68 callsubr
        </CharString>
        <CharString name="b">
          -75 callsubr
          endchar
        </CharString>
        <CharString name="backslash">
          -445 -455 2192 hstem
          9 673 vstem
          24 1704 rmoveto
          -10 -3 -5 -5 -9 vvcurveto
          -3 1 -4 1 -4 vhcurveto
          501 -2117 rlineto
          -9 2 6 -5 10 hhcurveto
          3 3 0 1 4 hvcurveto
          126 31 rlineto
          11 3 5 8 10 vvcurveto
          2 0 3 -1 2 vhcurveto
          -496 2115 rlineto
          11 -2 -8 6 -10 hhcurveto
          -2 -2 0 -1 -3 hvcurveto
          endchar
        </CharString>
        <CharString name="bar">
          -276 -535 2171 hstem
          338 180 vstem
          347 1634 rmoveto
          -12 -7 -8 -12 hvcurveto
          10 -2131 rlineto
          -12 5 -6 14 vhcurveto
          148 10 rlineto
          14 1 3 6 12 vvcurveto
          -4 2118 -20 callgsubr
          endchar
        </CharString>
        <CharString name="braceleft">
          -444 -193 205 654 184 582 207 hstemhm
          197 196 -172 194 -184 182 -180 189 hintmask 00000000
          233 953 rmoveto
          -78 -63 -25 -99 -12 -8 -5 -14 vhcurveto
          10 -141 -56 callsubr
          6 -49 callgsubr
          hintmask 11100010
          86 65 -15 -81 -33 -6 -77 -9 -84 hvcurveto
          hintmask 11100100
          -11 -102 -8 -114 -64 vvcurveto
          -148 42 -141 250 26 27 2 3 30 vhcurveto
          12 1 3 4 1 14 10 161 rcurveline
          17 -1 -1 7 -12 hhcurveto
          -2 -19 -22 -2 -18 hhcurveto
          -101 -31 26 95 114 6 79 6 68 hvcurveto
          hintmask 11110000
          5 55 3 49 58 vvcurveto
          86 -23 78 -70 35 vhcurveto
          hintmask 11100100
          69 44 33 90 69 vvcurveto
          73 0 56 -3 52 vhcurveto
          -3 53 -1 49 55 vvcurveto
          124 37 12 154 12 1 8 16 1 vhcurveto
          10 161 -1 14 -3 4 -12 1 rlinecurve
          2 -27 -25 1 -23 hhcurveto
          -299 -19 -129 -224 -55 3 -65 3 -51 hvcurveto
          hintmask 11101000
          3 -50 3 -49 -63 vvcurveto
          endchar
        </CharString>
        <CharString name="braceright">
          -444 -193 207 582 184 654 205 hstemhm
          261 189 -182 194 -192 182 -162 196 hintmask 00000000
          450 493 rmoveto
          78 63 25 99 12 8 5 14 vhcurveto
          -10 141 -41 callsubr
          -6 8 -12 hhcurveto
          hintmask 11110000
          -86 -65 15 81 33 6 77 9 84 hvcurveto
          hintmask 11100100
          11 102 8 114 64 vvcurveto
          148 -42 141 -250 -26 -27 -2 -3 -30 vhcurveto
          -12 -1 -3 -4 -1 -14 -10 -161 rcurveline
          -17 1 1 -7 12 hhcurveto
          2 19 22 2 18 hhcurveto
          101 31 -26 -95 -114 -6 -79 -6 -68 hvcurveto
          hintmask 11100010
          -5 -55 -3 -49 -58 vvcurveto
          -86 23 -78 70 -35 vhcurveto
          hintmask 11100100
          -69 -44 -33 -90 -69 vvcurveto
          -73 0 -56 3 -52 vhcurveto
          3 -53 1 -49 -55 vvcurveto
          -124 -37 -12 -154 -12 -1 -8 -16 -1 vhcurveto
          -10 -161 1 -14 3 -4 12 -1 rlinecurve
          -2 27 25 -1 23 hhcurveto
          299 19 129 224 55 -3 65 -3 51 hvcurveto
          hintmask 11101000
          -3 50 -3 49 63 vvcurveto
          endchar
        </CharString>
        <CharString name="bracketleft">
          -445 1432 195 hstem
          173 216 vstem
          173 -178 rmoveto
          -12 5 -3 14 -1 vhcurveto
          359 21 12 1 7 4 2 14 rlinecurve
          20 151 rlineto
          16 -2 8 -12 vhcurveto
          -212 -20 27 839 -8 603 188 -11 rlineto
          12 6 6 13 1 hvcurveto
          10 166 rlineto
          -43 callsubr
          -374 -9 rlineto
          -14 -5 -4 -12 hvcurveto
          endchar
        </CharString>
        <CharString name="bracketright">
          -445 -185 195 hstem
          293 216 vstem
          509 1620 rmoveto
          12 -5 3 -14 1 vhcurveto
          -359 -21 -12 -1 -7 -4 -2 -14 rlinecurve
          -20 -151 rlineto
          -73 callsubr
          212 20 -27 -839 8 -603 -188 11 rlineto
          -12 -6 -6 -13 -1 hvcurveto
          -10 -166 rlineto
          -14 1 3 -5 12 hhcurveto
          374 9 rlineto
          14 5 4 12 hvcurveto
          endchar
        </CharString>
        <CharString name="breve">
          -227 1330 183 hstem
          83 757 vstem
          840 1675 rmoveto
          -92 callgsubr
          -1 -9 -7 -15 vvcurveto
          -78 callgsubr
          vhcurveto
          endchar
        </CharString>
        <CharString name="breve.cap">
          -227 1638 183 hstem
          71 757 vstem
          828 1983 rmoveto
          -92 callgsubr
          -9 -8 -15 -78 callgsubr
          hvcurveto
          endchar
        </CharString>
        <CharString name="brokenbar">
          -276 -535 2171 hstemhm
          335 180 hintmask 00000000
          344 1634 rmoveto
          -9 -9 -4 -12 -1 hvcurveto
          10 -857 rlineto
          -12 5 -3 14 -1 vhcurveto
          141 10 rlineto
          16 1 8 8 12 vvcurveto
          -4 836 -20 callgsubr
          hintmask 11000000
          -141 -1292 rmoveto
          -14 -1 -5 -7 -12 vvcurveto
          -10 -843 rlineto
          -12 5 -3 14 -1 vhcurveto
          156 10 rlineto
          16 1 3 8 12 vvcurveto
          6 836 -20 callgsubr
          endchar
        </CharString>
        <CharString name="bullet">
          -441 469 27 hstem
          142 402 vstem
          544 613 rmoveto
          85 -34 135 -101 -98 -169 -27 -116 -87 36 -134 104 132 130 51 93 vhcurveto
          endchar
        </CharString>
        <CharString name="c">
          -103 -7 195 750 215 hstemhm
          94 212 392 215 -201 201 hintmask 00000000
          697 1124 rmoveto
          17 -69 -72 12 -72 hhcurveto
          -369 -21 -341 -295 -369 123 -155 282 hvcurveto
          hintmask 11101000
          56 64 9 13 68 hvcurveto
          -3 -57 rlineto
          -12 1 4 -7 12 hhcurveto
          192 hlineto
          14 6 8 13 hvcurveto
          -18 313 -1 15 -3 7 -12 1 rlinecurve
          -158 6 -16 -1 -4 -10 -1 -15 rlinecurve
          -4 -69 rlineto
          -11 -55 -46 -8 -72 hhcurveto
          -137 -80 60 305 258 49 127 235 hvcurveto
          hintmask 11110000
          43 39 -6 -9 40 hvcurveto
          -169 vlineto
          -15 4 -7 17 vhcurveto
          167 22 16 2 5 6 1 19 rlinecurve
          hintmask 11101000
          -17 356 -1 15 -4 5 -15 2 rlinecurve
          endchar
        </CharString>
        <CharString name="cacute">
          -92 callsubr
          -162 640 -102 callsubr
        </CharString>
        <CharString name="caron">
          -227 1261 519 hstem
          42 815 vstem
          853 1673 -93 callgsubr
        </CharString>
        <CharString name="caron.cap">
          -227 1609 411 hstem
          41 818 vstem
          854 1913 -101 callsubr
        </CharString>
        <CharString name="caronvertical">
          -1127 endchar
        </CharString>
        <CharString name="ccaron">
          -92 callsubr
          54 514 -93 callgsubr
        </CharString>
        <CharString name="ccedilla">
          -103 -35 callgsubr
          42 360 -283 -21 23 -21 941 215 6 -20 hstemhm
          94 212 337 176 -121 215 -201 201 -50 callgsubr
          481 -242 rmoveto
          hintmask 1100110100100000
          -71 callsubr
          16 109 rlineto
          hintmask 1100110110000000
          38 3 40 7 42 8 rrcurveto
          hintmask 1100110101000000
          -3 -57 rlineto
          -12 1 4 -7 12 hhcurveto
          192 hlineto
          14 6 8 13 hvcurveto
          -18 313 -1 15 -3 7 -12 1 rlinecurve
          -158 6 -16 -1 -4 -10 -1 -15 rlinecurve
          -4 -69 rlineto
          -11 -55 -46 -8 -72 hhcurveto
          -137 -80 60 305 258 49 127 235 hvcurveto
          hintmask 1110010101000000
          43 39 -6 -9 40 hvcurveto
          -169 vlineto
          -15 4 -7 17 vhcurveto
          167 22 16 2 5 6 1 19 rlinecurve
          hintmask 1100110100100000
          -17 356 -1 15 -4 5 -15 2 rlinecurve
          hintmask 1100101100100000
          -188 -35 rlineto
          17 -69 -72 12 -72 hhcurveto
          -369 -21 -341 -295 -345 107 -158 243 -19 hvcurveto
          -36 -142 rlineto
          hintmask 1101010100100000
          -20 callsubr
        </CharString>
        <CharString name="ccircumflex">
          -92 callsubr
          -752 209 -103 callgsubr
        </CharString>
        <CharString name="cdotaccent">
          -92 callsubr
          -371 178 -88 callsubr
          endchar
        </CharString>
        <CharString name="cedilla">
          -227 -35 callgsubr
          hstem
          503 176 vstem
          341 -242 rmoveto
          -71 callsubr
          -17 callgsubr
        </CharString>
        <CharString name="cedilla.cap">
          -227 -35 callgsubr
          hstem
          503 176 vstem
          341 -13 callsubr
          -30 -43 7 9 -34 hvcurveto
          7 -26 -21 4 -6 hhcurveto
          -11 -6 -6 -11 -2 hvcurveto
          -21 -114 rlineto
          -27 7 118 -17 87 hhcurveto
          -61 callsubr
          hvcurveto
          -17 callgsubr
        </CharString>
        <CharString name="cent">
          67 -61 360 -285 -21 hstemhm
          134 212 187 168 -162 164 -163 151 174 207 hintmask 00000000
          879 1206 rmoveto
          -19 -6 -9 -14 -11 2 -26 3 -32 hvcurveto
          hintmask 01100100
          -53 9 -57 6 -50 4 4 223 rcurveline
          -13 callgsubr
          2 -207 rlineto
          -337 -36 -64 -282 -298 vvcurveto
          hintmask 01110000
          -365 130 -155 275 -4 vhcurveto
          -219 vlineto
          -12 6 -9 16 vhcurveto
          hintmask 01100100
          123 10 rlineto
          14 1 5 3 12 vvcurveto
          -5 225 55 6 60 9 54 9 rlinecurve
          -3 -70 rlineto
          -12 1 4 -7 12 hhcurveto
          172 hlineto
          14 6 8 13 hvcurveto
          -18 313 -1 15 -3 7 -12 1 rlinecurve
          -138 6 -16 -1 -4 -10 -1 -15 rlinecurve
          -3 -57 rlineto
          hintmask 10101010
          -61 -10 -61 -9 -60 -6 -7 371 rcurveline
          7 370 54 -4 65 -8 58 -10 rlinecurve
          -109 vlineto
          -15 4 -7 17 vhcurveto
          147 22 16 2 5 6 1 19 rlinecurve
          -17 356 -1 15 -4 5 -15 2 rlinecurve
          -679 -656 rmoveto
          196 41 137 150 40 vhcurveto
          4 -338 -1 -399 rlineto
          -118 11 -76 73 280 vvcurveto
          endchar
        </CharString>
        <CharString name="circumflex">
          -227 1261 519 hstem
          42 816 vstem
          47 1368 -103 callgsubr
        </CharString>
        <CharString name="circumflex.cap">
          -227 1635 385 hstem
          61 798 vstem
          66 1748 -105 callsubr
        </CharString>
        <CharString name="colon">
          -615 -12 -21 788 -21 hstemhm
          105 316 hintmask 00000000
          hintmask 10100000
          421 80 rmoveto
          -77 callsubr
          hintmask 01100000
          767 vmoveto
          -77 callsubr
          endchar
        </CharString>
        <CharString name="comma">
          -625 -313 564 hstem
          104 304 vstem
          104 115 rmoveto
          -32 15 -18 22 -27 vhcurveto
          22 -27 21 -33 -62 vvcurveto
          -38 -22 -82 -35 -77 vhcurveto
          127 -32 rlineto
          78 89 76 133 142 vvcurveto
          84 -27 116 -100 -70 -107 -82 -54 vhcurveto
          endchar
        </CharString>
        <CharString name="commaaccent">
          -227 -540 439 hstem
          312 276 vstem
          465 -527 -99 callgsubr
        </CharString>
        <CharString name="commaaccent.cap">
          -227 -540 439 hstem
          312 276 vstem
          465 -527 rmoveto
          55 69 68 100 111 vvcurveto
          73 -32 73 -96 -65 -83 -76 -67 -20 17 -13 18 -14 vhcurveto
          18 -14 18 -15 -24 vvcurveto
          -34 -14 -32 -32 -69 vhcurveto
          -2 -4 -38 callsubr
          vvcurveto
          -7 6 -4 8 -3 vhcurveto
          95 -36 rlineto
          10 4 3 10 8 hvcurveto
          endchar
        </CharString>
        <CharString name="copyright">
          576 -94 138 178 158 747 159 190 139 hstemhm
          80 152 215 172 390 151 -145 162 301 -62 callgsubr
          276 -560 rmoveto
          9 6 6 11 hvcurveto
          -1 309 rlineto
          17 -1 -12 10 -16 hhcurveto
          -111 -18 rlineto
          18 -55 -70 17 -65 hhcurveto
          -235 -147 -141 -371 -357 119 -195 254 90 75 25 28 62 hvcurveto
          hintmask 1111111010000000
          114 -38 rlineto
          10 6 4 8 hvcurveto
          -17 307 rlineto
          11 -2 -6 5 -7 hhcurveto
          -114 -20 rlineto
          -11 -2 -5 -2 -11 vvcurveto
          -125 vlineto
          -16 -45 -44 -16 -60 hhcurveto
          -173 -74 93 294 277 54 83 179 hvcurveto
          hintmask 1111110110000000
          54 47 -6 -12 49 hvcurveto
          14 -180 rlineto
          -11 1 6 -5 7 hhcurveto
          endchar
        </CharString>
        <CharString name="currency">
          67 214 190 511 201 hstem
          178 190 457 191 vstem
          169 104 rmoveto
          -4 4 6 -3 5 hhcurveto
          3 4 1 4 3 hvcurveto
          155 163 rlineto
          -35 61 78 -16 95 hhcurveto
          112 89 18 40 67 hvcurveto
          158 -155 3 callsubr
          5 hvcurveto
          105 108 rlineto
          4 4 3 6 5 vvcurveto
          3 -1 4 -4 3 vhcurveto
          -175 166 rlineto
          29 67 14 85 106 vvcurveto
          131 -22 96 -42 69 vhcurveto
          143 146 rlineto
          7 7 4 5 6 vvcurveto
          4 -3 -33 callsubr
          -108 105 rlineto
          4 -4 -6 3 -5 hhcurveto
          -3 -4 -38 callsubr
          hvcurveto
          -158 -166 rlineto
          21 -54 -63 9 -72 hhcurveto
          -112 -91 -18 -41 -69 hvcurveto
          -161 158 rlineto
          7 -7 -5 4 -6 hhcurveto
          -4 -5 -3 -5 -5 hvcurveto
          -105 -108 rlineto
          -4 -4 -3 -6 -5 vvcurveto
          -3 1 -4 4 -3 vhcurveto
          176 -168 rlineto
          -29 -66 -15 -85 -105 vvcurveto
          -105 15 -86 31 -66 vhcurveto
          -160 -163 rlineto
          -7 -7 -4 -5 -6 vvcurveto
          -4 3 -5 5 -5 vhcurveto
          764 443 rmoveto
          -188 -76 -60 -153 -144 -84 63 187 200 53 61 180 130 94 -36 -227 vhcurveto
          endchar
        </CharString>
        <CharString name="d">
          67 -11 callgsubr
          262 204 hstem
          122 216 496 197 vstem
          671 1619 -83 callsubr
          endchar
        </CharString>
        <CharString name="dagger">
          -271 898 184 -180 184 hstemhm
          324 200 -195 204 hintmask 00000000
          338 1536 rmoveto
          -9 -9 -4 -12 -1 hvcurveto
          11 -442 -251 4 rlineto
          -12 -4 -5 -14 hvcurveto
          -141 -55 callgsubr
          hintmask 10100000
          254 1 -2 -1056 rlineto
          -12 5 -3 14 -1 vhcurveto
          161 10 rlineto
          16 1 8 9 12 vvcurveto
          hintmask 10010000
          -12 1041 239 2 rlineto
          17 5 4 -40 callgsubr
          8 151 rlineto
          9 -4 9 -12 1 vhcurveto
          hintmask 01010000
          -255 -11 8 433 -35 callsubr
          endchar
        </CharString>
        <CharString name="daggerdbl">
          -271 328 174 -170 184 382 184 -180 178 hstemhm
          318 204 -199 200 -191 182 hintmask 00000000
          337 1526 rmoveto
          -11 -1 -7 -4 -1 -13 rrcurveto
          hintmask 10101000
          11 -430 -239 4 rlineto
          -12 -5 -3 callgsubr
          -141 rlineto
          -73 callsubr
          hintmask 10100100
          255 1 2 -394 -247 -3 rlineto
          -12 -6 -5 -14 -1 hvcurveto
          -5 -131 rlineto
          -16 6 -8 12 vhcurveto
          hintmask 10100010
          252 1 -14 -477 rlineto
          -12 5 -8 14 vhcurveto
          161 -5 rlineto
          16 8 8 12 hvcurveto
          hintmask 10101000
          -10 483 257 2 rlineto
          17 7 4 16 hvcurveto
          -2 151 rlineto
          13 -4 5 -12 1 vhcurveto
          hintmask 01101000
          -263 -11 5 389 242 2 rlineto
          17 7 4 16 hvcurveto
          hintmask 01010010
          3 141 rlineto
          9 -4 9 -12 1 vhcurveto
          hintmask 10101000
          -250 -4 8 436 -35 callsubr
          endchar
        </CharString>
        <CharString name="dcaron">
          233 -11 callgsubr
          34 564 -336 4 callsubr
          496 197 77 259 hintmask 00000000
          hintmask 00100010
          1108 -44 callgsubr
          hintmask 11011100
          -437 -46 -83 callsubr
          endchar
        </CharString>
        <CharString name="dcroat">
          67 -11 callgsubr
          59 140 63 4 callsubr
          489 205 -198 197 hintmask 00000000
          671 1619 rmoveto
          -17 -5 -5 -15 -1 hvcurveto
          -10 -160 rlineto
          -17 4 -7 16 vhcurveto
          hintmask 11111010
          168 -3 2 -62 -213 2 rlineto
          -12 -3 -4 -14 -2 hvcurveto
          -10 -108 rlineto
          -11 2 -5 10 -1 vhcurveto
          hintmask 11111100
          234 6 5 -118 rlineto
          39 -101 -98 17 -108 hhcurveto
          -278 -132 -159 -408 -394 100 -190 324 139 126 50 19 46 hvcurveto
          -8 -99 rlineto
          -16 6 -6 13 vhcurveto
          248 40 16 3 5 4 2 13 rlinecurve
          18 155 rlineto
          12 -6 7 -14 vhcurveto
          -105 -11 rlineto
          hintmask 11111010
          1028 vlineto
          108 -12 rlineto
          17 5 3 15 3 hvcurveto
          19 120 rlineto
          12 -5 9 -11 vhcurveto
          -136 1 rlineto
          228 vlineto
          16 -4 6 -14 1 vhcurveto
          -676 -1025 rmoveto
          293 72 61 177 99 84 -16 -19 75 vhcurveto
          -21 -647 rlineto
          -25 -86 -80 -14 -83 hhcurveto
          -191 -46 94 273 hvcurveto
          endchar
        </CharString>
        <CharString name="degree">
          -276 1057 141 308 142 hstem
          134 163 260 159 vstem
          716 1358 -53 callgsubr
        </CharString>
        <CharString name="dieresis">
          -227 1337 263 hstem
          70 0 callgsubr
          vstem
          192 1337 -100 callgsubr
        </CharString>
        <CharString name="dieresis.cap">
          -227 1725 263 hstem
          70 0 callgsubr
          vstem
          192 1725 -100 callgsubr
        </CharString>
        <CharString name="divide">
          67 117 19 352 184 125 19 hstemhm
          182 829 -539 280 hintmask 00000000
          hintmask 01010000
          190 512 rmoveto
          1 callgsubr
          370 8 rcurveline
          413 -12 rlineto
          12 2 8 16 hvcurveto
          141 vlineto
          -43 callsubr
          -393 -5 -404 15 rlineto
          -12 -1 -4 -9 -9 vvcurveto
          hintmask 00101000
          570 236 rmoveto
          -18 callsubr
          hintmask 10001000
          -680 vmoveto
          -18 callsubr
          endchar
        </CharString>
        <CharString name="dollar">
          237 -197 1909 -1706 176 hstemhm
          175 240 -224 245 181 170 -164 162 -155 147 168 219 -186 241 -50 callgsubr
          199 371 rmoveto
          -16 -1 -8 -5 -16 vvcurveto
          hintmask 1010100010000000
          28 -377 2 -24 16 -14 24 -1 rlinecurve
          172 5 rlineto
          15 8 6 12 hvcurveto
          -11 81 60 -14 65 -12 71 -5 rlinecurve
          -2 -189 rlineto
          -12 8 -2 16 vhcurveto
          121 10 rlineto
          14 1 5 3 12 vvcurveto
          -3 176 rlineto
          311 23 124 170 216 vvcurveto
          199 -81 127 -365 143 vhcurveto
          hintmask 0110100010000000
          8 464 54 -4 42 -8 64 -13 rlinecurve
          8 -209 1 -17 1 -8 19 -1 rlinecurve
          -53 callsubr
          -30 callgsubr
          20 395 rlineto
          17 -1 -13 10 -16 hhcurveto
          -21 -81 -21 -18 -62 hvcurveto
          hintmask 1001001100000000
          -62 19 -62 13 -72 6 rrcurveto
          hintmask 1001010010000000
          3 171 rlineto
          -13 callgsubr
          3 -153 rlineto
          -268 -20 -161 -152 -221 vvcurveto
          -239 128 -103 314 -115 vhcurveto
          hintmask 1001100010000000
          -6 -495 -72 3 -70 8 -70 12 rlinecurve
          1 161 rlineto
          16 -3 -8 7 -10 hhcurveto
          583 hmoveto
          -114 -59 -68 -138 -20 vhcurveto
          -7 437 rlineto
          159 -69 45 -64 -102 vvcurveto
          hintmask 0110001010000000
          -542 776 rmoveto
          108 73 53 115 17 vhcurveto
          8 -402 rlineto
          -146 65 -50 47 112 vvcurveto
          endchar
        </CharString>
        <CharString name="dotaccent">
          -227 1337 263 hstem
          305 289 vstem
          427 1337 -88 callsubr
          endchar
        </CharString>
        <CharString name="dotaccent.cap">
          -227 1725 263 hstem
          305 289 vstem
          421 1725 -83 callgsubr
        </CharString>
        <CharString name="dotlessi">
          -19 callsubr
          hstem
          276 220 vstem
          -95 callgsubr
          endchar
        </CharString>
        <CharString name="dotlessj">
          -15 callgsubr
          hstem
          302 214 vstem
          -63 callgsubr
          endchar
        </CharString>
        <CharString name="e">
          -107 callsubr
          endchar
        </CharString>
        <CharString name="eacute">
          -107 callsubr
          hintmask 11111000
          1 1009 -102 callsubr
        </CharString>
        <CharString name="ebreve">
          -107 callsubr
          hintmask 11111000
          203 885 rmoveto
          -92 callgsubr
          -1 -9 -7 -15 vvcurveto
          -78 callgsubr
          vhcurveto
          endchar
        </CharString>
        <CharString name="ecaron">
          -107 callsubr
          hintmask 11111000
          217 883 -93 callgsubr
        </CharString>
        <CharString name="ecircumflex">
          -107 callsubr
          hintmask 11111000
          -589 578 -103 callgsubr
        </CharString>
        <CharString name="edieresis">
          -107 callsubr
          hintmask 11111000
          -444 547 -100 callgsubr
        </CharString>
        <CharString name="edotaccent">
          -107 callsubr
          hintmask 11111000
          -208 547 -88 callsubr
          endchar
        </CharString>
        <CharString name="egrave">
          -107 callsubr
          hintmask 11111000
          -515 859 -91 callsubr
        </CharString>
        <CharString name="eight">
          67 -20 200 1176 204 hstemhm
          134 219 -178 207 454 192 -186 228 hintmask 00000000
          1028 1186 rmoveto
          269 -213 105 -221 vhcurveto
          hintmask 11101000
          -226 -193 -143 -263 -150 66 -99 120 -92 hvcurveto
          hintmask 11011000
          -120 -110 -107 -109 -214 vvcurveto
          -282 224 -118 250 284 178 137 273 178 -76 99 -182 115 vhcurveto
          hintmask 11100100
          130 121 86 100 183 vvcurveto
          -541 -458 rmoveto
          hintmask 11101000
          274 -160 81 -43 -138 vvcurveto
          -135 -91 -72 -129 -155 -114 85 165 vhcurveto
          hintmask 11100100
          91 30 92 104 115 vhcurveto
          hintmask 11101000
          -105 434 rmoveto
          139 115 55 122 120 97 -81 -121 -135 -66 -83 -80 -81 vhcurveto
          -248 139 -60 79 89 vvcurveto
          endchar
        </CharString>
        <CharString name="ellipsis">
          409 -33 286 hstem
          105 316 196 316 196 316 cntrmask 01110000
          421 80 rmoveto
          -77 callsubr
          512 hmoveto
          -77 callsubr
          512 hmoveto
          -77 callsubr
          endchar
        </CharString>
        <CharString name="emacron">
          -107 callsubr
          hintmask 11111000
          154 802 -77 callgsubr
        </CharString>
        <CharString name="emdash">
          1096 688 184 hstem
          82 2059 vstem
          82 697 rmoveto
          -9 4 -9 12 -1 vhcurveto
          2017 10 rlineto
          12 3 5 14 1 hvcurveto
          10 141 rlineto
          16 -7 8 -12 vhcurveto
          -2008 -4 -17 -1 -6 -45 callgsubr
          endchar
        </CharString>
        <CharString name="endash">
          66 688 184 hstem
          82 1029 vstem
          1107 848 rmoveto
          13 -7 6 -9 1 vhcurveto
          -480 -8 -502 12 rlineto
          -17 -10 -8 -16 hvcurveto
          5 -141 rlineto
          -14 6 -5 11 vhcurveto
          994 -10 rlineto
          8 5 10 9 hvcurveto
          endchar
        </CharString>
        <CharString name="eng">
          243 -448 207 259 198 687 247 -10 -20 -3 callsubr
          478 193 hintmask 00000000
          640 195 rmoveto
          12 -5 5 -12 vhcurveto
          -109 -12 -11 598 rlineto
          hintmask 11011100
          61 100 110 44 99 hhcurveto
          122 52 -56 -159 -95 -4 -421 -17 -247 hvcurveto
          -118 -8 -71 -48 -119 hhcurveto
          -17 -6 -5 -15 hvcurveto
          30 -164 rlineto
          -17 2 7 -6 14 hhcurveto
          305 77 187 291 hvcurveto
          353 19 114 269 vvcurveto
          254 -102 130 -214 -151 -168 -101 -106 -106 vhcurveto
          hintmask 11101100
          174 vlineto
          16 -4 7 -14 vhcurveto
          -277 -41 -16 -2 -7 -5 -1 -14 rlinecurve
          -18 -173 rlineto
          -16 6 -8 14 vhcurveto
          153 -4 rlineto
          -661 -85 vlineto
          -16 -4 -6 -15 -2 hvcurveto
          -20 -153 rlineto
          -14 3 -10 13 vhcurveto
          417 hlineto
          15 5 6 -40 callgsubr
          endchar
        </CharString>
        <CharString name="eogonek">
          69 -450 205 219 202 278 147 362 190 hstem
          135 209 229 178 40 228 vstem
          1031 31 rmoveto
          24 3 20 8 33 vvcurveto
          31 -19 196 -3 23 vhcurveto
          17 -2 -9 -47 callsubr
          rlineto
          -16 -4 -6 -3 -16 vvcurveto
          -10 -3 -38 -3 -45 vhcurveto
          -11 -77 -126 -9 -39 hhcurveto
          -155 -93 34 244 -19 hvcurveto
          232 284 11 91 82 hvcurveto
          45 50 29 56 122 vvcurveto
          249 -106 120 -247 -230 -138 -64 -143 -82 vhcurveto
          -65 -114 -16 -159 -166 vvcurveto
          -379 123 -154 264 43 46 2 3 45 vhcurveto
          -50 -84 -33 -89 -77 -85 callgsubr
          51 41 71 50 65 hvcurveto
          -51 784 rmoveto
          -59 -3 -40 -34 -30 vhcurveto
          -47 -42 -190 -16 -173 -2 4 120 16 97 40 59 rrcurveto
          64 44 90 22 93 hhcurveto
          123 37 -71 -102 hvcurveto
          endchar
        </CharString>
        <CharString name="equal">
          67 278 184 214 186 hstem
          182 829 vstem
          190 692 rmoveto
          1 callgsubr
          382 8 rcurveline
          398 -12 rlineto
          12 5 8 16 hvcurveto
          141 vlineto
          -43 callsubr
          -795 10 rlineto
          -12 -6 -8 -11 hvcurveto
          821 -405 rmoveto
          0 callsubr
          -366 -8 rcurveline
          -412 12 rlineto
          -12 -7 -8 -16 hvcurveto
          -141 vlineto
          -14 1 3 -5 12 hhcurveto
          797 -10 rlineto
          12 1 4 9 9 vvcurveto
          endchar
        </CharString>
        <CharString name="eth">
          67 -21 204 597 191 382 184 hstem
          121 206 532 210 vstem
          843 1670 rmoveto
          7 -7 -9 3 -7 hhcurveto
          -8 -8 -4 -6 -4 hvcurveto
          -108 -159 rlineto
          17 -49 -55 9 -60 hhcurveto
          -105 -58 -9 -10 -65 hvcurveto
          -13 -2 -5 -7 -1 -11 -12 -144 rcurveline
          -10 4 -4 9 8 13 1 2 16 vhcurveto
          5 34 41 5 38 hhcurveto
          48 44 -6 -11 39 hvcurveto
          -123 -150 rlineto
          -4 -5 -1 -5 -4 vvcurveto
          -5 2 -5 6 -4 vhcurveto
          101 -74 rlineto
          -4 5 5 -1 5 hhcurveto
          6 5 2 6 5 hvcurveto
          131 164 68 -70 44 -110 23 -154 rlinecurve
          31 -76 -100 23 -129 hhcurveto
          -207 -208 -125 -345 -369 203 -153 257 320 168 196 503 332 -67 264 -153 143 hvcurveto
          103 115 rlineto
          6 7 3 6 8 -41 callgsubr
          5 -4 4 vhcurveto
          -96 -938 rmoveto
          -354 -87 -92 -196 -161 -88 115 169 241 114 72 123 87 97 -9 -33 109 vhcurveto
          1 -35 1 -36 -38 vvcurveto
          endchar
        </CharString>
        <CharString name="exclam">
          -615 -12 -21 hstem
          98 316 vstem
          380 1529 rmoveto
          20 -5 5 -16 1 vhcurveto
          -218 8 -16 -2 -7 -6 -1 -16 rlinecurve
          40 -1067 1 -21 9 -6 16 -2 rlinecurve
          -11 99 18 -2 19 hhcurveto
          13 4 6 14 1 hvcurveto
          77 -370 rmoveto
          -77 callsubr
          endchar
        </CharString>
        <CharString name="exclamdown">
          -615 1142 21 hstem
          98 316 vstem
          132 -399 rmoveto
          -20 5 -5 16 -1 vhcurveto
          218 -8 16 2 7 6 1 16 rlinecurve
          -40 1067 -1 21 -9 6 -16 2 rlinecurve
          11 -99 -18 2 -19 hhcurveto
          -13 -4 -6 -14 -1 hvcurveto
          -77 370 -22 callgsubr
        </CharString>
        <CharString name="f">
          -273 -98 callgsubr
          endchar
        </CharString>
        <CharString name="ff">
          581 0 200 -200 210 693 188 -184 192 368 167 hstemhm
          239 204 -194 208 220 195 221 204 -194 208 220 195 -50 callgsubr
          703 1676 rmoveto
          -13 -6 -7 -10 hvcurveto
          -1 -27 rlineto
          1 -25 -27 1 -30 hhcurveto
          -226 -136 -106 -219 hvcurveto
          hintmask 0101110100000000
          -84 2 -53 7 -77 vhcurveto
          -189 -3 rlineto
          -15 -7 -11 -11 hvcurveto
          21 -155 2 -12 5 -4 13 -1 rlinecurve
          hintmask 0110110100000000
          176 11 -9 -707 -100 -2 rlineto
          -12 -3 -5 -14 -1 hvcurveto
          hintmask 1010101100000000
          -40 callsubr
          483 -6 17 1 5 3 2 16 rlinecurve
          18 171 rlineto
          9 -4 10 -12 vhcurveto
          -184 -4 rlineto
          705 vlineto
          272 -7 16 1 5 5 1 15 rlinecurve
          10 153 -1 16 -3 7 -18 1 rlinecurve
          hintmask 0101101100000000
          -295 -4 rlineto
          -1 55 -1 59 45 vvcurveto
          156 54 54 106 26 25 -1 -3 25 vhcurveto
          -3 -106 1 -16 8 -6 17 -1 rlinecurve
          148 4 rlineto
          11 3 7 13 1 hvcurveto
          16 295 rlineto
          15 -2 -6 8 -13 hhcurveto
          hintmask 0101110100000000
          697 hmoveto
          -13 -6 -7 -10 hvcurveto
          -1 -27 rlineto
          1 -25 -27 1 -30 hhcurveto
          -226 -136 -106 -219 hvcurveto
          -50 callgsubr
          -84 2 -53 7 -77 vhcurveto
          -189 -3 rlineto
          -15 -7 -11 -11 hvcurveto
          21 -155 2 -12 5 -4 13 -1 rlinecurve
          hintmask 0101100010100000
          176 11 -9 -707 -100 -2 rlineto
          -12 -3 -5 -14 -1 hvcurveto
          hintmask 0110100010100000
          -40 callsubr
          483 -6 17 1 5 3 2 16 rlinecurve
          18 171 rlineto
          9 -4 10 -12 vhcurveto
          -184 -4 rlineto
          705 vlineto
          272 -7 16 1 5 5 1 15 rlinecurve
          10 153 -1 16 -3 7 -18 1 rlinecurve
          hintmask 1010100001100000
          -295 -4 rlineto
          -1 55 -1 59 45 vvcurveto
          156 54 54 106 26 25 -1 -3 25 vhcurveto
          -3 -106 1 -16 8 -6 17 -1 rlinecurve
          148 4 rlineto
          11 3 7 13 1 hvcurveto
          16 295 rlineto
          15 -2 -6 8 -13 hhcurveto
          endchar
        </CharString>
        <CharString name="fi">
          410 -98 callgsubr
          hintmask 01011101
          619 -1515 rmoveto
          9 -4 10 -12 vhcurveto
          -114 hlineto
          3 752 -13 182 -41 callsubr
          -3 7 -14 hhcurveto
          -321 -33 -16 -2 -6 -7 -2 -12 rlinecurve
          -22 -165 rlineto
          -16 4 -5 14 -1 vhcurveto
          162 -17 -8 -699 rlineto
          -120 hlineto
          -12 -4 -5 -14 hvcurveto
          -151 -55 callgsubr
          433 24 17 1 5 3 2 16 rlinecurve
          hintmask 00000000
          -280 1307 -88 callsubr
          endchar
        </CharString>
        <CharString name="five">
          67 7 179 539 193 382 214 hstemhm
          159 171 504 178 -152 220 hintmask 00000000
          183 333 rmoveto
          -18 -1 -6 -6 -15 vvcurveto
          -12 -337 rlineto
          -25 1 10 -14 31 hhcurveto
          142 -37 callgsubr
          3 14 vvcurveto
          -9 74 rlineto
          -25 82 80 -10 120 hhcurveto
          266 187 138 325 276 -126 172 -270 -80 -88 -17 -31 -101 hvcurveto
          57 430 rlineto
          hintmask 11110100
          350 hlineto
          -10 -95 rlineto
          -24 16 -15 26 vhcurveto
          142 15 14 1 8 3 1 14 rlinecurve
          -14 350 -41 callsubr
          -10 7 -10 hhcurveto
          -128 -14 rlineto
          -16 -2 -6 -8 -16 vvcurveto
          -45 vlineto
          -505 27 rlineto
          -20 -6 -15 -16 -2 hvcurveto
          -99 -635 93 -133 rlineto
          -16 11 7 -7 13 hhcurveto
          14 26 4 7 39 hvcurveto
          10 58 82 12 97 hhcurveto
          hintmask 11111000
          124 94 -85 -174 -187 -99 -93 -171 -87 -89 8 17 -83 hvcurveto
          -1 107 rlineto
          16 -11 7 -10 vhcurveto
          endchar
        </CharString>
        <CharString name="fl">
          410 -98 callgsubr
          hintmask 01011101
          635 -1475 -63 callsubr
        </CharString>
        <CharString name="florin">
          237 -472 169 -136 -21 1153 198 -194 178 592 167 hstemhm
          111 203 291 196 hintmask 00000000
          367 705 rmoveto
          2 -12 5 -4 13 -1 204 11 rcurveline
          -88 -805 rlineto
          -152 -17 -59 -45 -98 hhcurveto
          -7 -7 0 1 -7 hvcurveto
          6 163 rlineto
          10 -4 6 -10 vhcurveto
          -168 6 rlineto
          -16 -2 -5 -9 -15 vvcurveto
          -6 -308 rlineto
          -12 5 -7 12 vhcurveto
          hintmask 10101100
          157 10 rlineto
          hintmask 01011100
          -9 50 50 -3 48 hhcurveto
          196 61 138 228 22 hvcurveto
          80 807 253 -7 16 1 5 5 1 15 rlinecurve
          10 133 -1 16 -3 7 -18 1 rlinecurve
          -248 7 11 152 17 179 10 58 rlinecurve
          120 20 57 79 106 hhcurveto
          9 10 0 -1 10 hvcurveto
          -16 -159 1 -16 8 -5 17 -2 rlinecurve
          168 -16 rlineto
          11 3 7 13 1 hvcurveto
          16 325 rlineto
          15 -2 -6 8 -13 hhcurveto
          -132 -12 rlineto
          6 -37 -38 4 -38 hhcurveto
          -209 -100 -94 -231 -37 hvcurveto
          hintmask 10011110
          -12 -72 -19 -200 -12 -152 -207 7 rcurveline
          -15 -6 -11 -11 -1 hvcurveto
          endchar
        </CharString>
        <CharString name="four">
          67 -4 190 -190 204 264 177 hstemhm
          676 219 -204 247 hintmask 00000000
          1059 166 rmoveto
          15 -1 -6 5 -17 hhcurveto
          -140 3 rlineto
          273 vlineto
          196 2 -78 callsubr
          -8 138 rlineto
          9 -4 10 -12 vhcurveto
          hintmask 10110000
          -192 -7 39 331 rlineto
          15 -5 5 -15 2 vhcurveto
          hintmask 01101000
          -202 -3 rlineto
          -19 -6 -9 -14 hvcurveto
          -8 -334 -395 -14 rlineto
          174 304 296 558 24 vvcurveto
          -1 12 -4 4 -12 3 -215 50 rcurveline
          -18 -6 -5 -17 -9 hvcurveto
          -18 -34 -396 -864 -38 vvcurveto
          -11 1 -3 4 -10 vhcurveto
          45 -102 rlineto
          -16 7 15 -12 30 hhcurveto
          498 4 -6 -266 -221 6 rlineto
          -12 -2 -8 -16 hvcurveto
          10 -161 rlineto
          -14 1 6 -5 13 hhcurveto
          583 hlineto
          12 4 10 9 hvcurveto
          endchar
        </CharString>
        <CharString name="fraction">
          67 30 1452 hstem
          50 1094 vstem
          1042 1477 -4 callgsubr
          -3 hhcurveto
          -6 -4 -3 -6 -4 hvcurveto
          -460 -652 -498 -691 rlineto
          -4 -6 -3 -6 -6 -4 callsubr
          -3 vhcurveto
          90 -64 rlineto
          -3 5 4 -2 5 hhcurveto
          6 5 3 5 5 hvcurveto
          488 700 473 640 rlineto
          3 5 2 5 5 vvcurveto
          5 -3 5 -5 4 vhcurveto
          endchar
        </CharString>
        <CharString name="g">
          -105 callgsubr
          endchar
        </CharString>
        <CharString name="gbreve">
          -105 callgsubr
          hintmask 1111000110000000
          572 1673 rmoveto
          -92 callgsubr
          -1 -9 -7 -15 vvcurveto
          -78 callgsubr
          vhcurveto
          endchar
        </CharString>
        <CharString name="gcircumflex">
          -105 callgsubr
          hintmask 1111000110000000
          -220 1366 -103 callgsubr
        </CharString>
        <CharString name="gcommaaccent">
          -105 callgsubr
          305 1402 rmoveto
          -67 callgsubr
          vhcurveto
          hintmask 1111000110000000
          70 99 32 54 hvcurveto
          endchar
        </CharString>
        <CharString name="gdotaccent">
          -105 callgsubr
          hintmask 1111000110000000
          151 1335 -88 callsubr
          endchar
        </CharString>
        <CharString name="germandbls">
          237 -9 186 -177 200 683 209 362 192 hstemhm
          235 204 -189 204 197 223 110 221 -65 205 -50 callgsubr
          454 206 rmoveto
          709 vlineto
          hintmask 0111011010000000
          -8 111 -7 122 69 vvcurveto
          227 177 10 172 130 66 -32 -97 -84 -46 -49 -111 -113 vhcurveto
          -88 -89 -88 -99 -117 vvcurveto
          -192 110 -35 282 -98 vhcurveto
          hintmask 0111101100000000
          66 -23 31 -39 -70 vvcurveto
          -86 -66 -54 -106 -69 -90 24 22 -67 vhcurveto
          17 -51 -39 13 -11 hhcurveto
          -13 -12 -6 -16 -2 hvcurveto
          -19 -160 2 -24 16 -11 24 -4 rlinecurve
          -20 109 137 -21 127 hhcurveto
          206 129 107 204 215 -58 60 -229 88 hvcurveto
          -117 45 -67 36 54 vvcurveto
          48 36 38 46 44 vhcurveto
          hintmask 1011011010000000
          189 180 60 56 183 vvcurveto
          202 -135 95 -284 -268 -283 -60 -277 -85 0 -53 9 -79 vhcurveto
          -139 hlineto
          -15 -6 -11 -11 -1 hvcurveto
          -9 -175 2 -12 4 -4 14 -1 rlinecurve
          hintmask 0111101100000000
          156 10 rlineto
          -686 vlineto
          -129 -2 rlineto
          -12 -4 -5 -14 hvcurveto
          10 5 callgsubr
          3 -8 11 vhcurveto
          283 -6 17 1 5 3 2 16 rlinecurve
          endchar
        </CharString>
        <CharString name="grave">
          -227 1271 539 hstem
          115 569 vstem
          120 1649 -91 callsubr
        </CharString>
        <CharString name="grave.cap">
          -227 1609 411 hstem
          141 617 vstem
          145 1842 -91 callgsubr
        </CharString>
        <CharString name="greater">
          67 126 903 hstem
          217 761 vstem
          332 1024 -65 callgsubr
        </CharString>
        <CharString name="greaterequal">
          67 -32 184 104 903 hstemhm
          189 839 -801 761 hintmask 00000000
          hintmask 10100000
          1028 143 rmoveto
          9 -4 9 -12 1 vhcurveto
          -797 -10 rlineto
          -12 -3 -3 callgsubr
          -141 rlineto
          -73 callsubr
          783 4 17 1 5 3 2 16 rlinecurve
          hintmask 01010000
          -668 1162 -65 callgsubr
        </CharString>
        <CharString name="guillemotleft">
          406 17 -21 1164 -20 hstemhm
          90 691 -51 691 hintmask 00000000
          hintmask 11100000
          675 1 -75 callgsubr
          hintmask 11010000
          1200 -505 -75 callgsubr
          endchar
        </CharString>
        <CharString name="guillemotright">
          406 -4 20 1123 21 hstemhm
          112 691 -51 691 hintmask 00000000
          hintmask 11100000
          218 1155 -64 callgsubr
          hintmask 11010000
          80 505 -64 callgsubr
          endchar
        </CharString>
        <CharString name="guilsinglleft">
          -273 17 -21 1164 -20 hstem
          70 691 vstem
          655 1 -75 callgsubr
          endchar
        </CharString>
        <CharString name="guilsinglright">
          -275 17 -21 1164 -20 hstem
          91 691 vstem
          757 506 rmoveto
          11 10 14 13 12 vvcurveto
          -10 76 -2 14 -6 8 -9 9 rlinecurve
          -547 507 rlineto
          4 -4 -5 1 -5 hhcurveto
          -7 -8 -3 -5 -5 hvcurveto
          -68 -67 rlineto
          -3 -3 -3 -5 -5 vvcurveto
          -4 1 -4 3 -3 vhcurveto
          415 -484 -422 -473 rlineto
          -4 -5 -2 -5 -4 vvcurveto
          -6 3 -5 5 -5 vhcurveto
          72 -70 rlineto
          -5 5 5 -3 5 hhcurveto
          3 4 1 4 4 hvcurveto
          endchar
        </CharString>
        <CharString name="h">
          -25 callsubr
          250 211 hstemhm
          260 -24 callsubr
          -20 -367 rlineto
          hintmask 01111100
          -832 -74 callgsubr
          554 -36 callsubr
          endchar
        </CharString>
        <CharString name="hbar">
          -25 callsubr
          0 -20 270 211 hstemhm
          115 381 -236 -24 callsubr
          -5 -84 -192 -24 rlineto
          -10 -1 -2 -6 -10 vvcurveto
          8 -139 rlineto
          -15 1 5 -3 12 hhcurveto
          hintmask 01011101
          169 34 -6 -119 rlineto
          -832 vlineto
          -76 8 rlineto
          -17 -4 -4 -15 -2 hvcurveto
          -19 -176 rlineto
          -14 2 -10 13 vhcurveto
          422 7 rlineto
          15 5 4 17 3 hvcurveto
          18 129 rlineto
          8 -4 9 -12 1 vhcurveto
          -121 12 rlineto
          hintmask 10011011
          4 659 rlineto
          43 78 114 34 79 hhcurveto
          120 39 -90 -132 -98 -1 -250 -2 -161 hvcurveto
          -84 -3 -15 -38 callsubr
          -3 -17 rlinecurve
          -22 -135 rlineto
          -14 3 -10 13 vhcurveto
          430 10 rlineto
          16 7 4 16 hvcurveto
          147 vlineto
          16 -7 4 -14 1 vhcurveto
          -120 -6 rlineto
          10 146 11 221 140 vvcurveto
          260 -60 181 -238 -130 -131 -54 -63 -99 vhcurveto
          7 168 248 36 rlineto
          12 2 3 9 9 vvcurveto
          -7 130 -41 callsubr
          -9 3 -16 hhcurveto
          hintmask 01101011
          -223 -44 10 225 -36 callsubr
          endchar
        </CharString>
        <CharString name="hcircumflex">
          -25 callsubr
          190 211 hstemhm
          260 225 432 218 hintmask 00000000
          115 1366 rmoveto
          -17 6 -7 16 vhcurveto
          143 11 -20 -367 rlineto
          hintmask 01111100
          -772 -74 callgsubr
          494 -36 callsubr
          hintmask 01111100
          169 229 -105 callsubr
        </CharString>
        <CharString name="hungarumlaut">
          -227 1282 507 hstem
          -21 942 vstem
          789 1759 -85 callsubr
        </CharString>
        <CharString name="hungarumlaut.cap">
          -227 1613 407 hstem
          6 888 vstem
          734 2010 -84 callgsubr
        </CharString>
        <CharString name="hyphen">
          67 578 184 hstem
          177 839 vstem
          1016 753 rmoveto
          9 -4 9 -12 1 vhcurveto
          -797 -10 rlineto
          -12 -3 -3 callgsubr
          -141 rlineto
          -73 callsubr
          783 4 17 1 5 3 2 16 rlinecurve
          endchar
        </CharString>
        <CharString name="i">
          -19 callsubr
          1157 263 hstemhm
          276 220 hintmask 00000000
          625 161 rmoveto
          9 -4 10 -12 vhcurveto
          -114 hlineto
          3 752 -13 182 -41 callsubr
          -3 7 -14 hhcurveto
          -321 -33 -16 -2 -6 -7 -2 -12 rlinecurve
          -22 -165 rlineto
          -16 4 -5 14 -1 vhcurveto
          162 -17 -8 -699 rlineto
          -120 hlineto
          -12 -4 -5 -14 hvcurveto
          -151 -55 callgsubr
          433 24 17 1 5 3 2 16 rlinecurve
          hintmask 11100000
          -280 1307 -88 callsubr
          endchar
        </CharString>
        <CharString name="iacute">
          -19 callsubr
          1091 539 hstemhm
          118 569 -411 220 hintmask 00000000
          hintmask 10010000
          -95 callgsubr
          hintmask 01100000
          -58 1769 -102 callsubr
        </CharString>
        <CharString name="ibreve">
          -19 callsubr
          1150 183 hstemhm
          -6 757 -475 220 hintmask 00000000
          hintmask 10010000
          -95 callgsubr
          hintmask 01100000
          144 1645 rmoveto
          -92 callgsubr
          -1 -9 -7 -15 vvcurveto
          -78 callgsubr
          vhcurveto
          endchar
        </CharString>
        <CharString name="icircumflex">
          -19 callsubr
          1081 519 hstemhm
          -46 816 -494 220 hintmask 00000000
          hintmask 10010000
          -95 callgsubr
          hintmask 01100000
          -648 1338 -103 callgsubr
        </CharString>
        <CharString name="idieresis">
          -19 callsubr
          1157 263 hstemhm
          -18 289 5 220 -43 289 hintmask 00000000
          hintmask 10010000
          -95 callgsubr
          hintmask 01101000
          -503 1307 -100 callgsubr
        </CharString>
        <CharString name="igrave">
          -19 callsubr
          1091 539 hstemhm
          28 569 -321 220 hintmask 00000000
          hintmask 10010000
          -95 callgsubr
          hintmask 01100000
          -574 1619 -91 callsubr
        </CharString>
        <CharString name="ij">
          238 -448 207 227 194 710 236 208 269 -266 263 hstemhm
          205 289 -218 220 248 443 -202 214 -50 callgsubr
          625 161 rmoveto
          9 -4 10 -12 vhcurveto
          -114 hlineto
          3 752 -13 182 -41 callsubr
          -3 7 -14 hhcurveto
          -321 -33 -16 -2 -6 -7 -2 -12 rlinecurve
          -22 -165 rlineto
          -16 4 -5 14 -1 vhcurveto
          162 -17 -8 -699 rlineto
          -120 hlineto
          -12 -4 -5 -14 hvcurveto
          -151 -55 callgsubr
          433 24 17 1 5 3 2 16 rlinecurve
          hintmask 0100101000000000
          -280 1307 -88 callsubr
          hintmask 0100110000000000
          457 -429 -60 callsubr
          vhcurveto
          -50 callgsubr
          -17 -6 -5 -15 hvcurveto
          -27 callgsubr
          hintmask 1011000010000000
          -69 callsubr
          hintmask 1011000100000000
          -29 callsubr
        </CharString>
        <CharString name="imacron">
          -19 callsubr
          1221 200 hstemhm
          17 685 -426 220 hintmask 00000000
          hintmask 10010000
          -95 callgsubr
          hintmask 01100000
          95 1562 -77 callgsubr
        </CharString>
        <CharString name="infinity">
          402 348 205 -183 191 385 200 -168 211 hstemhm
          67 185 1016 189 hintmask 00000000
          433 1146 rmoveto
          -254 -112 -188 -207 -215 125 -166 243 161 97 75 120 81 hvcurveto
          hintmask 01101100
          -130 78 88 -87 188 hhcurveto
          220 109 180 232 257 -109 172 -223 -185 -109 -126 -132 -78 hvcurveto
          hintmask 10011100
          143 -81 -77 72 -162 hhcurveto
          hintmask 01101100
          679 -168 rmoveto
          93 63 -57 -163 -141 -76 -64 -91 -98 -82 51 106 -63 hvcurveto
          188 99 72 80 83 hhcurveto
          hintmask 10011100
          -675 -417 rmoveto
          -116 -69 64 139 117 69 65 114 105 78 -51 -102 61 hvcurveto
          -186 -99 -56 -46 -87 hhcurveto
          endchar
        </CharString>
        <CharString name="integral">
          67 -304 197 1558 202 hstemhm
          476 192 -142 192 hintmask 00000000
          1042 1600 rmoveto
          33 -87 -90 20 -82 hhcurveto
          hintmask 11010000
          -172 -135 -85 -220 -230 11 -250 14 -230 hvcurveto
          hintmask 11100000
          14 -225 11 -204 -145 vvcurveto
          -114 -37 -57 -98 -55 -76 12 9 -44 vhcurveto
          3 -15 -10 1 -6 hhcurveto
          -14 -9 -4 -19 -4 hvcurveto
          -27 -128 rlineto
          -39 77 -32 234 168 108 88 212 224 -9 244 -15 225 vhcurveto
          hintmask 11010000
          -15 231 -11 211 149 vvcurveto
          119 57 52 81 69 54 -9 -9 38 vhcurveto
          -5 22 11 -2 9 hhcurveto
          14 9 4 19 4 hvcurveto
          25 121 rlineto
          hintmask 11100000
          15 -6 10 -13 5 vhcurveto
          endchar
        </CharString>
        <CharString name="iogonek">
          -444 -450 205 231 194 -166 -21 1344 263 hstemhm
          136 217 -178 319 -289 438 -367 220 hintmask 00000000
          625 161 rmoveto
          9 -4 10 -12 vhcurveto
          hintmask 11010100
          -114 hlineto
          3 752 -13 182 -41 callsubr
          -3 7 -14 hhcurveto
          -321 -33 -16 -2 -6 -7 -2 -12 rlinecurve
          -22 -165 rlineto
          -16 4 -5 14 -1 vhcurveto
          162 -17 -8 -699 rlineto
          hintmask 11010001
          -120 hlineto
          -12 -4 -5 -14 hvcurveto
          -151 -55 callgsubr
          hintmask 11011000
          125 7 rlineto
          -55 -91 -45 -106 -67 vvcurveto
          -127 84 -52 131 vhcurveto
          hintmask 10110100
          88 72 17 23 71 hvcurveto
          15 5 7 4 13 vvcurveto
          -21 166 rlineto
          11 -1 -2 callgsubr
          hintmask 11010010
          -13 -79 -40 -65 hhcurveto
          -46 -50 16 56 47 46 66 52 62 hvcurveto
          132 8 17 1 5 3 2 16 rlinecurve
          -280 1307 -88 callsubr
          endchar
        </CharString>
        <CharString name="itilde">
          -19 callsubr
          1130 210 -102 214 hstemhm
          -30 784 -478 220 hintmask 00000000
          hintmask 10001000
          -95 callgsubr
          hintmask 00000000
          -605 1341 -72 callgsubr
          hintmask 00110000
          -82 callsubr
          hintmask 01010000
          29 -48 -48 29 -40 hhcurveto
          -74 -100 -68 callsubr
        </CharString>
        <CharString name="j">
          -15 callgsubr
          208 269 hstemhm
          61 443 -202 214 hintmask 00000000
          101 908 -60 callsubr
          vhcurveto
          hintmask 11101000
          -17 -6 -5 -15 hvcurveto
          -27 callgsubr
          hintmask 11110000
          -69 callsubr
          hintmask 11101000
          -29 callsubr
        </CharString>
        <CharString name="jcircumflex">
          -15 callgsubr
          135 519 hstemhm
          -68 816 -446 214 hintmask 00000000
          hintmask 11001000
          -63 callgsubr
          hintmask 00110000
          -149 279 -103 callgsubr
        </CharString>
        <CharString name="k">
          68 -4 184 298 -61 callgsubr
          hintmask 11110000
          -71 callgsubr
          endchar
        </CharString>
        <CharString name="kcommaaccent">
          68 -4 184 -182 193 287 -61 callgsubr
          hintmask 10111000
          -71 callgsubr
          hintmask 01111000
          596 -2081 -99 callgsubr
        </CharString>
        <CharString name="kgreenlandic">
          68 -4 174 -174 184 -171 -21 23 -21 488 172 297 194 16 -20 hstemhm
          213 193 hintmask 00000000
          52 978 rmoveto
          -16 4 -4 14 -2 vhcurveto
          151 -20 -16 -766 rlineto
          -111 hlineto
          -12 -3 -3 callgsubr
          -131 rlineto
          -73 callsubr
          hintmask 10001011
          413 -6 17 -26 callsubr
          hintmask 00011011
          8 151 rlineto
          9 -4 10 -12 vhcurveto
          -111 -6 12 304 rlineto
          140 hlineto
          hintmask 01001011
          284 -468 rlineto
          -11 7 7 -11 13 hhcurveto
          295 22 16 -26 callsubr
          10 147 rlineto
          18 -7 6 -14 vhcurveto
          -191 -15 -272 394 322 377 112 -10 rlineto
          12 4 5 14 hvcurveto
          -10 151 -41 callsubr
          -6 8 -12 hhcurveto
          hintmask 00101101
          -428 16 -17 -1 -5 -3 -2 -16 rlinecurve
          hintmask 10001011
          -18 -171 1 callsubr
          129 9 -245 -309 -140 6 12 324 -1 63 -12 84 -6 29 rlinecurve
          16 -3 -5 8 -14 hhcurveto
          -297 -42 -16 -2 -6 -11 -2 -14 rlinecurve
          endchar
        </CharString>
        <CharString name="l">
          -8 callsubr
          204 vstem
          641 201 -63 callsubr
        </CharString>
        <CharString name="lacute">
          -444 0 220 1036 231 hstem
          277 204 vstem
          568 2006 rmoveto
          10 -4 -48 callgsubr
          -8 -1 -5 -7 hvcurveto
          -365 -265 rlineto
          -7 -4 -2 -4 -5 -34 callgsubr
          2 -5 vhcurveto
          39 -92 rlineto
          -7 3 4 -38 callgsubr
          4 1 2 5 hvcurveto
          406 182 rlineto
          10 4 5 7 9 vvcurveto
          5 -1 6 -3 6 vhcurveto
          3 -1641 rmoveto
          15 -1 -3 4 -12 hhcurveto
          -136 -11 -15 1096 7 159 -41 callsubr
          -3 7 -14 hhcurveto
          -325 8 rlineto
          -16 -2 -8 -3 -16 vvcurveto
          -6 -196 rlineto
          -16 4 -6 14 vhcurveto
          151 12 rlineto
          -1060 vlineto
          -189 12 rlineto
          -12 -4 -5 -14 hvcurveto
          -171 -55 callgsubr
          543 -6 17 1 5 3 2 16 rlinecurve
          endchar
        </CharString>
        <CharString name="lcaron">
          -276 0 220 967 564 -395 231 hstemhm
          277 204 61 259 hintmask 00000000
          hintmask 01001000
          542 -44 callgsubr
          hintmask 10110000
          99 -1464 -63 callsubr
        </CharString>
        <CharString name="lcommaaccent">
          -444 -540 439 101 220 1136 231 hstemhm
          239 276 -238 204 hintmask 00000000
          hintmask 01101000
          641 201 -87 callgsubr
          hintmask 10010000
          -261 -547 -99 callgsubr
        </CharString>
        <CharString name="ldot">
          -271 0 220 308 -21 849 231 hstemhm
          277 204 103 316 hintmask 00000000
          hintmask 10110000
          641 201 -87 callgsubr
          hintmask 01001000
          247 600 rmoveto
          -77 callsubr
          endchar
        </CharString>
        <CharString name="less">
          67 127 903 hstem
          216 761 vstem
          862 132 rmoveto
          -3 5 5 -2 4 hhcurveto
          4 4 2 5 3 hvcurveto
          84 142 rlineto
          4 7 2 5 5 vvcurveto
          4 -1 4 -5 3 vhcurveto
          -538 273 537 283 rlineto
          5 3 1 4 3 vvcurveto
          4 -2 5 -4 6 vhcurveto
          -88 137 rlineto
          7 -5 -7 1 -7 hhcurveto
          -5 -8 -3 -3 -4 hvcurveto
          -613 -372 -10 -6 -6 -11 -1 -14 rlinecurve
          8 -96 1 -17 11 -10 13 -8 rlinecurve
          endchar
        </CharString>
        <CharString name="lessequal">
          67 -32 184 104 903 hstemhm
          179 839 -802 761 hintmask 00000000
          hintmask 10100000
          1018 143 rmoveto
          9 -4 9 -12 1 vhcurveto
          -797 -10 rlineto
          -12 -3 -3 callgsubr
          -141 rlineto
          -73 callsubr
          783 4 17 1 5 3 2 16 rlinecurve
          -751 804 rmoveto
          -13 -8 -11 -10 -1 -17 -8 -96 rcurveline
          1 -14 6 -11 10 -6 613 -372 rcurveline
          -3 4 8 -3 5 hhcurveto
          7 7 1 7 5 hvcurveto
          88 137 rlineto
          4 6 2 5 4 vvcurveto
          3 -1 4 -5 3 vhcurveto
          -537 283 538 273 rlineto
          5 3 1 4 4 -41 callgsubr
          5 -4 7 vhcurveto
          -84 142 rlineto
          5 -3 -4 2 -4 hhcurveto
          hintmask 01010000
          -4 -5 -2 -3 -5 hvcurveto
          endchar
        </CharString>
        <CharString name="logicalnot">
          67 583 188 hstem
          829 196 vstem
          1007 384 rmoveto
          12 1 7 5 12 vvcurveto
          360 vlineto
          12 -5 8 -14 1 vhcurveto
          -814 -11 rlineto
          -12 -3 -3 callgsubr
          -161 rlineto
          -16 2 -7 12 -1 vhcurveto
          652 31 -7 -203 1 -17 3 -5 16 -2 rlinecurve
          endchar
        </CharString>
        <CharString name="lozenge">
          67 0 -21 hstem
          117 959 vstem
          1076 814 rmoveto
          11 -2 8 -5 9 vhcurveto
          -387 706 -8 14 -5 6 -14 1 rlinecurve
          -104 4 -16 -2 -3 -6 -7 -13 rlinecurve
          -383 -669 -9 -15 -3 -10 -2 -22 rlinecurve
          -11 -107 rlineto
          -19 5 -15 5 -9 vhcurveto
          386 -686 8 -14 3 -2 14 -1 rlinecurve
          106 -4 11 1 7 9 6 11 rlinecurve
          389 682 6 11 4 13 1 13 rlinecurve
          -768 69 rmoveto
          300 563 296 -587 -303 -582 rlineto
          endchar
        </CharString>
        <CharString name="lslash">
          -8 callsubr
          208 vstem
          641 201 rmoveto
          15 -1 -3 4 -12 hhcurveto
          -136 -11 -7 570 203 73 rlineto
          8 4 2 6 6 vvcurveto
          3 0 2 -1 3 vhcurveto
          -52 143 rlineto
          10 -4 -6 4 -7 hhcurveto
          -4 -4 -1 -2 -5 hvcurveto
          -133 -64 -5 439 7 159 -41 callsubr
          -3 7 -14 hhcurveto
          -325 8 rlineto
          -16 -2 -8 -3 -16 vvcurveto
          -6 -196 rlineto
          -16 4 -6 14 vhcurveto
          151 12 rlineto
          -493 vlineto
          -205 -84 -31 callgsubr
          127 65 rlineto
          -478 vlineto
          -189 12 rlineto
          -12 -4 -5 -14 hvcurveto
          -171 -55 callgsubr
          543 -6 17 1 5 3 2 16 rlinecurve
          endchar
        </CharString>
        <CharString name="m">
          -7 callsubr
          -173 -58 callgsubr
          hintmask 1000010111000000
          -12 callsubr
          hintmask 0100001111000000
          -60 callgsubr
          hintmask 0001100111000000
          -32 callsubr
          hintmask 0010001111000000
          -57 callsubr
          hintmask 0100010111000000
          -7 callgsubr
          hintmask 1000010111000000
          299 -8 rlineto
          16 1 7 3 16 vvcurveto
          endchar
        </CharString>
        <CharString name="macron">
          -227 1401 200 hstem
          107 685 vstem
          792 1592 -77 callgsubr
        </CharString>
        <CharString name="macron.cap">
          -227 1761 200 hstem
          107 685 vstem
          792 1952 rmoveto
          9 -4 9 -12 1 vhcurveto
          -639 -10 rlineto
          -12 -7 -39 callgsubr
          7 -8 12 vhcurveto
          624 -6 rlineto
          17 5 4 -40 callgsubr
          endchar
        </CharString>
        <CharString name="minus">
          67 578 184 hstem
          177 839 vstem
          1016 753 rmoveto
          9 -4 9 -12 1 vhcurveto
          -797 -10 rlineto
          -12 -3 -3 callgsubr
          -141 rlineto
          -73 callsubr
          783 4 17 1 5 3 2 16 rlinecurve
          endchar
        </CharString>
        <CharString name="mu">
          67 0 -21 34 218 909 -20 hstem
          119 222 435 194 vstem
          1163 183 rmoveto
          16 -1 -8 8 -14 hhcurveto
          -150 3 -20 906 rlineto
          16 -8 8 -13 vhcurveto
          -160 -6 -15 -1 -5 -5 -2 -16 rlinecurve
          18 -766 rlineto
          -72 -94 -79 -43 -114 hhcurveto
          -103 -78 36 165 -3 hvcurveto
          27 684 rlineto
          13 -7 7 -14 1 vhcurveto
          -177 -11 rlineto
          -16 -1 -8 -6 -16 vvcurveto
          10 -1511 rlineto
          -14 3 -10 13 vhcurveto
          173 31 16 3 6 2 1 17 rlinecurve
          -27 438 rlineto
          -30 45 55 -16 67 hhcurveto
          121 104 60 86 85 hvcurveto
          22 -142 rlineto
          -26 4 12 -12 25 hhcurveto
          297 30 16 2 7 10 1 9 rlinecurve
          endchar
        </CharString>
        <CharString name="multiply">
          67 139 885 hstem
          171 854 vstem
          898 1018 rmoveto
          4 -4 -5 2 -4 hhcurveto
          -6 -5 -3 -4 -4 hvcurveto
          -277 -314 -277 304 rlineto
          4 -4 -4 3 -4 hhcurveto
          -4 -4 -3 -6 -5 hvcurveto
          -112 -127 rlineto
          -5 -6 -3 -5 -5 vvcurveto
          -4 3 -4 4 -4 vhcurveto
          294 -273 -294 -282 rlineto
          -4 -4 -1 -3 -3 -34 callgsubr
          5 -5 vhcurveto
          114 -124 rlineto
          -6 5 6 -2 5 hhcurveto
          5 4 2 5 4 hvcurveto
          269 311 280 -295 3 callsubr
          4 hvcurveto
          116 132 rlineto
          3 4 3 6 5 vvcurveto
          4 -1 4 -4 3 vhcurveto
          -305 265 298 276 rlineto
          7 7 3 5 5 vvcurveto
          4 -2 -33 callsubr
          endchar
        </CharString>
        <CharString name="n">
          -94 callsubr
          endchar
        </CharString>
        <CharString name="nacute">
          -94 callsubr
          hintmask 11011100
          737 721 -102 callsubr
        </CharString>
        <CharString name="nbspace">
          -439 endchar
        </CharString>
        <CharString name="ncaron">
          -94 callsubr
          hintmask 11011100
          953 595 -93 callgsubr
        </CharString>
        <CharString name="ncommaaccent">
          -94 callsubr
          hintmask 11011100
          580 -1605 -99 callgsubr
        </CharString>
        <CharString name="nine">
          67 -38 166 -122 -21 624 181 567 204 hstemhm
          122 226 486 236 hintmask 00000000
          221 351 rmoveto
          -13 -1 -8 -13 -1 -12 rrcurveto
          hintmask 10111100
          -32 -337 rlineto
          -24 3 15 -15 24 hhcurveto
          184 36 rlineto
          hintmask 01111100
          -18 71 76 -5 88 hhcurveto
          315 127 308 552 496 -145 243 -321 -257 -225 -153 -369 -345 218 -85 207 115 96 22 28 74 hvcurveto
          -363 -8 -45 -168 -240 hhcurveto
          -47 -45 4 8 -46 hvcurveto
          -21 198 rlineto
          16 -2 -9 7 -10 hhcurveto
          218 996 rmoveto
          199 58 -151 -351 hvcurveto
          -28 vlineto
          -24 -95 -87 -13 -77 hhcurveto
          -123 -104 42 241 169 68 115 161 hvcurveto
          endchar
        </CharString>
        <CharString name="notequal">
          67 -2 -21 291 186 -176 184 206 184 -180 190 hstemhm
          182 829 hintmask 00000000
          190 692 rmoveto
          -16 1 6 -4 17 hhcurveto
          382 8 18 -1 -46 -104 -63 -122 -304 9 rlineto
          -12 -7 -8 -16 hvcurveto
          -141 vlineto
          -14 4 -5 12 vhcurveto
          216 -3 -117 -229 rlineto
          -2 -3 0 -3 -3 vvcurveto
          -8 6 -8 9 -4 vhcurveto
          94 -36 rlineto
          -2 3 5 -2 3 hhcurveto
          8 5 7 8 4 hvcurveto
          hintmask 10101100
          124 281 431 -5 rlineto
          18 6 14 9 hvcurveto
          -8 147 0 callsubr
          rlinecurve
          -344 -8 36 82 71 143 252 -7 rlineto
          12 5 8 16 hvcurveto
          141 vlineto
          14 -4 5 -12 vhcurveto
          -164 2 108 215 rlineto
          3 3 1 4 3 vvcurveto
          7 -5 7 -10 5 vhcurveto
          -91 37 rlineto
          2 -3 -2 0 -2 hhcurveto
          -10 -5 -5 -11 -6 hvcurveto
          hintmask 11010100
          -117 -265 -492 6 rlineto
          -12 -6 -8 -11 hvcurveto
          endchar
        </CharString>
        <CharString name="ntilde">
          243 -1 -21 40 198 687 247 -10 -20 298 214 -3 callsubr
          -212 784 -144 212 hintmask 00000000
          120 905 rmoveto
          -16 6 -8 14 vhcurveto
          153 -4 rlineto
          -661 -85 vlineto
          -16 -4 -6 -15 -2 hvcurveto
          -20 -153 rlineto
          -14 3 -10 13 vhcurveto
          417 hlineto
          15 5 6 -40 callgsubr
          19 155 rlineto
          12 -5 5 -12 vhcurveto
          -109 -12 -12 599 rlineto
          hintmask 11010101
          61 96 95 43 99 hhcurveto
          122 22 -56 -159 -95 0 -423 -5 -170 hvcurveto
          -14 11 -8 11 vhcurveto
          290 22 rlineto
          16 1 7 3 16 vvcurveto
          147 vlineto
          18 -8 6 -13 vhcurveto
          -115 -5 rlineto
          7 172 11 288 120 vvcurveto
          254 -72 130 -214 -150 -151 -101 -105 -104 vhcurveto
          hintmask 11100101
          173 vlineto
          16 -4 7 -14 vhcurveto
          -277 -41 -16 -2 -7 -10 -1 -9 rlinecurve
          hintmask 11010101
          190 293 -72 callgsubr
          hintmask 00000000
          -82 callsubr
          hintmask 00001010
          29 -48 -48 29 -40 hhcurveto
          -74 -100 -68 callsubr
        </CharString>
        <CharString name="numbersign">
          67 427 190 -180 179 -176 161 247 188 -178 184 -173 161 hstemhm
          87 1020 hintmask 00000000
          1057 600 rmoveto
          12 -5 5 -10 vhcurveto
          -194 -8 13 94 25 155 198 -10 rlineto
          9 4 5 9 1 hvcurveto
          hintmask 10001010
          9 156 rlineto
          16 -6 3 -9 1 vhcurveto
          -178 -3 47 292 -35 callsubr
          -148 -2 rlineto
          -14 -8 -8 -12 -1 hvcurveto
          hintmask 10010010
          -38 -297 -131 -2 -50 1 50 301 -35 callsubr
          -148 8 rlineto
          -14 -8 -8 -12 -1 hvcurveto
          hintmask 10000110
          -40 -308 -189 6 rlineto
          -11 -7 -8 -16 -1 hvcurveto
          -9 -141 rlineto
          -14 4 -5 11 vhcurveto
          180 6 -19 -150 -17 -103 -185 10 -15 -1 -8 -7 -2 -16 rlinecurve
          -15 -141 rlineto
          -14 5 -5 12 vhcurveto
          180 2 -53 -329 rlineto
          -12 5 -8 14 vhcurveto
          141 -5 rlineto
          16 7 5 12 2 hvcurveto
          hintmask 01001010
          45 339 67 1 117 -4 -54 -328 rlineto
          -12 5 -8 14 vhcurveto
          148 hlineto
          16 7 5 12 2 hvcurveto
          hintmask 00101010
          42 326 198 -6 rlineto
          14 3 7 12 1 hvcurveto
          -543 266 rmoveto
          26 159 60 2 126 -7 -20 -160 rlineto
          hintmask 10000110
          -17 -103 -112 -4 -78 4 rlineto
          endchar
        </CharString>
        <CharString name="o">
          -51 callgsubr
          hstem
          123 204 537 206 vstem
          -94 callgsubr
          endchar
        </CharString>
        <CharString name="oacute">
          -51 callgsubr
          120 539 -19 callgsubr
          25 569 -57 206 -43 callgsubr
          -94 callgsubr
          hintmask 00101000
          -81 1248 -102 callsubr
        </CharString>
        <CharString name="obreve">
          -51 callgsubr
          179 183 -19 callgsubr
          -99 757 -121 206 -43 callgsubr
          -94 callgsubr
          hintmask 00101000
          121 1124 rmoveto
          -92 callgsubr
          -1 -9 -7 -15 vvcurveto
          -78 callgsubr
          vhcurveto
          endchar
        </CharString>
        <CharString name="ocircumflex">
          -51 callgsubr
          110 519 -19 callgsubr
          -139 816 -140 206 -43 callgsubr
          -94 callgsubr
          hintmask 00101000
          -671 817 -103 callgsubr
        </CharString>
        <CharString name="odieresis">
          -51 callgsubr
          186 263 -19 callgsubr
          -111 0 callgsubr
          -112 206 hintmask 00000000
          hintmask 11010010
          -94 callgsubr
          hintmask 00101100
          -526 786 -100 callgsubr
        </CharString>
        <CharString name="oe">
          754 -26 202 -196 204 270 147 334 216 -188 190 hstemhm
          97 204 547 200 456 228 -176 232 -50 callgsubr
          1744 -32 callgsubr
          -52 rlineto
          -12 -77 -128 -9 -40 hhcurveto
          -155 -102 34 244 -20 hvcurveto
          hintmask 1011011010000000
          234 291 9 93 83 hvcurveto
          45 50 29 56 122 vvcurveto
          249 -106 120 -247 -207 -133 -62 -115 -84 vhcurveto
          hintmask 0110111100000000
          132 -84 -140 43 -177 hhcurveto
          -300 -157 -132 -458 -456 186 -125 309 154 115 45 92 75 hvcurveto
          hintmask 0111011100000000
          -92 63 99 -51 137 hhcurveto
          113 128 12 20 84 hvcurveto
          -4 -73 rlineto
          -16 6 -6 16 vhcurveto
          -730 640 rmoveto
          hintmask 1011011010000000
          -310 -84 -57 -163 -172 -128 50 332 324 80 45 175 vhcurveto
          hintmask 0111011100000000
          148 144 -17 -367 hvcurveto
          hintmask 1011011010000000
          656 239 rmoveto
          -59 -3 -40 -34 -30 vhcurveto
          -48 -42 -196 -17 -175 -1 5 120 24 97 40 59 rrcurveto
          64 44 90 22 93 hhcurveto
          123 37 -71 -102 hvcurveto
          endchar
        </CharString>
        <CharString name="ogonek">
          -227 -450 205 hstem
          254 178 vstem
          453 137 rmoveto
          -105 -117 -94 -162 -129 -85 callgsubr
          63 63 93 65 75 hvcurveto
          endchar
        </CharString>
        <CharString name="ograve">
          -51 callgsubr
          120 539 -19 callgsubr
          -65 569 33 206 -43 callgsubr
          -94 callgsubr
          hintmask 00101000
          -597 1098 -91 callsubr
        </CharString>
        <CharString name="ohungarumlaut">
          -51 callgsubr
          131 507 -19 callgsubr
          -97 942 -308 206 -43 callgsubr
          -94 callgsubr
          hintmask 00101000
          176 1208 -85 callsubr
        </CharString>
        <CharString name="omacron">
          -51 callgsubr
          250 200 -19 callgsubr
          -76 685 -72 206 -43 callgsubr
          -94 callgsubr
          hintmask 00101000
          72 1041 -77 callgsubr
        </CharString>
        <CharString name="one">
          67 17 -21 hstemhm
          532 -11 callsubr
          209 1372 rmoveto
          -15 -6 -8 -8 -15 vvcurveto
          15 -125 rlineto
          -16 2 4 -6 14 hhcurveto
          311 40 rlineto
          hintmask 11000000
          -1038 vlineto
          -317 22 rlineto
          -12 -4 -10 -9 hvcurveto
          8 -171 -56 callsubr
          6 -4 17 hhcurveto
          803 -14 rlineto
          12 2 8 16 hvcurveto
          -10 181 rlineto
          -43 callsubr
          -275 -21 12 1081 17 214 rlineto
          16 -4 6 -14 1 vhcurveto
          -149 14 -14 -1 -8 -3 -14 -6 rlinecurve
          endchar
        </CharString>
        <CharString name="onehalf">
          406 -5 162 -127 1452 -836 138 -19 174 hstemhm
          168 1094 -981 180 412 7 callsubr
          -50 callgsubr
          hintmask 0100100000000000
          1160 1477 -86 callgsubr
          hintmask 0001010000000000
          -1114 45 -76 callsubr
          -50 callgsubr
          689 -749 -46 callsubr
          hintmask 1010001010000000
          -37 callsubr
          hintmask 1010001100000000
          -46 callgsubr
          hintmask 1010001010000000
          -23 callsubr
        </CharString>
        <CharString name="onequarter">
          3 callgsubr
          hstemhm
          1099 186 hintmask 00000000
          1367 2 callsubr
          hintmask 11010000
          -6 callgsubr
          7 -1 -1 3 -6 hhcurveto
          -23 callgsubr
          hintmask 10110000
          -52 callsubr
          4 12 -1 10 hhcurveto
          279 2 -4 -81 -91 2 rlineto
          -6 -1 -4 -8 hvcurveto
          5 -100 rlineto
          -7 1 -2 7 vhcurveto
          351 hlineto
          6 2 5 4 hvcurveto
          -197 1465 -86 callgsubr
          hintmask 11010000
          -1114 45 -76 callsubr
          endchar
        </CharString>
        <CharString name="onesuperior">
          -276 865 174 hstem
          317 180 vstem
          176 1552 -76 callsubr
          endchar
        </CharString>
        <CharString name="ordfeminine">
          -106 765 147 -144 186 159 121 81 270 -175 152 hstemhm
          115 163 -111 150 250 166 -150 243 -50 callgsubr
          826 941 rmoveto
          8 -4 5 -10 vhcurveto
          hintmask 0110110010000000
          -90 -8 rlineto
          5 117 7 181 78 vvcurveto
          182 -72 58 -119 -73 -93 -26 -33 -66 vhcurveto
          hintmask 0110101100000000
          6 67 rlineto
          10 -2 5 -12 vhcurveto
          -133 -5 rlineto
          -11 -3 -5 -13 -1 hvcurveto
          12 -234 rlineto
          -10 3 -5 10 vhcurveto
          135 2 rlineto
          11 4 3 12 hvcurveto
          hintmask 1011001100000000
          -13 62 rlineto
          15 52 48 3 45 hhcurveto
          64 45 -34 -105 hvcurveto
          -39 vlineto
          2 -30 -20 0 -28 hhcurveto
          hintmask 1010101100000000
          -247 -131 -52 -195 -155 105 -67 147 101 69 44 54 52 hvcurveto
          hintmask 1010110010000000
          -6 -80 rlineto
          -9 2 -6 8 vhcurveto
          206 13 10 1 4 1 1 11 rlinecurve
          hintmask 0110110010000000
          -409 118 rmoveto
          -75 -52 27 63 94 73 17 218 hvcurveto
          -3 -172 rlineto
          -16 -39 -54 -13 -68 hhcurveto
          endchar
        </CharString>
        <CharString name="ordmasculine">
          -106 745 149 523 157 hstem
          127 159 347 160 vstem
          127 1156 rmoveto
          -311 133 -100 211 208 114 107 302 343 -145 77 -203 -193 -125 -121 -297 vhcurveto
          506 -6 rmoveto
          -212 -44 -44 -112 -117 -74 39 227 203 41 54 120 101 85 -17 -250 vhcurveto
          endchar
        </CharString>
        <CharString name="oslash">
          67 -20 204 -164 -21 936 216 -19 callgsubr
          537 206 hintmask 00000000
          123 561 rmoveto
          -267 62 -154 114 -81 vhcurveto
          -95 -220 -6 callsubr
          6 -7 10 -4 vhcurveto
          107 -8 callgsubr
          hintmask 10111000
          82 222 rlineto
          hintmask 01111000
          -13 53 59 -6 65 hhcurveto
          304 153 135 442 305 -73 153 -124 74 hvcurveto
          79 182 rlineto
          2 5 0 3 3 vvcurveto
          9 -5 4 -10 4 vhcurveto
          -99 -9 callsubr
          -73 -189 rlineto
          10 -51 -55 4 -59 hhcurveto
          -300 -152 -132 -458 hvcurveto
          741 -10 rmoveto
          -310 -79 -57 -163 -41 -38 3 8 -34 vhcurveto
          132 356 140 324 rlineto
          50 -51 33 -96 -177 vvcurveto
          -473 -278 rmoveto
          -41 56 -23 92 145 vvcurveto
          324 75 45 175 28 28 -1 -3 27 vhcurveto
          -126 -328 rlineto
          endchar
        </CharString>
        <CharString name="otilde">
          -51 callgsubr
          159 210 -102 214 -19 callgsubr
          -123 784 -124 206 hintmask 00000000
          hintmask 11001010
          -94 callgsubr
          hintmask 00000000
          -628 820 -72 callgsubr
          hintmask 00010100
          -82 callsubr
          hintmask 00100100
          29 -48 -48 29 -40 hhcurveto
          -74 -100 -68 callsubr
        </CharString>
        <CharString name="p">
          -79 callsubr
          endchar
        </CharString>
        <CharString name="paragraph">
          402 -306 1961 hstem
          849 183 vstem
          179 1175 rmoveto
          -291 191 -159 238 25 25 2 3 26 vhcurveto
          -29 -1001 rlineto
          -17 7 -8 17 vhcurveto
          152 -4 rlineto
          12 6 8 16 hvcurveto
          9 1711 60 -1 55 -2 51 -2 rlinecurve
          8 -1716 rlineto
          -16 7 -4 17 vhcurveto
          124 16 rlineto
          12 1 6 7 16 vvcurveto
          -19 1686 31 -1 36 -4 31 -4 rlinecurve
          -4 33 20 -2 10 hhcurveto
          13 10 12 -40 callgsubr
          9 140 -1 16 -7 12 -16 3 rlinecurve
          22 -105 -221 29 -232 hhcurveto
          -329 -284 -117 -363 hvcurveto
          endchar
        </CharString>
        <CharString name="parenleft">
          -1 callsubr
          153 203 vstem
          479 -193 rmoveto
          26 27 2 3 30 hvcurveto
          12 1 8 4 1 14 9 151 rcurveline
          17 -1 -5 7 -12 hhcurveto
          -2 -16 -23 -2 -20 hhcurveto
          -134 -25 253 463 501 26 215 184 16 16 -1 -1 8 hvcurveto
          11 3 7 12 hvcurveto
          -10 156 -1 14 -3 4 -12 1 rlinecurve
          2 -16 -21 1 -28 hhcurveto
          -295 -81 -344 -592 -562 66 -324 260 hvcurveto
          endchar
        </CharString>
        <CharString name="parenright">
          -1 callsubr
          327 203 vstem
          204 1629 rmoveto
          -26 -27 -2 -3 -30 hvcurveto
          -12 -1 -8 -4 -1 -14 -9 -151 rcurveline
          -17 1 5 -7 12 hhcurveto
          2 16 23 2 20 hhcurveto
          134 25 -253 -463 -501 -26 -215 -184 -16 -16 1 1 -8 hvcurveto
          -11 -3 -7 -12 hvcurveto
          10 -156 1 -14 3 -4 12 -1 rlinecurve
          -2 16 21 -1 28 hhcurveto
          295 81 344 592 562 -66 324 -260 hvcurveto
          endchar
        </CharString>
        <CharString name="partialdiff">
          67 -14 194 600 191 391 175 hstem
          137 204 507 201 vstem
          392 1338 rmoveto
          10 25 3 6 36 hvcurveto
          8 49 63 7 42 hhcurveto
          191 40 -101 -277 -22 0 -23 -1 -22 hvcurveto
          31 -55 -74 23 -129 hhcurveto
          -232 -220 -163 -354 -280 120 -188 282 379 131 507 495 335 -70 214 -299 -81 -151 -14 -15 -61 hvcurveto
          -16 -4 -5 -8 -12 vvcurveto
          11 -132 rlineto
          -10 2 4 -4 9 hhcurveto
          143 -1158 rmoveto
          -128 -66 107 143 190 52 160 190 92 61 -10 -37 101 hvcurveto
          -288 -26 -80 -265 -196 hhcurveto
          endchar
        </CharString>
        <CharString name="percent">
          249 -5 141 -106 1452 -1038 142 326 141 308 142 hstemhm
          67 163 -69 1094 -765 159 78 163 260 159 -50 callgsubr
          hintmask 0100001000000000
          1153 1477 -86 callgsubr
          hintmask 0001110100000000
          -598 -194 -82 callgsubr
          hintmask 1010000011000000
          946 -1065 -53 callgsubr
        </CharString>
        <CharString name="period">
          -615 -12 -21 hstem
          105 316 vstem
          421 80 rmoveto
          -77 callsubr
          endchar
        </CharString>
        <CharString name="periodcentered">
          -615 528 -21 hstem
          105 316 vstem
          421 620 rmoveto
          -77 callsubr
          endchar
        </CharString>
        <CharString name="perthousand">
          923 -5 141 -106 1452 -1038 142 326 141 308 142 hstemhm
          67 163 -69 1094 -765 159 78 163 260 159 98 163 260 159 -50 callgsubr
          hintmask 0100001000000000
          1153 1477 -86 callgsubr
          hintmask 0001110100000000
          -598 -194 -82 callgsubr
          hintmask 1010000011000000
          946 -1065 -82 callgsubr
          hintmask 1010000000110000
          966 -148 -53 callgsubr
        </CharString>
        <CharString name="pi">
          67 21 -21 941 202 hstemhm
          247 224 210 202 hintmask 00000000
          86 928 rmoveto
          -16 4 -6 14 vhcurveto
          161 16 -18 -898 rlineto
          -16 8 -8 12 vhcurveto
          180 4 rlineto
          17 7 4 16 hvcurveto
          -7 917 rlineto
          242 hlineto
          -10 -182 -15 -358 -188 vvcurveto
          hintmask 11110000
          -180 38 -40 168 85 90 18 30 65 vhcurveto
          13 6 8 6 11 vvcurveto
          -27 128 rlineto
          19 -4 -9 4 -14 hhcurveto
          -9 -19 -4 -9 -31 hvcurveto
          -7 -23 -24 -4 -20 hhcurveto
          -77 -8 21 129 83 2 215 7 297 hvcurveto
          145 -7 14 1 6 6 1 16 rlinecurve
          7 168 rlineto
          19 -1 -12 4 -14 hhcurveto
          -916 -19 rlineto
          -16 -7 -8 -13 -1 hvcurveto
          endchar
        </CharString>
        <CharString name="plus">
          67 488 -12 callgsubr
          1045 rmoveto
          -13 -1 -6 -8 -12 vvcurveto
          hintmask 01100000
          8 -338 -322 -4 rlineto
          -12 -3 -5 -14 -1 hvcurveto
          10 5 callgsubr
          1 1 -49 callgsubr
          314 13 -8 -356 rlineto
          -12 5 -3 14 -1 vhcurveto
          151 -7 rlineto
          16 1 8 3 12 vvcurveto
          hintmask 10100000
          -6 364 319 -10 rlineto
          17 1 7 3 16 vvcurveto
          3 161 rlineto
          16 -6 2 -12 1 vhcurveto
          -326 -4 10 325 -20 callgsubr
          endchar
        </CharString>
        <CharString name="plusminus">
          67 588 -12 callgsubr
          1145 rmoveto
          -13 -1 -6 -8 -12 vvcurveto
          hintmask 01100000
          8 -338 -322 -4 rlineto
          -12 -3 -5 -14 -1 hvcurveto
          10 5 callgsubr
          1 1 -49 callgsubr
          314 13 -8 -356 rlineto
          -12 5 -3 14 -1 vhcurveto
          151 -7 rlineto
          16 1 8 3 12 vvcurveto
          hintmask 10100000
          -6 364 319 -10 rlineto
          17 1 7 3 16 vvcurveto
          3 161 rlineto
          16 -6 2 -12 1 vhcurveto
          -326 -4 10 325 -20 callgsubr
          hintmask 01100000
          339 -994 rmoveto
          9 -4 9 -12 1 vhcurveto
          -797 -10 rlineto
          -12 -3 -3 callgsubr
          -141 rlineto
          -73 callsubr
          783 4 17 1 5 3 2 16 rlinecurve
          endchar
        </CharString>
        <CharString name="product">
          67 8 -21 1328 187 hstemhm
          263 214 243 214 hintmask 00000000
          1083 1493 rmoveto
          9 -4 9 -12 1 vhcurveto
          -252 -15 -679 5 rlineto
          -12 -7 -5 -14 hvcurveto
          -151 vlineto
          -16 8 -8 12 vhcurveto
          138 2 -12 -1301 rlineto
          -12 5 -9 14 -1 vhcurveto
          hintmask 11110000
          171 -10 rlineto
          16 8 2 12 hvcurveto
          -12 1322 267 4 -12 -1319 rlineto
          -12 5 -9 14 vhcurveto
          171 hlineto
          16 8 2 12 hvcurveto
          -12 1329 132 2 -78 callsubr
          endchar
        </CharString>
        <CharString name="q">
          67 -451 191 262 201 726 221 hstem
          123 217 467 209 vstem
          619 -429 rmoveto
          -16 2 5 -6 15 hhcurveto
          467 hlineto
          13 2 10 14 1 hvcurveto
          10 133 rlineto
          16 -6 4 -16 1 vhcurveto
          -87 -4 -9 1383 rlineto
          17 -4 7 -16 vhcurveto
          -201 -42 rlineto
          36 -81 -78 26 -91 hhcurveto
          -305 -117 -218 -423 -342 124 -165 302 102 96 32 25 61 hvcurveto
          -3 -322 -158 6 -13 -1 -3 -4 -1 -12 rlinecurve
          -30 1203 rmoveto
          80 64 -12 -17 61 hvcurveto
          4 -663 rlineto
          -22 -79 -75 -12 -77 hhcurveto
          -178 -60 87 232 303 62 104 198 hvcurveto
          endchar
        </CharString>
        <CharString name="question">
          -104 -12 -21 1356 201 hstem
          80 217 33 316 93 234 vstem
          307 1500 rmoveto
          -2 23 -17 8 -19 1 -149 4 rcurveline
          -20 -9 -16 -16 -1 hvcurveto
          -20 -390 rlineto
          -15 1 3 -49 callgsubr
          188 6 20 1 0 8 1 17 rlinecurve
          4 128 rlineto
          45 87 71 27 114 hhcurveto
          100 68 -59 -86 -122 -108 -155 -103 -150 hvcurveto
          -67 -98 -58 -101 -23 -92 rrcurveto
          -2 -8 -2 -10 -8 vvcurveto
          -9 4 -5 9 -1 vhcurveto
          156 -23 rlineto
          14 5 7 15 6 hvcurveto
          40 103 76 101 76 102 rrcurveto
          107 144 104 153 174 vvcurveto
          224 -130 105 -219 -118 -94 -28 -56 -107 vhcurveto
          341 -1360 rmoveto
          -77 callsubr
          endchar
        </CharString>
        <CharString name="questiondown">
          -104 -401 201 1335 21 hstem
          50 234 93 316 33 217 vstem
          716 -377 rmoveto
          2 -23 17 -8 19 -1 149 -4 rcurveline
          20 9 16 16 1 hvcurveto
          20 390 rlineto
          15 -1 -3 8 -12 hhcurveto
          -188 -6 -20 -1 0 -8 -1 -17 rlinecurve
          -4 -128 rlineto
          -45 -87 -71 -27 -114 hhcurveto
          -100 -68 59 86 122 108 155 103 150 hvcurveto
          67 98 58 101 23 92 rrcurveto
          2 8 2 10 8 vvcurveto
          9 -4 5 -9 1 vhcurveto
          -156 23 rlineto
          -14 -5 -7 -15 -6 hvcurveto
          -40 -103 -76 -101 -76 -102 rrcurveto
          -107 -144 -104 -153 -174 vvcurveto
          -224 130 -105 219 118 94 28 56 107 vhcurveto
          -341 1360 -22 callgsubr
        </CharString>
        <CharString name="quotedbl">
          -103 1186 559 hstemhm
          172 240 200 240 hintmask 00000000
          hintmask 11000000
          191 1745 -59 callsubr
          hintmask 10100000
          239 8 -59 callsubr
          endchar
        </CharString>
        <CharString name="quotedblbase">
          -107 -313 564 hstemhm
          124 -16 callsubr
          124 165 -66 callsubr
        </CharString>
        <CharString name="quotedblleft">
          -103 1187 564 hstemhm
          154 -16 callsubr
          430 1273 rmoveto
          -67 callgsubr
          70 99 32 54 vhcurveto
          470 hmoveto
          -67 callgsubr
          vhcurveto
          hintmask 10100000
          70 99 32 54 hvcurveto
          endchar
        </CharString>
        <CharString name="quotedblright">
          -103 1187 564 hstemhm
          124 -16 callsubr
          124 1665 -66 callsubr
        </CharString>
        <CharString name="quoteleft">
          -615 1187 564 hstem
          133 276 vstem
          409 1273 rmoveto
          -67 callgsubr
          70 99 32 54 vhcurveto
          endchar
        </CharString>
        <CharString name="quoteright">
          -615 1187 564 hstem
          103 276 vstem
          103 1665 rmoveto
          -80 callsubr
          -70 -99 -32 -54 vhcurveto
          endchar
        </CharString>
        <CharString name="quotesinglbase">
          -615 -313 564 hstem
          103 276 vstem
          103 165 rmoveto
          -80 callsubr
          -70 -99 -32 -54 vhcurveto
          endchar
        </CharString>
        <CharString name="quotesingle">
          -615 1186 559 hstem
          136 240 vstem
          155 1745 -59 callsubr
          endchar
        </CharString>
        <CharString name="r">
          -103 -12 218 -218 224 929 -20 29 -20 hstemhm
          259 219 235 229 hintmask 00000000
          96 895 rmoveto
          2 -16 4 -7 14 -1 143 12 rcurveline
          -677 -117 vlineto
          -16 -6 -6 -15 hvcurveto
          -173 vlineto
          -14 3 -10 13 vhcurveto
          517 20 15 1 5 5 2 16 rlinecurve
          hintmask 10011100
          -11 165 rlineto
          12 -1 -4 5 -12 hhcurveto
          -174 -13 11 660 67 28 69 16 93 8 rlinecurve
          -177 vlineto
          -23 10 -2 16 vhcurveto
          188 14 rlineto
          12 1 3 6 13 vvcurveto
          31 -10 295 -2 40 vhcurveto
          21 -1 -16 11 -45 hhcurveto
          -166 -193 -68 -111 -101 hvcurveto
          hintmask 01101100
          15 165 rlineto
          16 -4 7 -14 vhcurveto
          -307 -21 -16 -1 -7 -11 -1 -9 rlinecurve
          endchar
        </CharString>
</ttFont>
